SplineFontDB: 3.0
FontName: TeXGyrePagella-Bold
FullName: TeXGyrePagella-Bold
FamilyName: TeXGyrePagella
Weight: Bold
Copyright: Copyright 2006-2018 for TeX Gyre extensions by B. Jackowski, J.M. Nowacki, et al. (on behalf of TeX USERS GROUPS). Vietnamese characters were added by Han The Thanh.
UComments: "2018-5-8: Created with FontForge (http://fontforge.org)"
Version: 2.501
ItalicAngle: 0
UnderlinePosition: -100
UnderlineWidth: 50
Ascent: 726
Descent: 274
InvalidEm: 0
sfntRevision: 0x00028042
LayerCount: 2
Layer: 0 0 "Back" 1
Layer: 1 0 "Fore" 0
XUID: [1021 867 -1322308611 20867]
StyleMap: 0x0020
FSType: 0
OS2Version: 0
OS2_WeightWidthSlopeOnly: 0
OS2_UseTypoMetrics: 1
CreationTime: 1525771506
ModificationTime: 1525771511
PfmFamily: 16
TTFWeight: 700
TTFWidth: 5
LineGap: 0
VLineGap: 90
Panose: 2 0 7 3 2 2 0 0 0 4
OS2TypoAscent: 720
OS2TypoAOffset: 0
OS2TypoDescent: -258
OS2TypoDOffset: 0
OS2TypoLinegap: 0
OS2WinAscent: 0
OS2WinAOffset: 1
OS2WinDescent: 0
OS2WinDOffset: 1
HheadAscent: 720
HheadAOffset: 0
HheadDescent: -258
HheadDOffset: 0
OS2SubXSize: 650
OS2SubYSize: 699
OS2SubXOff: 0
OS2SubYOff: 140
OS2SupXSize: 650
OS2SupYSize: 699
OS2SupXOff: 0
OS2SupYOff: 479
OS2StrikeYSize: 49
OS2StrikeYPos: 258
Lookup: 3 0 0 "'aalt' Access All Alternates lookup 0" { "'aalt' Access All Alternates lookup 0 subtable"  } ['aalt' ('DFLT' <'dflt' > ) ]
Lookup: 3 0 0 "'aalt' Access All Alternates in Latin lookup 0" { "'aalt' Access All Alternates in Latin lookup 0 subtable"  } ['aalt' ('latn' <'ROM ' 'MOL ' 'dflt' 'AZE ' 'CRT ' 'NLD ' 'PLK ' 'TRK ' > ) ]
Lookup: 2 0 0 "ccmp_decomp_sub" { "ccmp_decomp_sub subtable"  } []
Lookup: 1 0 0 "locl_ROM" { "locl_ROM subtable"  } ['locl' ('latn' <'ROM ' 'MOL ' > ) ]
Lookup: 1 0 0 "'smcp' Lowercase to Small Capitals in Latin lookup 2" { "'smcp' Lowercase to Small Capitals in Latin lookup 2 subtable"  } ['smcp' ('latn' <'dflt' 'AZE ' 'CRT ' 'MOL ' 'NLD ' 'PLK ' 'ROM ' 'TRK ' > 'DFLT' <'dflt' > ) ]

StartChar: acute
Encoding: 256 180 0
Width: 333
VWidth: 0
Flags: W
TeX: 691 0
HStem: 506 185
VStem: 78 238
LayerCount: 2
Fore
SplineSet
78 506 m 1
 207 654 l 2
 230 680 248 691 272 691 c 0
 298 691 316 674 316 647 c 0
 316 625 305 612 273 592 c 0
 263 586 290 602 134 506 c 1
 78 506 l 1
EndSplineSet
Validated: 1
EndChar

StartChar: acute.cap
Encoding: 257 -1 1
Width: 333
VWidth: 0
Flags: W
TeX: 657 0
HStem: 577 80<265 301.927>
VStem: 55 257
LayerCount: 2
Fore
SplineSet
55 506 m 1
 194 627 l 2
 219 648 239 657 265 657 c 0
 293 657 312 643 312 621 c 0
 312 603 300 593 265 577 c 2
 115 506 l 1
 55 506 l 1
EndSplineSet
Validated: 1
EndChar

StartChar: circumflex
Encoding: 258 710 2
Width: 333
VWidth: 0
Flags: W
TeX: 681 0
HStem: 512 175
LayerCount: 2
Fore
SplineSet
-2 512 m 1
 119 687 l 1
 212 687 l 1
 335 512 l 1
 278 512 l 1
 166 610 l 1
 53 512 l 1
 -2 512 l 1
EndSplineSet
Validated: 1
EndChar

StartChar: circumflex.cap
Encoding: 259 -1 3
Width: 333
VWidth: 0
Flags: W
TeX: 654 0
HStem: 511 143
LayerCount: 2
Fore
SplineSet
-15 511 m 1
 116 654 l 1
 217 654 l 1
 349 511 l 1
 287 511 l 1
 166 592 l 1
 44 511 l 1
 -15 511 l 1
EndSplineSet
Validated: 1
EndChar

StartChar: dieresis
Encoding: 260 168 4
Width: 333
VWidth: 0
Flags: W
TeX: 671 0
HStem: 532 134<10.5019 107.498 225.502 322.498>
VStem: -8 134<549.406 647.498> 207 134<550.502 647.612>
LayerCount: 2
Fore
SplineSet
-8 599 m 0
 -8 636 22 666 60 666 c 0
 96 666 126 635 126 599 c 0
 126 562 96 532 59 532 c 0
 22 532 -8 562 -8 599 c 0
207 600 m 0
 207 636 237 666 275 666 c 0
 311 666 341 635 341 599 c 0
 341 562 311 532 274 532 c 0
 237 532 207 562 207 600 c 0
EndSplineSet
Validated: 1
EndChar

StartChar: breve
Encoding: 261 728 5
Width: 333
VWidth: 0
Flags: W
TeX: 669 0
HStem: 518 76<93.223 234.964> 661 20G<15 64.5 274 318>
VStem: 15 44<629.262 681> 274 44<632.879 681>
LayerCount: 2
Fore
SplineSet
15 681 m 1
 59 681 l 1
 70 622 104 594 163 594 c 0
 201 594 229 606 250 630 c 0
 263 645 274 666 274 679 c 2
 274 681 l 1
 318 681 l 1
 314 633 309 609 292 582 c 0
 266 540 223 518 167 518 c 0
 106 518 59 544 34 592 c 0
 21 618 17 638 15 681 c 1
EndSplineSet
Validated: 1
EndChar

StartChar: breve.cap
Encoding: 262 -1 6
Width: 333
VWidth: 0
Flags: W
TeX: 649 0
HStem: 516 63<81.58 245.689>
VStem: 3 48<610.573 649> 283 48<612.874 649>
LayerCount: 2
Fore
SplineSet
3 649 m 1
 51 649 l 1
 62 601 99 579 163 579 c 0
 231 579 283 616 283 647 c 2
 283 649 l 1
 331 649 l 1
 320 556 262 516 167 516 c 0
 68 516 8 560 3 649 c 1
EndSplineSet
Validated: 1
EndChar

StartChar: dotaccent
Encoding: 263 729 7
Width: 333
VWidth: 0
Flags: W
TeX: 671 0
HStem: 532 134<118.502 215.498>
VStem: 100 134<550.502 647.612>
LayerCount: 2
Fore
SplineSet
100 600 m 0
 100 636 130 666 168 666 c 0
 204 666 234 635 234 599 c 0
 234 562 204 532 167 532 c 0
 130 532 100 562 100 600 c 0
EndSplineSet
Validated: 1
EndChar

StartChar: macron
Encoding: 264 175 8
Width: 333
VWidth: 0
Flags: W
TeX: 609 0
HStem: 564 71<1 332>
VStem: 1 331<564 635>
LayerCount: 2
Fore
SplineSet
1 564 m 1
 1 635 l 1
 332 635 l 1
 332 564 l 1
 1 564 l 1
EndSplineSet
Validated: 1
AlternateSubs2: "'aalt' Access All Alternates lookup 0 subtable" macron.alt
AlternateSubs2: "'aalt' Access All Alternates in Latin lookup 0 subtable" macron.alt
Substitution2: "'ss04' Style Set 4 in Latin lookup 18 subtable" macron.alt
Substitution2: "'ss01' Style Set 1 in Latin lookup 15 subtable" macron.alt
Substitution2: "'salt' Stylistic Alternatives in Latin lookup 14 subtable" macron.alt
EndChar

StartChar: ring
Encoding: 265 730 9
Width: 333
VWidth: 0
Flags: W
TeX: 700 0
HStem: 499 50<125.691 208.309> 649 50<126.113 207.307>
VStem: 67 50<557.889 639.277> 217 50<557.691 639.962>
LayerCount: 2
Fore
SplineSet
67 600 m 0
 67 655 112 699 169 699 c 0
 222 699 267 653 267 599 c 0
 267 544 222 499 167 499 c 0
 112 499 67 544 67 600 c 0
117 599 m 0
 117 571 139 549 167 549 c 0
 195 549 217 571 217 599 c 0
 217 626 195 649 168 649 c 0
 139 649 117 627 117 599 c 0
EndSplineSet
Validated: 1
EndChar

StartChar: hungarumlaut
Encoding: 266 733 10
Width: 333
VWidth: 0
Flags: W
TeX: 691 0
HStem: 507 185<222 253>
LayerCount: 2
Fore
SplineSet
34 507 m 1
 162 655 l 2
 187 684 201 692 225 692 c 0
 253 692 272 673 272 646 c 0
 272 628 266 616 253 608 c 2
 88 507 l 1
 34 507 l 1
222 507 m 1
 350 655 l 2
 375 684 389 692 413 692 c 0
 441 692 460 673 460 645 c 0
 460 628 454 616 441 608 c 2
 276 507 l 1
 222 507 l 1
EndSplineSet
Validated: 1
EndChar

StartChar: caron
Encoding: 267 711 11
Width: 333
VWidth: 0
Flags: W
TeX: 685 0
HStem: 512 175
LayerCount: 2
Fore
SplineSet
-2 687 m 1
 53 687 l 1
 166 589 l 1
 278 687 l 1
 335 687 l 1
 212 512 l 1
 119 512 l 1
 -2 687 l 1
EndSplineSet
Validated: 1
EndChar

StartChar: tilde
Encoding: 268 732 12
Width: 333
VWidth: 0
Flags: W
TeX: 661 0
HStem: 536 78<185.153 291.94> 584 78<36.9314 143.815>
VStem: -16 40<537 572.976>
LayerCount: 2
Fore
SplineSet
-16 537 m 1x60
 -8 611 40 662 100 662 c 0x60
 123 662 142 656 180 638 c 0
 218 620 236 614 255 614 c 0xa0
 279 614 288 623 306 662 c 1
 349 662 l 1x60
 325 575 289 536 231 536 c 0xa0
 208 536 187 542 147 561 c 0
 110 579 89 584 70 584 c 0
 50 584 34 569 24 537 c 1
 -16 537 l 1x60
EndSplineSet
Validated: 1
EndChar

StartChar: cedilla
Encoding: 269 184 13
Width: 333
VWidth: 0
Flags: W
TeX: 0 -225
HStem: -225 46<83.467 202.984>
VStem: 206 94<-174.213 -110.2>
LayerCount: 2
Fore
SplineSet
73 -207 m 1
 89 -170 l 1
 123 -177 137 -179 156 -179 c 0
 189 -179 206 -166 206 -142 c 0
 206 -120 192 -107 168 -107 c 0
 161 -107 156 -108 132 -111 c 1
 122 -103 l 1
 165 7 l 1
 206 7 l 1
 178 -71 l 1
 197 -66 209 -65 223 -65 c 0
 270 -65 300 -93 300 -138 c 0
 300 -191 248 -225 167 -225 c 0
 138 -225 109 -219 73 -207 c 1
EndSplineSet
Validated: 1
EndChar

StartChar: ogonek
Encoding: 270 731 14
Width: 333
VWidth: 0
Flags: W
TeX: 14 -250
HStem: -250 66<112.338 233.426>
VStem: 55 78<-178.026 -68.6869>
LayerCount: 2
Fore
SplineSet
55 -149 m 0
 55 -61 118 -15 174 14 c 1
 218 14 l 1
 177 -21 133 -70 133 -124 c 0
 133 -151 141 -184 175 -184 c 0
 200 -184 227 -183 236 -161 c 2
 248 -131 l 1
 278 -138 l 1
 278 -197 l 1
 225 -234 l 2
 202 -250 170 -250 141 -250 c 0
 84 -250 55 -201 55 -149 c 0
EndSplineSet
Validated: 1
EndChar

StartChar: dotlessi
Encoding: 271 305 15
Width: 333
VWidth: 0
GlyphClass: 2
Flags: W
TeX: 454 0
HStem: -3 37<34 69 263 298> 392 36<34 49> 451 20G<217 227>
VStem: 105 122<38.0215 388.532>
AnchorPoint: "bot_acc" 166 -145 basechar 0
AnchorPoint: "dotbelow" 166 -145 basechar 0
AnchorPoint: "ogon_acc" 166 -145 basechar 0
AnchorPoint: "top_accl" 166 599 basechar 0
AnchorPoint: "dotabove" 166 599 basechar 0
LayerCount: 2
Fore
SplineSet
34 -3 m 1
 34 34 l 1
 69 36 l 2
 100 38 105 46 105 100 c 2
 105 319 l 2
 105 378 102 387 79 389 c 2
 34 392 l 1
 34 428 l 1
 49 430 l 2
 91 436 109 439 147 449 c 0
 175 456 217 471 217 471 c 1
 227 465 l 1
 227 100 l 2
 227 46 232 38 263 36 c 2
 298 34 l 1
 298 -3 l 1
 253 -1 208 0 163 0 c 0
 120 0 77 -1 34 -3 c 1
EndSplineSet
Validated: 1
AlternateSubs2: "'aalt' Access All Alternates lookup 0 subtable" dotlessi.sc
AlternateSubs2: "'aalt' Access All Alternates in Latin lookup 0 subtable" dotlessi.sc
Substitution2: "'smcp' Lowercase to Small Capitals in Latin lookup 2 subtable" dotlessi.sc
EndChar

StartChar: i
Encoding: 105 105 16
Width: 333
VWidth: 0
GlyphClass: 2
Flags: W
TeX: 671 0
HStem: -3 37<34 69 263 298> 392 36<34 49> 451 20G<217 227> 532 134<117.502 214.498>
VStem: 105 122<38.0215 388.532 545.378 652.756>
AnchorPoint: "bot_acc" 166 -145 basechar 0
AnchorPoint: "dotbelow" 166 -145 basechar 0
AnchorPoint: "ogon_acc" 166 -145 basechar 0
LayerCount: 2
Fore
SplineSet
34 -3 m 1
 34 34 l 1
 69 36 l 2
 100 38 105 46 105 100 c 2
 105 319 l 2
 105 378 102 387 79 389 c 2
 34 392 l 1
 34 428 l 1
 49 430 l 2
 91 436 109 439 147 449 c 0
 175 456 217 471 217 471 c 1
 227 465 l 1
 227 100 l 2
 227 46 232 38 263 36 c 2
 298 34 l 1
 298 -3 l 1
 253 -1 208 0 163 0 c 0
 120 0 77 -1 34 -3 c 1
99 600 m 0
 99 636 129 666 167 666 c 0
 203 666 233 635 233 599 c 0
 233 562 203 532 166 532 c 0
 129 532 99 562 99 600 c 0
EndSplineSet
Validated: 1
AlternateSubs2: "'aalt' Access All Alternates lookup 0 subtable" dotlessi i.sc
AlternateSubs2: "'aalt' Access All Alternates in Latin lookup 0 subtable" dotlessi i.sc
Substitution2: "ccmp_sub_acc subtable" dotlessi
Substitution2: "'smcp' Lowercase to Small Capitals in Latin lookup 2 subtable" i.sc
EndChar

StartChar: dotlessj
Encoding: 272 567 17
Width: 333
VWidth: 0
GlyphClass: 2
Flags: W
TeX: 454 -266
HStem: -266 43<13 74.4767> 392 36<34 52> 451 20G<153.364 227>
VStem: 105 122<-118.128 388.532>
AnchorPoint: "bot_acc" 166 -411 basechar 0
AnchorPoint: "dotbelow" 166 -411 basechar 0
AnchorPoint: "ogon_acc" 54 -411 basechar 0
AnchorPoint: "top_accl" 166 599 basechar 0
AnchorPoint: "dotabove" 166 599 basechar 0
LayerCount: 2
Fore
SplineSet
3 -229 m 1
 7 -223 l 1
 30 -223 l 2
 84 -223 105 -170 105 -38 c 2
 105 319 l 2
 105 378 102 387 79 389 c 2
 34 392 l 1
 34 428 l 1
 52 430 l 2
 90 434 121 441 147 449 c 2
 217 471 l 1
 227 465 l 1
 227 98 l 2
 227 -56 214 -124 174 -183 c 0
 138 -236 91 -266 44 -266 c 0
 40 -266 20 -265 13 -264 c 1
 3 -229 l 1
EndSplineSet
Validated: 1
AlternateSubs2: "'aalt' Access All Alternates lookup 0 subtable" dotlessj.sc
AlternateSubs2: "'aalt' Access All Alternates in Latin lookup 0 subtable" dotlessj.sc
Substitution2: "'smcp' Lowercase to Small Capitals in Latin lookup 2 subtable" dotlessj.sc
EndChar

StartChar: j
Encoding: 106 106 18
Width: 333
VWidth: 0
GlyphClass: 2
Flags: W
TeX: 671 -266
HStem: -266 43<13 74.4767> 392 36<34 52> 451 20G<153.364 227> 532 134<117.502 214.498>
VStem: 105 122<-118.128 388.532 545.378 652.756>
AnchorPoint: "bot_acc" 166 -411 basechar 0
AnchorPoint: "dotbelow" 166 -411 basechar 0
AnchorPoint: "ogon_acc" 54 -411 basechar 0
LayerCount: 2
Fore
SplineSet
3 -229 m 1
 7 -223 l 1
 30 -223 l 2
 84 -223 105 -170 105 -38 c 2
 105 319 l 2
 105 378 102 387 79 389 c 2
 34 392 l 1
 34 428 l 1
 52 430 l 2
 90 434 121 441 147 449 c 2
 217 471 l 1
 227 465 l 1
 227 98 l 2
 227 -56 214 -124 174 -183 c 0
 138 -236 91 -266 44 -266 c 0
 40 -266 20 -265 13 -264 c 1
 3 -229 l 1
99 600 m 0
 99 636 129 666 167 666 c 0
 203 666 233 635 233 599 c 0
 233 562 203 532 166 532 c 0
 129 532 99 562 99 600 c 0
EndSplineSet
Validated: 1
AlternateSubs2: "'aalt' Access All Alternates lookup 0 subtable" dotlessj j.sc
AlternateSubs2: "'aalt' Access All Alternates in Latin lookup 0 subtable" dotlessj j.sc
Substitution2: "ccmp_sub_acc subtable" dotlessj
Substitution2: "'smcp' Lowercase to Small Capitals in Latin lookup 2 subtable" j.sc
EndChar

StartChar: f_f
Encoding: 273 64256 19
Width: 709
VWidth: 0
GlyphClass: 3
Flags: W
TeX: 720 0
HStem: -3 37<34 111.868 289 324 354 431.868 563.75 654> 372 62<239 437 559 683> 610 104<339.7 381 659.7 701> 634 86<272.201 361.223 592.201 681.223>
VStem: 117 122<40.3315 372 434.333 581.72> 437 122<40.0455 372 434 581.72>
LayerCount: 2
Fore
SplineSet
34 -3 m 1xdc
 34 34 l 1
 75 36 l 2
 112 38 117 45 117 100 c 2
 117 372 l 1
 38 367 l 1
 38 391 l 1
 71 407 91 418 117 436 c 1
 117 479 l 2
 117 559 124 576 172 616 c 2
 246 678 l 2
 284 710 307 720 339 720 c 0xdc
 354 720 364 718 381 714 c 1
 381 617 l 1
 365 610 l 1xec
 334 629 319 634 298 634 c 0
 252 634 239 613 239 542 c 2
 239 434 l 1
 437 434 l 1
 437 479 l 2
 437 559 444 576 492 616 c 2
 566 678 l 2
 604 710 627 720 659 720 c 0xdc
 674 720 684 718 701 714 c 1
 701 617 l 1
 685 610 l 1xec
 654 629 639 634 618 634 c 0
 572 634 559 613 559 542 c 2
 559 434 l 1
 690 438 l 1
 694 430 l 1
 683 372 l 1
 559 372 l 1
 559 100 l 2
 559 55 555 38 609 36 c 2
 654 34 l 1
 654 -3 l 1
 601 -1 547 0 494 0 c 0
 447 0 401 -1 354 -3 c 1
 354 34 l 1
 395 36 l 2
 432 38 437 45 437 100 c 2
 437 372 l 1
 239 372 l 1
 239 100 l 2
 239 54 235 39 289 36 c 2
 324 34 l 1
 324 -3 l 1
 272 -1 221 0 169 0 c 0
 124 0 79 -1 34 -3 c 1xdc
EndSplineSet
Validated: 33
Ligature2: "liga_f_f_l subtable" f f
EndChar

StartChar: f_f_i
Encoding: 274 64259 20
Width: 971
VWidth: 0
GlyphClass: 3
Flags: W
TeX: 720 0
HStem: -3 37<34 111.868 289 326 353 430.868 598 633 674 709 903 938> 372 62<239 436 558 669> 391 43<676 738.689> 451 20G<793.545 867> 532 134<766.502 863.498> 610 104<339.7 381 658.7 700> 634 86<272.201 361.223 591.201 680.223>
VStem: 117 122<40.3315 372 434.333 581.72> 436 122<38.7838 372 434 581.72> 745 122<38.0215 387.766> 748 134<550.502 647.612>
LayerCount: 2
Fore
SplineSet
34 -3 m 1xd1c0
 34 34 l 1
 75 36 l 2
 112 38 117 45 117 100 c 2
 117 372 l 1xd1c0
 38 367 l 1
 38 391 l 1
 71 407 91 418 117 436 c 1
 117 479 l 2
 117 559 124 576 172 616 c 2
 246 678 l 2
 284 710 307 720 339 720 c 0xb3c0
 354 720 364 718 381 714 c 1
 381 617 l 1
 365 610 l 1x95c0
 334 629 319 634 298 634 c 0
 252 634 239 613 239 542 c 2
 239 434 l 1
 436 434 l 1
 436 479 l 2
 436 559 443 576 491 616 c 2
 565 678 l 2
 603 710 626 720 658 720 c 0xd3c0
 673 720 683 718 700 714 c 1
 700 617 l 1
 684 610 l 1x95c0
 653 629 638 634 617 634 c 0
 571 634 558 613 558 542 c 2
 558 434 l 1
 669 434 l 2xd3c0
 716 434 754 439 787 449 c 2
 859 471 l 1
 867 471 l 1
 867 100 l 2
 867 46 872 38 903 36 c 2
 938 34 l 1
 938 -3 l 1
 893 -1 848 0 803 0 c 0
 760 0 717 -1 674 -3 c 1
 674 34 l 1
 709 36 l 2
 740 38 745 46 745 100 c 2
 745 326 l 2
 745 372 734 391 707 391 c 2
 676 391 l 1xb1c0
 669 372 l 1
 558 372 l 1
 558 100 l 2
 558 45 562 38 598 36 c 2
 633 34 l 1
 633 -3 l 1
 587 -1 542 0 496 0 c 0
 448 0 401 -1 353 -3 c 1
 353 34 l 1
 394 36 l 2
 431 38 436 45 436 100 c 2
 436 372 l 1
 239 372 l 1
 239 100 l 2
 239 54 235 39 289 36 c 2
 326 34 l 1
 326 -3 l 1
 274 -1 222 0 170 0 c 0
 125 0 79 -1 34 -3 c 1xd1c0
748 600 m 0x99a0
 748 636 778 666 816 666 c 0
 852 666 882 635 882 599 c 0
 882 562 852 532 815 532 c 0
 778 532 748 562 748 600 c 0x99a0
EndSplineSet
Validated: 33
Ligature2: "liga_PLK subtable" f_f i
Ligature2: "liga_NLDb subtable" f_f i
Ligature2: "liga_f_i subtable" f_f i
EndChar

StartChar: f_f_l
Encoding: 275 64260 21
Width: 954
VWidth: 0
GlyphClass: 3
Flags: W
TeX: 720 0
HStem: -3 37<34 111.868 289 324 360 437.868 615 640 672 707 901 936> 372 62<239 443 565 679> 634 86<272.201 361.223 598.864 678.434>
VStem: 117 122<40.3315 372 434.333 581.72> 443 122<40.6521 372 434 582.614> 743 122<38.0215 637.368>
LayerCount: 2
Fore
SplineSet
34 -3 m 1
 34 34 l 1
 75 36 l 2
 112 38 117 45 117 100 c 2
 117 372 l 1
 38 367 l 1
 38 391 l 1
 71 407 91 418 117 436 c 1
 117 479 l 2
 117 559 124 576 172 616 c 2
 246 678 l 2
 284 710 307 720 339 720 c 0
 354 720 364 718 381 714 c 1
 381 617 l 1
 365 610 l 1
 334 629 319 634 298 634 c 0
 252 634 239 613 239 542 c 2
 239 434 l 1
 443 434 l 1
 443 479 l 2
 443 559 450 576 498 616 c 2
 572 678 l 2
 609 709 632 720 661 720 c 0
 671 720 690 717 690 717 c 1
 690 680 l 1
 747 688 772 692 796 700 c 2
 857 720 l 1
 865 714 l 1
 865 100 l 2
 865 46 870 38 901 36 c 2
 936 34 l 1
 936 -3 l 1
 891 -1 846 0 801 0 c 0
 758 0 715 -1 672 -3 c 1
 672 34 l 1
 707 36 l 2
 738 38 743 46 743 100 c 2
 743 568 l 2
 743 627 740 635 717 638 c 2
 690 641 l 1
 690 608 l 1
 675 604 l 1
 658 624 639 634 617 634 c 0
 581 634 565 606 565 542 c 2
 565 434 l 1
 686 438 l 1
 690 430 l 1
 679 372 l 1
 565 372 l 1
 565 100 l 2
 565 53 561 40 615 36 c 2
 640 34 l 1
 640 -3 l 1
 594 -1 549 0 503 0 c 0
 455 0 408 -1 360 -3 c 1
 360 34 l 1
 401 36 l 2
 438 38 443 45 443 100 c 2
 443 372 l 1
 239 372 l 1
 239 100 l 2
 239 54 235 39 289 36 c 2
 324 34 l 1
 324 -3 l 1
 273 -1 221 0 170 0 c 0
 125 0 79 -1 34 -3 c 1
EndSplineSet
Validated: 33
Ligature2: "liga_f_f_l subtable" f f l
EndChar

StartChar: f_k
Encoding: 276 -1 22
Width: 911
VWidth: 0
GlyphClass: 3
Flags: W
TeX: 720 0
HStem: -3 37<14 91.8679 269 304 329 364 558 593 856.052 897> 372 62<219 343> 421 38<786.005 865> 634 86<252.201 341.223>
VStem: 97 122<40.3315 372 434.333 581.72> 400 122<38.0215 226 249 637.383>
LayerCount: 2
Fore
SplineSet
14 -3 m 1xdc
 14 34 l 1
 55 36 l 2
 92 38 97 45 97 100 c 2
 97 372 l 1xdc
 18 367 l 1
 18 391 l 1
 51 407 71 418 97 436 c 1
 97 479 l 2
 97 559 104 576 152 616 c 2
 226 678 l 2
 264 710 287 720 319 720 c 0
 334 720 344 718 361 714 c 1
 361 682 l 1
 396 686 420 691 442 698 c 2
 514 720 l 1
 522 714 l 1
 522 249 l 1
 578 297 605 321 628 346 c 2
 735 459 l 1
 865 459 l 1
 865 421 l 1
 834 421 l 2xbc
 819 421 802 415 786 403 c 0
 723 357 646 286 646 286 c 1
 842 66 l 2
 860 46 876 36 897 34 c 1
 897 0 l 1
 725 0 l 1
 667 78 596 154 532 226 c 1
 522 226 l 1
 522 100 l 2
 522 46 527 38 558 36 c 2
 593 34 l 1
 593 -3 l 1
 548 -1 503 0 458 0 c 0
 415 0 372 -1 329 -3 c 1
 329 34 l 1
 364 36 l 2
 395 38 400 46 400 100 c 2
 400 568 l 2
 400 627 396 636 374 638 c 2
 361 639 l 1
 361 617 l 1
 345 610 l 1
 314 629 299 634 278 634 c 0
 232 634 219 613 219 542 c 2
 219 434 l 1
 263 434 306 435 350 438 c 1
 354 430 l 1
 343 372 l 1
 219 372 l 1
 219 100 l 2
 219 54 215 39 269 36 c 2
 304 34 l 1
 304 -3 l 1
 252 -1 201 0 149 0 c 0
 104 0 59 -1 14 -3 c 1xdc
EndSplineSet
Validated: 33
Ligature2: "liga_PLK subtable" f k
EndChar

StartChar: exclam
Encoding: 33 33 23
Width: 278
VWidth: 0
Flags: W
TeX: 681 0
HStem: -12 156<89.5293 192.471> 668 20G<122.545 219>
VStem: 63 156<13.8326 117.074 481.562 644>
LayerCount: 2
Fore
SplineSet
63 65 m 0
 63 107 100 144 142 144 c 0
 182 144 219 106 219 65 c 0
 219 24 182 -12 140 -12 c 0
 99 -12 63 23 63 65 c 0
68 644 m 1
 168 688 l 1
 219 688 l 1
 219 654 217 631 212 592 c 2
 162 220 l 1
 124 199 l 1
 119 207 l 1
 72 565 l 2
 70 582 69 592 68 644 c 1
EndSplineSet
Validated: 1
EndChar

StartChar: numbersign
Encoding: 35 35 24
Width: 500
VWidth: 0
Flags: W
TeX: 673 0
HStem: 215 75<4 107 194 290 376 470> 396 75<32 135 221 317 403 496>
LayerCount: 2
Fore
SplineSet
4 215 m 1
 4 290 l 1
 119 290 l 1
 135 396 l 1
 32 396 l 1
 32 471 l 1
 146 471 l 1
 176 673 l 1
 251 673 l 1
 221 471 l 1
 328 471 l 1
 357 673 l 1
 432 673 l 1
 403 471 l 1
 496 471 l 1
 496 396 l 1
 392 396 l 1
 376 290 l 1
 470 290 l 1
 470 215 l 1
 365 215 l 1
 333 0 l 1
 258 0 l 1
 290 215 l 1
 182 215 l 1
 150 0 l 1
 75 0 l 1
 107 215 l 1
 4 215 l 1
194 290 m 1
 301 290 l 1
 317 396 l 1
 210 396 l 1
 194 290 l 1
EndSplineSet
Validated: 1
EndChar

StartChar: dollar
Encoding: 36 36 25
Width: 500
VWidth: 0
Flags: W
TeX: 721 -114
HStem: -17 54<137.758 221 267 308.938> 614 54<267 344.632> 701 20G<219 269>
VStem: 28 102<442.393 559.366> 39 41<83.9607 181> 221 46<-114 -17 40 267 408 614 668 721> 365 107<112.957 228.782> 381 39<488 580.939>
LayerCount: 2
Fore
SplineSet
28 462 m 0xf4
 28 524 48 574 88 609 c 0
 122 639 152 653 221 668 c 1
 219 721 l 1
 269 721 l 1
 267 668 l 1
 332 667 381 657 432 635 c 1
 434 628 l 1
 424 593 420 551 420 488 c 1
 381 488 l 1xf5
 381 546 377 571 366 579 c 0
 341 599 303 613 267 614 c 1
 267 402 l 1
 357 385 398 369 429 337 c 0
 458 307 472 267 472 214 c 0
 472 131 433 60 368 19 c 0
 338 1 315 -6 267 -13 c 1
 269 -114 l 1
 218 -114 l 1
 221 -17 l 1
 142 -14 86 -2 33 23 c 1
 30 32 l 1
 35 77 37 109 39 181 c 1
 80 181 l 1
 80 141 l 2xee
 80 110 89 90 109 75 c 0
 143 51 176 40 221 37 c 1
 221 277 l 1
 140 288 102 302 72 332 c 0
 42 361 28 403 28 462 c 0xf4
130 505 m 0
 130 451 161 418 221 408 c 1
 221 614 l 1
 169 610 130 563 130 505 c 0
267 40 m 1
 331 59 365 101 365 161 c 0xe6
 365 221 332 256 267 267 c 1
 267 40 l 1
EndSplineSet
Validated: 1
AlternateSubs2: "'aalt' Access All Alternates lookup 0 subtable" dollar.oldstyle
AlternateSubs2: "'aalt' Access All Alternates in Latin lookup 0 subtable" dollar.oldstyle
Substitution2: "'onum' Oldstyle Figures in Latin lookup 3 subtable" dollar.oldstyle
EndChar

StartChar: percent
Encoding: 37 37 26
Width: 889
VWidth: 0
Flags: W
TeX: 681 0
HStem: 0 32<630.135 700.009> 296 32<630.738 700.741> 372 32<189.135 259.009> 668 32<189.738 259.741>
VStem: 61 100<452.906 619.919> 287 100<452.718 620.31> 502 100<80.906 247.919> 728 100<80.7182 248.31>
LayerCount: 2
Fore
SplineSet
61 535 m 0
 61 632 129 700 226 700 c 0
 318 700 387 630 387 536 c 0
 387 443 317 372 224 372 c 0
 132 372 61 443 61 535 c 0
161 539 m 0
 161 446 181 404 224 404 c 0
 267 404 287 446 287 536 c 0
 287 624 266 668 225 668 c 0
 182 668 161 625 161 539 c 0
234 -9 m 1
 600 714 l 1
 649 714 l 1
 283 -9 l 1
 234 -9 l 1
502 163 m 0
 502 260 570 328 667 328 c 0
 759 328 828 258 828 164 c 0
 828 71 758 0 665 0 c 0
 573 0 502 71 502 163 c 0
602 167 m 0
 602 74 622 32 665 32 c 0
 708 32 728 74 728 164 c 0
 728 252 707 296 666 296 c 0
 623 296 602 253 602 167 c 0
EndSplineSet
Validated: 1
EndChar

StartChar: ampersand
Encoding: 38 38 27
Width: 833
VWidth: 0
Flags: W
TeX: 681 0
HStem: -17 70<269.616 400.159> -9 93<619.338 735.185> 328 66<474.214 546.071 630 768.666> 622 62<281.03 375.627>
VStem: 52 119<151.35 264.258> 174 91<455.077 572.193> 390 87<504.504 608.471> 557 76<200.915 322.519>
LayerCount: 2
Fore
SplineSet
52 176 m 0xbf
 52 262 93 314 207 373 c 1
 183 433 174 467 174 503 c 0
 174 541 186 566 225 608 c 2
 260 646 l 2
 282 669 321 684 362 684 c 0
 432 684 477 643 477 580 c 0
 477 510 438 462 319 385 c 1
 380 294 441 227 525 158 c 1
 549 195 557 219 557 250 c 0
 557 275 550 300 537 328 c 1
 447 328 l 1
 467 365 472 377 476 394 c 1
 643 389 l 2
 681 389 711 390 788 395 c 1
 791 386 l 1
 780 360 775 342 771 316 c 1
 721 321 685 323 630 323 c 1
 632 307 633 295 633 286 c 0
 633 239 615 195 568 133 c 1
 621 100 668 84 719 84 c 0
 746 84 761 97 782 111 c 2
 799 122 l 1
 813 90 l 1
 772 55 741 23 720 -9 c 1x7f
 654 -12 l 2
 590 -12 540 7 483 53 c 1
 415 3 358 -17 282 -17 c 0
 147 -17 52 63 52 176 c 0xbf
171 233 m 0
 171 137 254 53 350 53 c 0xbf
 384 53 411 62 441 83 c 1
 344 167 285 235 222 336 c 1
 183 299 171 275 171 233 c 0
265 544 m 0
 265 511 273 484 299 426 c 1
 345 457 390 497 390 557 c 0
 390 596 366 622 331 622 c 0
 289 622 265 594 265 544 c 0
EndSplineSet
Validated: 1
AlternateSubs2: "'aalt' Access All Alternates lookup 0 subtable" ampersand
AlternateSubs2: "'aalt' Access All Alternates in Latin lookup 0 subtable" ampersand
Substitution2: "'lnum' Lining Figures in Latin lookup 4 subtable" ampersand
Substitution2: "'onum' Oldstyle Figures in Latin lookup 3 subtable" ampersand
EndChar

StartChar: comma
Encoding: 44 44 28
Width: 250
VWidth: 0
Flags: W
TeX: 141 -166
HStem: -166 307
VStem: -6 233
LayerCount: 2
Fore
SplineSet
-6 -153 m 1
 38 -64 68 32 76 103 c 1
 130 117 163 126 210 141 c 1
 227 125 l 1
 191 47 158 -11 80 -136 c 1
 9 -166 l 1
 -6 -153 l 1
EndSplineSet
Validated: 1
EndChar

StartChar: hyphen
Encoding: 45 45 29
Width: 333
VWidth: 0
Flags: W
TeX: 305 0
HStem: 195 110<43.6755 289.492>
VStem: 16 301
LayerCount: 2
Fore
SplineSet
16 203 m 1
 28 237 40 270 50 305 c 1
 308 305 l 1
 317 295 l 1
 301 259 290 223 285 195 c 1
 24 195 l 1
 16 203 l 1
EndSplineSet
Validated: 1
EndChar

StartChar: period
Encoding: 46 46 30
Width: 250
VWidth: 0
Flags: W
TeX: 144 0
HStem: -12 156<73.5293 176.471>
VStem: 47 156<13.8326 117.074>
LayerCount: 2
Fore
SplineSet
47 65 m 0
 47 107 84 144 126 144 c 0
 166 144 203 106 203 65 c 0
 203 24 166 -12 124 -12 c 0
 83 -12 47 23 47 65 c 0
EndSplineSet
Validated: 1
EndChar

StartChar: zero
Encoding: 48 48 31
Width: 500
VWidth: 0
Flags: W
TeX: 681 0
HStem: -17 50<207.274 301.948> 610 50<194.25 293.177>
VStem: 33 120<122.398 498.867> 348 120<152.253 517.532>
LayerCount: 2
Fore
SplineSet
33 302 m 0
 33 424 47 502 81 561 c 0
 119 628 178 660 266 660 c 0
 339 660 395 630 427 573 c 0
 456 522 468 455 468 348 c 0
 468 96 398 -17 242 -17 c 0
 96 -17 33 79 33 302 c 0
153 372 m 0
 153 238 165 128 185 85 c 0
 201 51 225 33 255 33 c 0
 315 33 348 110 348 252 c 0
 348 386 334 515 314 558 c 0
 298 592 274 610 245 610 c 0
 217 610 195 597 180 570 c 0
 160 533 153 482 153 372 c 0
EndSplineSet
Validated: 1
AlternateSubs2: "'aalt' Access All Alternates lookup 0 subtable" zero.slash zero.prop zero.oldstyle
AlternateSubs2: "'aalt' Access All Alternates in Latin lookup 0 subtable" zero.slash zero.prop zero.oldstyle
Substitution2: "'zero' Slashed Zero in Latin lookup 21 subtable" zero.slash
Substitution2: "'pnum' Proportional Numbers in Latin lookup 5 subtable" zero.prop
Substitution2: "'onum' Oldstyle Figures in Latin lookup 3 subtable" zero.oldstyle
EndChar

StartChar: one
Encoding: 49 49 32
Width: 500
VWidth: 0
Flags: W
TeX: 681 0
HStem: -3 40<75 195.984 344.016 455>
VStem: 204 132<45.6928 560.953>
LayerCount: 2
Fore
SplineSet
35 569 m 1
 97 583 212 622 334 670 c 1
 346 660 l 1
 338 548 336 485 336 406 c 2
 336 84 l 2
 336 54 355 39 393 37 c 2
 455 34 l 1
 455 -3 l 1
 396 -1 337 0 278 0 c 0
 210 0 143 -1 75 -3 c 1
 75 34 l 1
 147 37 l 2
 185 39 204 55 204 84 c 2
 204 527 l 2
 204 549 207 572 189 564 c 2
 49 499 l 1
 39 525 35 544 35 569 c 1
EndSplineSet
Validated: 33
AlternateSubs2: "'aalt' Access All Alternates lookup 0 subtable" one.prop one.oldstyle
AlternateSubs2: "'aalt' Access All Alternates in Latin lookup 0 subtable" one.prop one.oldstyle
Substitution2: "'pnum' Proportional Numbers in Latin lookup 5 subtable" one.prop
Substitution2: "'onum' Oldstyle Figures in Latin lookup 3 subtable" one.oldstyle
EndChar

StartChar: two
Encoding: 50 50 33
Width: 500
VWidth: 0
Flags: W
TeX: 681 0
HStem: -3 120<275.818 468> 0 106<166 358.182> 555 105<131.649 268.863>
VStem: 49 37<434.432 458.444> 309 132<398.21 514.676>
LayerCount: 2
Fore
SplineSet
25 -3 m 1xb8
 25 48 l 1
 192 214 l 2
 270 292 309 368 309 443 c 0
 309 511 267 555 201 555 c 0
 157 555 112 530 104 500 c 2
 86 432 l 1
 49 435 l 1
 67 600 l 1
 124 643 169 660 228 660 c 0
 352 660 441 588 441 487 c 0
 441 423 404 350 338 285 c 2
 164 114 l 1
 166 106 l 1x78
 468 117 l 1
 472 112 l 1
 470 85 469 72 469 50 c 0
 469 34 469 21 471 -3 c 1xb8
 394 -1 318 0 241 0 c 0x78
 169 0 97 -1 25 -3 c 1xb8
EndSplineSet
Validated: 1
AlternateSubs2: "'aalt' Access All Alternates lookup 0 subtable" two.prop two.oldstyle
AlternateSubs2: "'aalt' Access All Alternates in Latin lookup 0 subtable" two.prop two.oldstyle
Substitution2: "'pnum' Proportional Numbers in Latin lookup 5 subtable" two.prop
Substitution2: "'onum' Oldstyle Figures in Latin lookup 3 subtable" two.oldstyle
EndChar

StartChar: three
Encoding: 51 51 34
Width: 500
VWidth: 0
Flags: W
TeX: 681 0
HStem: -17 56<134.004 278.877> 288 79<159 206.971> 296 71<159 265.421> 461 21G<53 97.5> 562 98<134.265 275.576>
VStem: 22 34<131.355 157.853> 53 35<461 495.774> 307 111<446.809 530.911> 334 124<135.052 246.63>
LayerCount: 2
Fore
SplineSet
22 156 m 1xdc80
 56 165 l 1
 78 116 92 95 115 74 c 0
 141 52 175 39 210 39 c 0
 283 39 334 94 334 172 c 0
 334 247 284 296 208 296 c 0xbc80
 186 296 167 294 147 288 c 1
 140 293 l 1
 159 367 l 1
 194 367 l 2
 262 367 307 408 307 472 c 0
 307 527 268 562 205 562 c 0
 144 562 107 530 88 461 c 1
 53 461 l 1
 84 615 l 1
 142 648 182 660 237 660 c 0
 342 660 418 601 418 519 c 0xdb
 418 458 383 413 306 373 c 1
 351 368 372 362 397 346 c 0
 437 319 458 278 458 225 c 0
 458 91 330 -17 171 -17 c 0
 122 -17 89 -11 47 7 c 1
 34 87 31 111 22 156 c 1xdc80
EndSplineSet
Validated: 1
AlternateSubs2: "'aalt' Access All Alternates lookup 0 subtable" three.prop three.oldstyle
AlternateSubs2: "'aalt' Access All Alternates in Latin lookup 0 subtable" three.prop three.oldstyle
Substitution2: "'pnum' Proportional Numbers in Latin lookup 5 subtable" three.prop
Substitution2: "'onum' Oldstyle Figures in Latin lookup 3 subtable" three.oldstyle
EndChar

StartChar: four
Encoding: 52 52 35
Width: 500
VWidth: 0
Flags: W
TeX: 681 0
HStem: -3 37<142 243.526 437 473> 165 82<82 263 380 468>
VStem: 263 117<50.5268 165 247 579>
LayerCount: 2
Fore
SplineSet
12 204 m 1
 69 346 140 474 257 645 c 1
 379 672 l 1
 386 660 l 1
 380 372 l 1
 380 247 l 1
 468 247 l 1
 469 244 l 1
 469 165 l 1
 380 165 l 1
 380 111 l 2
 380 65 399 40 437 37 c 2
 473 34 l 1
 473 -3 l 1
 422 -1 370 0 319 0 c 0
 260 0 201 -1 142 -3 c 1
 142 34 l 1
 206 37 l 2
 243 39 263 65 263 111 c 2
 263 165 l 1
 19 165 l 1
 12 204 l 1
82 247 m 1
 263 247 l 1
 263 579 l 1
 224 516 234 541 188 456 c 2
 126 340 l 2
 110 310 96 278 82 247 c 1
EndSplineSet
Validated: 1
AlternateSubs2: "'aalt' Access All Alternates lookup 0 subtable" four.prop four.oldstyle
AlternateSubs2: "'aalt' Access All Alternates in Latin lookup 0 subtable" four.prop four.oldstyle
Substitution2: "'pnum' Proportional Numbers in Latin lookup 5 subtable" four.prop
Substitution2: "'onum' Oldstyle Figures in Latin lookup 3 subtable" four.oldstyle
EndChar

StartChar: five
Encoding: 53 53 36
Width: 500
VWidth: 0
Flags: W
TeX: 681 0
HStem: -17 58<148.218 299.394> 315 103<173.809 297.915> 542 108<149.064 435.937> 636 20G<90 97 444 448>
VStem: 42 30<129.908 143.2> 96 49<385.168 539> 354 118<141.973 257.452>
LayerCount: 2
Fore
SplineSet
42 139 m 1xee
 72 157 l 1
 107 80 158 41 227 41 c 0
 304 41 354 94 354 177 c 0
 354 261 302 315 221 315 c 0
 177 315 142 303 109 275 c 1
 90 286 l 1
 95 365 96 389 96 410 c 2
 96 512 l 2
 96 546 95 576 90 648 c 1
 97 656 l 1xde
 97 656 201 650 267 650 c 0xee
 336 650 444 656 444 656 c 1xde
 448 648 l 1
 443 626 441 612 441 592 c 0
 441 580 441 566 442 550 c 1
 436 539 l 1
 436 539 349 542 293 542 c 0
 237 542 149 539 149 539 c 1
 145 384 l 1
 202 410 232 418 275 418 c 0
 396 418 472 348 472 237 c 0
 472 96 345 -17 186 -17 c 0
 141 -17 110 -11 73 5 c 1
 67 37 61 62 42 139 c 1xee
EndSplineSet
Validated: 1
AlternateSubs2: "'aalt' Access All Alternates lookup 0 subtable" five.prop five.oldstyle
AlternateSubs2: "'aalt' Access All Alternates in Latin lookup 0 subtable" five.prop five.oldstyle
Substitution2: "'pnum' Proportional Numbers in Latin lookup 5 subtable" five.prop
Substitution2: "'onum' Oldstyle Figures in Latin lookup 3 subtable" five.oldstyle
EndChar

StartChar: six
Encoding: 54 54 37
Width: 500
VWidth: 0
Flags: W
TeX: 681 0
HStem: -17 50<210.103 315.048> 323 86<232.895 361.5> 618 42<306.682 396>
VStem: 37 128<122.651 349.197> 351 118<111.394 271.163>
LayerCount: 2
Fore
SplineSet
37 264 m 0
 37 404 86 513 186 590 c 0
 251 640 303 658 396 660 c 1
 435 633 l 1
 420 617 l 1
 411 618 403 618 399 618 c 0
 327 618 261 584 221 524 c 0
 190 478 176 426 168 326 c 1
 216 387 255 409 314 409 c 0
 409 409 469 336 469 221 c 0
 469 79 381 -17 252 -17 c 0
 181 -17 125 9 89 60 c 0
 57 106 37 182 37 264 c 0
165 198 m 0
 165 97 203 33 263 33 c 0
 319 33 351 84 351 171 c 0
 351 262 312 323 254 323 c 0
 195 323 165 282 165 198 c 0
EndSplineSet
Validated: 1
AlternateSubs2: "'aalt' Access All Alternates lookup 0 subtable" six.prop six.oldstyle
AlternateSubs2: "'aalt' Access All Alternates in Latin lookup 0 subtable" six.prop six.oldstyle
Substitution2: "'pnum' Proportional Numbers in Latin lookup 5 subtable" six.prop
Substitution2: "'onum' Oldstyle Figures in Latin lookup 3 subtable" six.oldstyle
EndChar

StartChar: seven
Encoding: 55 55 38
Width: 500
VWidth: 0
Flags: W
TeX: 681 0
HStem: -3 21G<88 103 195 211.5> 532 122<102.825 384>
VStem: 49 39<416 472>
LayerCount: 2
Fore
SplineSet
46 648 m 1
 56 656 l 1
 155 654 l 2
 354 650 275 650 352 650 c 2
 493 653 l 1
 493 608 l 1
 459 554 440 517 400 436 c 2
 290 212 l 2
 263 157 219 46 204 -3 c 1
 186 -1 167 0 149 0 c 0
 131 0 112 -1 94 -3 c 1
 88 8 l 1
 388 526 l 1
 384 532 l 1
 159 532 l 2
 112 532 101 524 96 480 c 2
 88 416 l 1
 49 416 l 1
 50 506 l 2
 50 561 46 648 46 648 c 1
EndSplineSet
Validated: 1
AlternateSubs2: "'aalt' Access All Alternates lookup 0 subtable" seven.prop seven.oldstyle
AlternateSubs2: "'aalt' Access All Alternates in Latin lookup 0 subtable" seven.prop seven.oldstyle
Substitution2: "'pnum' Proportional Numbers in Latin lookup 5 subtable" seven.prop
Substitution2: "'onum' Oldstyle Figures in Latin lookup 3 subtable" seven.oldstyle
EndChar

StartChar: eight
Encoding: 56 56 39
Width: 500
VWidth: 0
Flags: W
TeX: 681 0
HStem: -17 52<180.407 311.142> 608 52<183.615 313.609>
VStem: 34 89<93.573 236.61> 51 103<459.305 564.675> 353 84<442.523 569.259> 357 110<108.668 217.926>
LayerCount: 2
Fore
SplineSet
34 155 m 0xe4
 34 226 72 280 151 320 c 1
 79 362 51 405 51 476 c 0
 51 587 134 660 260 660 c 0
 368 660 437 604 437 517 c 0xd8
 437 461 412 423 343 376 c 1
 384 359 402 347 424 322 c 0
 453 289 467 250 467 203 c 0
 467 77 367 -17 234 -17 c 0
 116 -17 34 54 34 155 c 0xe4
123 171 m 0xe4
 123 93 176 35 248 35 c 0
 310 35 357 84 357 150 c 0
 357 207 327 242 253 275 c 2
 192 302 l 1
 140 256 123 224 123 171 c 0xe4
154 519 m 0xd8
 154 471 180 442 250 412 c 2
 294 393 l 1
 337 430 353 459 353 501 c 0
 353 565 311 608 249 608 c 0
 192 608 154 573 154 519 c 0xd8
EndSplineSet
Validated: 1
AlternateSubs2: "'aalt' Access All Alternates lookup 0 subtable" eight.prop eight.oldstyle
AlternateSubs2: "'aalt' Access All Alternates in Latin lookup 0 subtable" eight.prop eight.oldstyle
Substitution2: "'pnum' Proportional Numbers in Latin lookup 5 subtable" eight.prop
Substitution2: "'onum' Oldstyle Figures in Latin lookup 3 subtable" eight.oldstyle
EndChar

StartChar: nine
Encoding: 57 57 40
Width: 500
VWidth: 0
Flags: W
TeX: 681 0
HStem: -17 44<105 195.543> 236 87<141.184 264.215> 608 52<186.829 292.821>
VStem: 31 118<374.036 540.179> 336 127<297.829 529.366>
LayerCount: 2
Fore
SplineSet
31 427 m 0
 31 571 114 660 248 660 c 0
 388 660 463 565 463 390 c 0
 463 214 380 71 243 11 c 0
 199 -9 171 -14 105 -17 c 1
 67 12 l 1
 76 30 l 1
 90 28 101 27 107 27 c 0
 134 27 180 39 209 55 c 0
 255 80 291 129 310 193 c 0
 321 228 325 255 331 315 c 1
 268 260 l 2
 248 243 228 236 195 236 c 0
 90 236 31 305 31 427 c 0
149 476 m 0
 149 381 187 323 250 323 c 0
 309 323 336 361 336 444 c 0
 336 549 302 608 241 608 c 0
 183 608 149 559 149 476 c 0
EndSplineSet
Validated: 1
AlternateSubs2: "'aalt' Access All Alternates lookup 0 subtable" nine.prop nine.oldstyle
AlternateSubs2: "'aalt' Access All Alternates in Latin lookup 0 subtable" nine.prop nine.oldstyle
Substitution2: "'pnum' Proportional Numbers in Latin lookup 5 subtable" nine.prop
Substitution2: "'onum' Oldstyle Figures in Latin lookup 3 subtable" nine.oldstyle
EndChar

StartChar: colon
Encoding: 58 58 41
Width: 250
VWidth: 0
Flags: W
TeX: 454 0
HStem: -12 156<73.5293 176.471> 298 156<73.5293 176.471>
VStem: 47 156<13.8326 117.074 323.833 427.074>
LayerCount: 2
Fore
SplineSet
47 65 m 0
 47 107 84 144 126 144 c 0
 166 144 203 106 203 65 c 0
 203 24 166 -12 124 -12 c 0
 83 -12 47 23 47 65 c 0
47 375 m 0
 47 417 84 454 126 454 c 0
 166 454 203 416 203 375 c 0
 203 334 166 298 124 298 c 0
 83 298 47 333 47 375 c 0
EndSplineSet
Validated: 1
EndChar

StartChar: semicolon
Encoding: 59 59 42
Width: 250
VWidth: 0
Flags: W
TeX: 454 -166
HStem: 298 156<96.5293 199.471>
VStem: 70 156<79.2152 106.815 323.833 427.074>
LayerCount: 2
Fore
SplineSet
-6 -153 m 1
 38 -64 68 32 76 103 c 1
 130 117 163 126 210 141 c 1
 227 125 l 1
 191 47 158 -11 80 -136 c 1
 9 -166 l 1
 -6 -153 l 1
70 375 m 0
 70 417 107 454 149 454 c 0
 189 454 226 416 226 375 c 0
 226 334 189 298 147 298 c 0
 106 298 70 333 70 375 c 0
EndSplineSet
Validated: 1
EndChar

StartChar: question
Encoding: 63 63 43
Width: 444
VWidth: 0
Flags: W
TeX: 681 0
HStem: -12 156<143.393 245.621> 591 96<119.446 246.023>
VStem: 116 156<13.8326 116.924> 151 50<197.712 291.167> 277 134<449.087 560.744>
LayerCount: 2
Fore
SplineSet
43 506 m 1xd8
 65 573 72 604 75 639 c 1
 128 675 167 687 225 687 c 0
 338 687 411 626 411 530 c 0
 411 474 393 440 340 396 c 2
 263 332 l 2
 222 298 201 267 201 241 c 0
 201 228 204 217 210 204 c 2
 211 202 l 1
 177 188 l 1
 159 211 151 234 151 262 c 0
 151 297 168 330 214 386 c 0
 261 442 277 473 277 508 c 0
 277 555 236 591 181 591 c 0
 146 591 115 581 109 568 c 2
 78 497 l 1
 43 506 l 1xd8
116 64 m 0xe8
 116 106 153 144 195 144 c 0
 235 144 272 106 272 65 c 0
 272 24 235 -12 194 -12 c 0
 152 -12 116 23 116 64 c 0xe8
EndSplineSet
Validated: 1
EndChar

StartChar: at
Encoding: 64 64 44
Width: 747
VWidth: 0
Flags: W
TeX: 681 0
HStem: -12 56<283.82 509.221> 143 29<283.341 351.236 466.02 547.052> 625 56<277.552 507.908>
VStem: 42 56<225.764 443.515> 170 95<196.992 352.839> 653 51<297.575 490.564>
LayerCount: 2
Fore
SplineSet
42 329 m 0
 42 527 195 681 391 681 c 0
 567 681 704 558 704 399 c 0
 704 329 677 261 631 213 c 0
 586 168 526 137 481 137 c 0
 442 137 418 166 412 219 c 1
 368 159 342 143 294 143 c 0
 220 143 170 198 170 278 c 0
 170 395 267 501 376 501 c 0
 420 501 447 477 457 429 c 1
 473 493 l 1
 567 493 l 1
 493 219 l 2
 489 204 483 170 508 170 c 0
 530 170 559 190 588 225 c 0
 629 274 653 340 653 403 c 0
 653 528 541 625 396 625 c 0
 225 625 98 501 98 335 c 0
 98 167 227 44 403 44 c 0
 443 44 477 51 510 66 c 0
 562 89 590 113 635 173 c 1
 699 173 l 1
 670 123 654 102 623 75 c 0
 558 18 479 -12 392 -12 c 0
 195 -12 42 137 42 329 c 0
265 242 m 0
 265 201 285 172 314 172 c 0
 342 172 369 195 394 240 c 0
 420 285 438 353 438 403 c 0
 438 442 420 469 392 471 c 0
 334 475 265 350 265 242 c 0
EndSplineSet
Validated: 33
AlternateSubs2: "'aalt' Access All Alternates lookup 0 subtable" at.alt
AlternateSubs2: "'aalt' Access All Alternates in Latin lookup 0 subtable" at.alt
Substitution2: "'ss02' Style Set 2 in Latin lookup 16 subtable" at.alt
Substitution2: "'ss01' Style Set 1 in Latin lookup 15 subtable" at.alt
Substitution2: "'salt' Stylistic Alternatives in Latin lookup 14 subtable" at.alt
EndChar

StartChar: at.alt
Encoding: 277 -1 45
Width: 747
VWidth: 0
Flags: W
TeX: 538 -155
HStem: -155 56<283.82 509.221> 0 29<283.341 351.236 466.02 547.052> 482 56<277.552 507.908>
VStem: 42 56<82.7644 300.515> 170 95<53.992 209.839> 653 51<154.575 347.564>
LayerCount: 2
Fore
SplineSet
42 186 m 0
 42 384 195 538 391 538 c 0
 567 538 704 415 704 256 c 0
 704 186 677 118 631 70 c 0
 586 25 526 -6 481 -6 c 0
 442 -6 418 23 412 76 c 1
 368 16 342 0 294 0 c 0
 220 0 170 55 170 135 c 0
 170 252 267 358 376 358 c 0
 420 358 447 334 457 286 c 1
 473 350 l 1
 567 350 l 1
 493 76 l 2
 489 61 483 27 508 27 c 0
 530 27 559 47 588 82 c 0
 629 131 653 197 653 260 c 0
 653 385 541 482 396 482 c 0
 225 482 98 358 98 192 c 0
 98 24 227 -99 403 -99 c 0
 443 -99 477 -92 510 -77 c 0
 562 -54 590 -30 635 30 c 1
 699 30 l 1
 670 -20 654 -41 623 -68 c 0
 558 -125 479 -155 392 -155 c 0
 195 -155 42 -6 42 186 c 0
265 99 m 0
 265 58 285 29 314 29 c 0
 342 29 369 52 394 97 c 0
 420 142 438 210 438 260 c 0
 438 299 420 326 392 328 c 0
 334 332 265 207 265 99 c 0
EndSplineSet
Validated: 33
EndChar

StartChar: A
Encoding: 65 65 46
Width: 778
VWidth: 0
GlyphClass: 2
Flags: W
TeX: 681 0
HStem: -3 37<24 54 200 250 447 500 733 757> 206 56<242 446> 666 20G<340.45 427.562>
AnchorPoint: "bot_acc" 384 -145 basechar 0
AnchorPoint: "dotbelow" 384 -145 basechar 0
AnchorPoint: "ogon_acc" 602 -145 basechar 0
AnchorPoint: "top_accu" 384 809 basechar 0
AnchorPoint: "dotabove" 384 809 basechar 0
LayerCount: 2
Fore
SplineSet
24 -3 m 1
 24 34 l 1
 54 37 l 2
 76 39 94 58 110 97 c 2
 291 535 l 1
 348 686 l 1
 419 686 l 1
 678 81 l 2
 691 52 705 41 733 37 c 2
 757 34 l 1
 757 -3 l 1
 704 -1 652 0 599 0 c 0
 548 0 498 -1 447 -3 c 1
 447 34 l 1
 500 37 l 2
 527 39 520 76 514 92 c 2
 469 206 l 1
 218 206 l 1
 176 94 l 2
 168 72 169 39 200 37 c 2
 250 34 l 1
 250 -3 l 1
 212 -1 175 0 137 0 c 0
 99 0 62 -1 24 -3 c 1
242 262 m 1
 446 262 l 1
 342 516 l 1
 242 262 l 1
EndSplineSet
Validated: 33
AlternateSubs2: "'aalt' Access All Alternates lookup 0 subtable" a.sc
AlternateSubs2: "'aalt' Access All Alternates in Latin lookup 0 subtable" a.sc
Substitution2: "'c2sc' Capitals to Small Capitals in Latin lookup 13 subtable" a.sc
Position2: "'cpsp' Capital Spacing in Latin lookup 12 subtable" dx=7 dy=0 dh=14 dv=0
EndChar

StartChar: B
Encoding: 66 66 47
Width: 667
VWidth: 0
GlyphClass: 2
Flags: W
TeX: 681 0
HStem: -3 55<265 401.163> 348 52<265 393.37> 631 50<265 404.86> 644 37<39 76>
VStem: 124 141<53.5244 348 400 628.863> 440 148<469.919 596.956> 461 150<131.779 292.184>
AnchorPoint: "bot_acc" 325 -145 basechar 0
AnchorPoint: "dotbelow" 325 -145 basechar 0
AnchorPoint: "ogon_acc" 325 -145 basechar 0
AnchorPoint: "top_accu" 325 809 basechar 0
AnchorPoint: "dotabove" 325 809 basechar 0
LayerCount: 2
Fore
SplineSet
39 644 m 1xda
 39 681 l 1xda
 95 679 151 678 207 678 c 0
 271 678 335 681 399 681 c 0
 525 681 588 637 588 546 c 0xec
 588 508 574 472 550 450 c 0
 519 421 490 407 406 377 c 1
 486 372 520 363 556 338 c 0
 591 313 611 269 611 216 c 0
 611 87 470 -3 340 -3 c 0
 293 -1 245 0 198 0 c 0
 156 0 114 -1 72 -3 c 1
 72 20 l 1
 104 38 l 2
 119 46 124 61 124 95 c 2
 124 543 l 2
 124 631 121 637 76 641 c 2
 39 644 l 1xda
265 56 m 1
 282 53 293 52 308 52 c 0
 414 52 461 98 461 202 c 0
 461 304 411 348 295 348 c 2
 265 348 l 1
 265 56 l 1
265 400 m 1
 295 400 l 2
 396 400 440 437 440 524 c 0
 440 598 404 631 323 631 c 0xec
 304 631 289 630 265 627 c 1
 265 400 l 1
EndSplineSet
Validated: 1
AlternateSubs2: "'aalt' Access All Alternates lookup 0 subtable" b.sc
AlternateSubs2: "'aalt' Access All Alternates in Latin lookup 0 subtable" b.sc
Substitution2: "'c2sc' Capitals to Small Capitals in Latin lookup 13 subtable" b.sc
Position2: "'cpsp' Capital Spacing in Latin lookup 12 subtable" dx=7 dy=0 dh=14 dv=0
EndChar

StartChar: C
Encoding: 67 67 48
Width: 722
VWidth: 0
GlyphClass: 2
Flags: W
TeX: 681 0
HStem: -17 65<369.684 596.033> 639 56<340.34 560.309>
VStem: 44 150<231.294 468.799> 633 39<484 570>
AnchorPoint: "bot_acc" 417 -145 basechar 0
AnchorPoint: "dotbelow" 417 -145 basechar 0
AnchorPoint: "ogon_acc" 417 -145 basechar 0
AnchorPoint: "top_accu" 417 809 basechar 0
AnchorPoint: "dotabove" 417 809 basechar 0
LayerCount: 2
Fore
SplineSet
44 347 m 0
 44 561 202 695 455 695 c 0
 542 695 598 684 689 648 c 1
 695 637 l 1
 686 599 683 580 672 484 c 1
 633 484 l 1
 628 570 l 1
 574 620 526 639 450 639 c 0
 291 639 194 533 194 361 c 0
 194 172 309 48 485 48 c 0
 551 48 615 65 680 99 c 1
 692 87 l 1
 670 38 l 1
 596 -3 537 -17 445 -17 c 0
 198 -17 44 123 44 347 c 0
EndSplineSet
Validated: 1
AlternateSubs2: "'aalt' Access All Alternates lookup 0 subtable" c.sc
AlternateSubs2: "'aalt' Access All Alternates in Latin lookup 0 subtable" c.sc
Substitution2: "'c2sc' Capitals to Small Capitals in Latin lookup 13 subtable" c.sc
Position2: "'cpsp' Capital Spacing in Latin lookup 12 subtable" dx=7 dy=0 dh=14 dv=0
EndChar

StartChar: D
Encoding: 68 68 49
Width: 833
VWidth: 0
GlyphClass: 2
Flags: W
TeX: 681 0
HStem: -3 55<261 481.712> 631 50<261 483.737> 644 37<35 72>
VStem: 120 141<54.6401 628.863> 636 150<241.635 489.947>
AnchorPoint: "bot_acc" 379 -145 basechar 0
AnchorPoint: "dotbelow" 379 -145 basechar 0
AnchorPoint: "ogon_acc" 379 -145 basechar 0
AnchorPoint: "top_accu" 379 809 basechar 0
AnchorPoint: "dotabove" 379 809 basechar 0
LayerCount: 2
Fore
SplineSet
35 644 m 1xb8
 35 681 l 1xb8
 89 679 143 678 197 678 c 0
 277 678 356 681 436 681 c 0xd8
 571 681 651 656 709 598 c 0
 759 549 786 471 786 376 c 0
 786 269 751 180 682 113 c 0
 607 39 498 -3 379 -3 c 0
 327 -3 275 0 223 0 c 0
 171 0 120 -1 68 -3 c 1
 68 20 l 1
 100 38 l 2
 115 46 120 62 120 95 c 2
 120 543 l 2
 120 631 117 637 72 641 c 2
 35 644 l 1xb8
261 57 m 1
 286 53 304 52 329 52 c 0
 442 52 513 74 563 123 c 0
 611 171 636 247 636 348 c 0
 636 447 615 515 570 559 c 0
 521 607 441 631 324 631 c 0xd8
 301 631 285 630 261 627 c 1
 261 57 l 1
EndSplineSet
Validated: 1
AlternateSubs2: "'aalt' Access All Alternates lookup 0 subtable" d.sc
AlternateSubs2: "'aalt' Access All Alternates in Latin lookup 0 subtable" d.sc
Substitution2: "'c2sc' Capitals to Small Capitals in Latin lookup 13 subtable" d.sc
Position2: "'cpsp' Capital Spacing in Latin lookup 12 subtable" dx=7 dy=0 dh=14 dv=0
EndChar

StartChar: E
Encoding: 69 69 50
Width: 611
VWidth: 0
GlyphClass: 2
Flags: W
TeX: 681 0
HStem: 0 58<265 516.797> 328 50<266.305 450.632> 436 20G<458.895 501> 623 58<265 508.25> 644 37<39 76>
VStem: 124 141<58 326.45 378.488 619.559> 461 40<241 291 399 456> 516 36<529 594.625> 538 39<137.391 166>
AnchorPoint: "bot_acc" 317 -145 basechar 0
AnchorPoint: "dotbelow" 317 -145 basechar 0
AnchorPoint: "ogon_acc" 469 -145 basechar 0
AnchorPoint: "top_accu" 317 809 basechar 0
AnchorPoint: "dotabove" 317 809 basechar 0
LayerCount: 2
Fore
SplineSet
39 644 m 1xee80
 39 681 l 1xee80
 102 679 166 678 229 678 c 0
 308 678 386 681 465 681 c 0
 502 681 523 680 560 678 c 1
 566 671 l 1
 552 529 l 1
 516 529 l 1
 508 604 l 2
 507 615 465 623 410 623 c 2xf7
 265 620 l 1
 265 380 l 1
 285 378 299 378 332 378 c 2
 398 378 l 2
 440 378 453 383 455 399 c 2
 461 456 l 1
 501 456 l 1
 499 420 498 385 498 349 c 0
 498 313 499 277 501 241 c 1
 461 241 l 1
 455 291 l 2
 452 317 436 328 398 328 c 2
 332 328 l 2
 310 328 293 327 265 325 c 1
 265 58 l 1
 414 55 l 2
 460 55 513 64 515 72 c 2
 538 166 l 1
 577 166 l 1
 566 8 l 1
 561 0 l 1
 504 -3 476 -3 421 -3 c 0
 346 -3 270 0 195 0 c 0
 154 0 113 -1 72 -3 c 1
 72 20 l 1
 104 38 l 2
 119 46 124 61 124 95 c 2
 124 543 l 2
 124 631 121 637 76 641 c 2
 39 644 l 1xee80
EndSplineSet
Validated: 1
AlternateSubs2: "'aalt' Access All Alternates lookup 0 subtable" e.sc
AlternateSubs2: "'aalt' Access All Alternates in Latin lookup 0 subtable" e.sc
Substitution2: "'c2sc' Capitals to Small Capitals in Latin lookup 13 subtable" e.sc
Position2: "'cpsp' Capital Spacing in Latin lookup 12 subtable" dx=7 dy=0 dh=14 dv=0
EndChar

StartChar: F
Encoding: 70 70 51
Width: 556
VWidth: 0
GlyphClass: 2
Flags: W
TeX: 681 0
HStem: -3 40<28 65 302 349> 325 50<255.305 424.632> 623 58<254 481.082> 644 37<28 65>
VStem: 113 141<43.7344 323.45 375.488 619.559> 435 40<238 288 396 449> 489 36<529 594.625>
AnchorPoint: "bot_acc" 284 -145 basechar 0
AnchorPoint: "dotbelow" 284 -145 basechar 0
AnchorPoint: "ogon_acc" 189 -145 basechar 0
AnchorPoint: "top_accu" 284 809 basechar 0
AnchorPoint: "dotabove" 284 809 basechar 0
LayerCount: 2
Fore
SplineSet
28 -3 m 1xee
 28 37 l 1
 65 40 l 2
 112 44 113 46 113 135 c 2
 113 543 l 2
 113 631 110 637 65 641 c 2
 28 644 l 1
 28 681 l 1xde
 87 679 147 678 206 678 c 0
 283 678 361 681 438 681 c 0
 475 681 495 681 533 678 c 1
 539 671 l 1
 525 529 l 1
 489 529 l 1
 481 604 l 2
 480 616 437 623 370 623 c 2
 254 620 l 1
 254 377 l 1
 274 375 288 375 321 375 c 2
 372 375 l 2
 414 375 427 380 429 396 c 2
 435 449 l 1
 475 449 l 1
 473 415 472 380 472 346 c 0
 472 310 473 274 475 238 c 1
 435 238 l 1
 429 288 l 2
 426 314 410 325 372 325 c 2
 321 325 l 2
 299 325 282 324 254 322 c 1
 254 135 l 2
 254 47 256 43 302 40 c 2
 349 37 l 1
 349 -3 l 1
 294 -1 238 0 183 0 c 0
 131 0 80 -1 28 -3 c 1xee
EndSplineSet
Validated: 1
AlternateSubs2: "'aalt' Access All Alternates lookup 0 subtable" f.sc
AlternateSubs2: "'aalt' Access All Alternates in Latin lookup 0 subtable" f.sc
Substitution2: "'c2sc' Capitals to Small Capitals in Latin lookup 13 subtable" f.sc
Position2: "'cpsp' Capital Spacing in Latin lookup 12 subtable" dx=7 dy=0 dh=14 dv=0
EndChar

StartChar: G
Encoding: 71 71 52
Width: 833
VWidth: 0
GlyphClass: 2
Flags: W
TeX: 681 0
HStem: -17 56<362.773 583.697> 233 43<483 590.374> 242 34<737.896 776> 639 56<344.621 583.967>
VStem: 47 150<221.401 468.272> 593 142<56.7361 227.498> 666 39<484 570>
AnchorPoint: "bot_acc" 410 -145 basechar 0
AnchorPoint: "dotbelow" 410 -145 basechar 0
AnchorPoint: "ogon_acc" 410 -145 basechar 0
AnchorPoint: "top_accu" 410 809 basechar 0
AnchorPoint: "dotabove" 410 809 basechar 0
LayerCount: 2
Fore
SplineSet
47 346 m 0xbc
 47 562 205 695 461 695 c 0
 559 695 631 682 722 648 c 1
 728 637 l 1
 719 599 716 580 705 484 c 1
 666 484 l 1xba
 661 570 l 1
 607 622 530 639 456 639 c 0
 293 639 197 534 197 358 c 0
 197 168 305 39 466 39 c 0
 509 39 542 45 593 64 c 1
 593 196 l 2
 593 222 578 231 536 233 c 2
 483 235 l 1
 483 276 l 1xdc
 531 274 578 273 626 273 c 0
 676 273 726 274 776 276 c 1
 776 242 l 1
 739 234 735 230 735 206 c 2
 735 43 l 1
 615 -2 539 -17 438 -17 c 0
 201 -17 47 126 47 346 c 0xbc
EndSplineSet
Validated: 1
AlternateSubs2: "'aalt' Access All Alternates lookup 0 subtable" g.sc
AlternateSubs2: "'aalt' Access All Alternates in Latin lookup 0 subtable" g.sc
Substitution2: "'c2sc' Capitals to Small Capitals in Latin lookup 13 subtable" g.sc
Position2: "'cpsp' Capital Spacing in Latin lookup 12 subtable" dx=7 dy=0 dh=14 dv=0
EndChar

StartChar: H
Encoding: 72 72 53
Width: 833
VWidth: 0
GlyphClass: 2
Flags: W
TeX: 681 0
HStem: -3 40<36 73 310 347 485 522 759 796> 327 56<262 570> 641 40<36 73 310 347 485 522 759 796>
VStem: 121 141<43.6287 325 383.65 634.371> 570 141<43.6287 325 383.65 634.371>
AnchorPoint: "bot_acc" 416 -145 basechar 0
AnchorPoint: "dotbelow" 416 -145 basechar 0
AnchorPoint: "ogon_acc" 641 -145 basechar 0
AnchorPoint: "top_accu" 416 809 basechar 0
AnchorPoint: "dotabove" 416 809 basechar 0
LayerCount: 2
Fore
SplineSet
36 -3 m 1
 36 37 l 1
 73 40 l 2
 120 44 121 46 121 135 c 2
 121 543 l 2
 121 632 120 634 73 638 c 2
 36 641 l 1
 36 681 l 1
 88 679 139 678 191 678 c 0
 243 678 295 679 347 681 c 1
 347 641 l 1
 310 638 l 2
 263 634 262 632 262 543 c 2
 262 385 l 1
 285 383 305 383 343 383 c 2
 489 383 l 2
 527 383 546 383 570 385 c 1
 570 543 l 2
 570 632 569 634 522 638 c 2
 485 641 l 1
 485 681 l 1
 537 679 588 678 640 678 c 0
 692 678 744 679 796 681 c 1
 796 641 l 1
 759 638 l 2
 712 634 711 632 711 543 c 2
 711 135 l 2
 711 46 712 44 759 40 c 2
 796 37 l 1
 796 -3 l 1
 744 -1 692 0 640 0 c 0
 588 0 537 -1 485 -3 c 1
 485 37 l 1
 522 40 l 2
 569 44 570 46 570 135 c 2
 570 325 l 1
 489 327 l 1
 343 327 l 1
 262 325 l 1
 262 135 l 2
 262 46 263 44 310 40 c 2
 347 37 l 1
 347 -3 l 1
 295 -1 243 0 191 0 c 0
 139 0 88 -1 36 -3 c 1
EndSplineSet
Validated: 1
AlternateSubs2: "'aalt' Access All Alternates lookup 0 subtable" h.sc
AlternateSubs2: "'aalt' Access All Alternates in Latin lookup 0 subtable" h.sc
Substitution2: "'c2sc' Capitals to Small Capitals in Latin lookup 13 subtable" h.sc
Position2: "'cpsp' Capital Spacing in Latin lookup 12 subtable" dx=7 dy=0 dh=14 dv=0
EndChar

StartChar: I
Encoding: 73 73 54
Width: 389
VWidth: 0
GlyphClass: 2
Flags: W
TeX: 681 0
HStem: -3 40<39 76 313 350> 641 40<39 76 313 350>
VStem: 124 141<43.6287 634.371>
AnchorPoint: "bot_acc" 195 -145 basechar 0
AnchorPoint: "dotbelow" 195 -145 basechar 0
AnchorPoint: "ogon_acc" 195 -145 basechar 0
AnchorPoint: "top_accu" 195 809 basechar 0
AnchorPoint: "dotabove" 195 809 basechar 0
LayerCount: 2
Fore
SplineSet
39 -3 m 1
 39 37 l 1
 76 40 l 2
 123 44 124 46 124 135 c 2
 124 543 l 2
 124 632 123 634 76 638 c 2
 39 641 l 1
 39 681 l 1
 91 679 142 678 194 678 c 0
 246 678 298 679 350 681 c 1
 350 641 l 1
 313 638 l 2
 266 634 265 632 265 543 c 2
 265 135 l 2
 265 46 266 44 313 40 c 2
 350 37 l 1
 350 -3 l 1
 298 -1 246 0 194 0 c 0
 142 0 91 -1 39 -3 c 1
EndSplineSet
Validated: 1
AlternateSubs2: "'aalt' Access All Alternates lookup 0 subtable" i.sc
AlternateSubs2: "'aalt' Access All Alternates in Latin lookup 0 subtable" i.sc
Substitution2: "'c2sc' Capitals to Small Capitals in Latin lookup 13 subtable" i.sc
Position2: "'cpsp' Capital Spacing in Latin lookup 12 subtable" dx=7 dy=0 dh=14 dv=0
EndChar

StartChar: J
Encoding: 74 74 55
Width: 389
VWidth: 0
GlyphClass: 2
Flags: W
TeX: 681 -213
HStem: -213 65<17.9506 101.896> 641 40<39 76 313 350>
VStem: 124 141<-39.1789 634.371>
AnchorPoint: "bot_acc" 195 -358 basechar 0
AnchorPoint: "dotbelow" 195 -358 basechar 0
AnchorPoint: "ogon_acc" 57 -358 basechar 0
AnchorPoint: "top_accu" 195 809 basechar 0
AnchorPoint: "dotabove" 195 809 basechar 0
AnchorPoint: "ccmped" 458 603 basechar 0
LayerCount: 2
Fore
SplineSet
-11 -119 m 1
 0 -113 l 1
 4 -116 5 -116 11 -121 c 0
 37 -141 52 -148 69 -148 c 0
 109 -148 124 -113 124 -18 c 2
 124 543 l 2
 124 632 123 634 76 638 c 2
 39 641 l 1
 39 681 l 1
 91 679 142 678 194 678 c 0
 246 678 298 679 350 681 c 1
 350 641 l 1
 313 638 l 2
 266 634 265 632 265 543 c 2
 265 137 l 2
 265 32 259 -7 237 -55 c 0
 195 -144 100 -213 19 -213 c 0
 11 -213 2 -212 -11 -208 c 1
 -11 -119 l 1
EndSplineSet
Validated: 1
AlternateSubs2: "'aalt' Access All Alternates lookup 0 subtable" j.sc
AlternateSubs2: "'aalt' Access All Alternates in Latin lookup 0 subtable" j.sc
Substitution2: "'c2sc' Capitals to Small Capitals in Latin lookup 13 subtable" j.sc
Position2: "'cpsp' Capital Spacing in Latin lookup 12 subtable" dx=7 dy=0 dh=14 dv=0
EndChar

StartChar: K
Encoding: 75 75 56
Width: 778
VWidth: 0
GlyphClass: 2
Flags: W
TeX: 681 0
HStem: -3 40<39 76 313 350 704.66 763> 641 40<39 76 313 350 645.593 738>
VStem: 124 141<43.6287 332 343 634.371>
AnchorPoint: "bot_acc" 401 -145 basechar 0
AnchorPoint: "dotbelow" 401 -145 basechar 0
AnchorPoint: "ogon_acc" 662 -145 basechar 0
AnchorPoint: "top_accu" 401 809 basechar 0
AnchorPoint: "dotabove" 401 809 basechar 0
LayerCount: 2
Fore
SplineSet
39 -3 m 1
 39 37 l 1
 76 40 l 2
 123 44 124 46 124 135 c 2
 124 543 l 2
 124 632 123 634 76 638 c 2
 39 641 l 1
 39 681 l 1
 91 679 142 678 194 678 c 0
 246 678 298 679 350 681 c 1
 350 641 l 1
 313 638 l 2
 266 634 265 632 265 543 c 2
 265 343 l 1
 462 536 l 2
 476 550 556 630 556 656 c 2
 556 681 l 1
 586 679 617 678 647 678 c 0
 677 678 708 679 738 681 c 1
 738 642 l 1
 675 637 652 630 628 608 c 2
 406 401 l 1
 672 88 l 2
 703 52 726 39 763 38 c 1
 763 -3 l 1
 729 -1 696 0 662 0 c 0
 628 0 594 -1 560 -3 c 1
 352 246 l 2
 296 314 291 317 265 332 c 1
 265 135 l 2
 265 46 266 44 313 40 c 2
 350 37 l 1
 350 -3 l 1
 298 -1 246 0 194 0 c 0
 142 0 91 -1 39 -3 c 1
EndSplineSet
Validated: 1
AlternateSubs2: "'aalt' Access All Alternates lookup 0 subtable" k.sc
AlternateSubs2: "'aalt' Access All Alternates in Latin lookup 0 subtable" k.sc
Substitution2: "'c2sc' Capitals to Small Capitals in Latin lookup 13 subtable" k.sc
Position2: "'cpsp' Capital Spacing in Latin lookup 12 subtable" dx=7 dy=0 dh=14 dv=0
EndChar

StartChar: L
Encoding: 76 76 57
Width: 611
VWidth: 0
GlyphClass: 2
Flags: W
TeX: 681 0
HStem: 0 58<265 516.797> 641 40<39 76 313 350>
VStem: 124 141<58 634.371> 538 39<142.957 174>
AnchorPoint: "bot_acc" 195 -145 basechar 0
AnchorPoint: "dotbelow" 195 -145 basechar 0
AnchorPoint: "ogon_acc" 469 -145 basechar 0
AnchorPoint: "top_accu" 195 809 basechar 0
AnchorPoint: "dotabove" 195 809 basechar 0
AnchorPoint: "ccmped" 458 603 basechar 0
LayerCount: 2
Fore
SplineSet
39 641 m 1
 39 681 l 1
 91 679 142 678 194 678 c 0
 246 678 298 679 350 681 c 1
 350 641 l 1
 313 638 l 2
 266 634 265 632 265 543 c 2
 265 58 l 1
 418 55 l 2
 461 55 513 64 515 72 c 2
 538 174 l 1
 577 174 l 1
 566 8 l 1
 561 0 l 1
 504 -3 476 -3 421 -3 c 0
 346 -3 270 0 195 0 c 0
 154 0 113 -1 72 -3 c 1
 72 20 l 1
 104 38 l 2
 119 46 124 61 124 95 c 2
 124 543 l 2
 124 632 123 634 76 638 c 2
 39 641 l 1
EndSplineSet
Validated: 1
AlternateSubs2: "'aalt' Access All Alternates lookup 0 subtable" l.sc
AlternateSubs2: "'aalt' Access All Alternates in Latin lookup 0 subtable" l.sc
Substitution2: "'c2sc' Capitals to Small Capitals in Latin lookup 13 subtable" l.sc
Position2: "'cpsp' Capital Spacing in Latin lookup 12 subtable" dx=7 dy=0 dh=14 dv=0
EndChar

StartChar: M
Encoding: 77 77 58
Width: 1000
VWidth: 0
GlyphClass: 2
Flags: W
TeX: 681 0
HStem: -3 37<32 69 224 261 657 694 931 968> 644 37<32 69 931 968>
VStem: 117 59<41.625 551.012> 742 141<43.6287 547.065>
AnchorPoint: "bot_acc" 500 -145 basechar 0
AnchorPoint: "dotbelow" 500 -145 basechar 0
AnchorPoint: "ogon_acc" 813 -145 basechar 0
AnchorPoint: "top_accu" 500 809 basechar 0
AnchorPoint: "dotabove" 500 809 basechar 0
LayerCount: 2
Fore
SplineSet
32 -3 m 1
 32 34 l 1
 69 37 l 2
 114 41 117 47 117 135 c 2
 117 543 l 2
 117 631 114 637 69 641 c 2
 32 644 l 1
 32 681 l 1
 72 679 112 678 152 678 c 0
 192 678 232 679 272 681 c 1
 347 520 l 1
 505 190 l 1
 688 568 l 1
 737 681 l 1
 775 679 814 678 852 678 c 0
 891 678 929 679 968 681 c 1
 968 644 l 1
 931 641 l 2
 886 637 883 631 883 543 c 2
 883 135 l 2
 883 46 884 44 931 40 c 2
 968 37 l 1
 968 -3 l 1
 916 -1 864 0 812 0 c 0
 760 0 709 -1 657 -3 c 1
 657 37 l 1
 694 40 l 2
 741 44 742 46 742 135 c 2
 742 551 l 1
 536 122 l 2
 499 46 495 36 476 -10 c 1
 442 -10 l 1
 424 34 413 58 406 73 c 2
 176 552 l 1
 176 135 l 2
 176 46 179 41 224 37 c 2
 261 34 l 1
 261 -3 l 1
 223 -1 185 0 147 0 c 0
 109 0 70 -1 32 -3 c 1
EndSplineSet
Validated: 1
AlternateSubs2: "'aalt' Access All Alternates lookup 0 subtable" m.sc
AlternateSubs2: "'aalt' Access All Alternates in Latin lookup 0 subtable" m.sc
Substitution2: "'c2sc' Capitals to Small Capitals in Latin lookup 13 subtable" m.sc
Position2: "'cpsp' Capital Spacing in Latin lookup 12 subtable" dx=7 dy=0 dh=14 dv=0
EndChar

StartChar: N
Encoding: 78 78 59
Width: 833
VWidth: 0
GlyphClass: 2
Flags: W
TeX: 681 0
HStem: -3 37<35 72 227 264> 644 37<35 72 569 606 761 798>
VStem: 120 59<41.625 528> 654 59<184 636.375>
AnchorPoint: "bot_acc" 417 -145 basechar 0
AnchorPoint: "dotbelow" 417 -145 basechar 0
AnchorPoint: "ogon_acc" 672 -145 basechar 0
AnchorPoint: "top_accu" 417 809 basechar 0
AnchorPoint: "dotabove" 417 809 basechar 0
LayerCount: 2
Fore
SplineSet
35 -3 m 1
 35 34 l 1
 72 37 l 2
 117 41 120 47 120 135 c 2
 120 543 l 2
 120 631 117 637 72 641 c 2
 35 644 l 1
 35 681 l 1
 75 679 115 678 155 678 c 0
 183 678 211 679 239 681 c 1
 303 596 321 572 342 548 c 2
 654 184 l 1
 654 543 l 2
 654 631 651 637 606 641 c 2
 569 644 l 1
 569 681 l 1
 607 679 646 678 684 678 c 0
 722 678 760 679 798 681 c 1
 798 644 l 1
 761 641 l 2
 716 637 713 631 713 543 c 2
 713 89 l 1
 716 -12 l 1
 709 -16 l 1
 627 -3 l 1
 505 136 l 1
 179 528 l 1
 179 135 l 2
 179 46 182 41 227 37 c 2
 264 34 l 1
 264 -3 l 1
 226 -1 188 0 150 0 c 0
 112 0 73 -1 35 -3 c 1
EndSplineSet
Validated: 1
AlternateSubs2: "'aalt' Access All Alternates lookup 0 subtable" n.sc
AlternateSubs2: "'aalt' Access All Alternates in Latin lookup 0 subtable" n.sc
Substitution2: "'c2sc' Capitals to Small Capitals in Latin lookup 13 subtable" n.sc
Position2: "'cpsp' Capital Spacing in Latin lookup 12 subtable" dx=7 dy=0 dh=14 dv=0
EndChar

StartChar: O
Encoding: 79 79 60
Width: 833
VWidth: 0
GlyphClass: 2
Flags: W
TeX: 681 0
HStem: -17 56<323.523 513.639> 639 56<321.324 511.244>
VStem: 47 150<206.369 469.803> 637 150<208.956 475.655>
AnchorPoint: "bot_acc" 419 -145 basechar 0
AnchorPoint: "dotbelow" 419 -145 basechar 0
AnchorPoint: "ogon_acc" 419 -145 basechar 0
AnchorPoint: "top_accu" 419 809 basechar 0
AnchorPoint: "dotabove" 419 809 basechar 0
LayerCount: 2
Fore
SplineSet
47 332 m 0
 47 561 188 695 430 695 c 0
 656 695 787 566 787 346 c 0
 787 118 646 -17 407 -17 c 0
 178 -17 47 110 47 332 c 0
197 355 m 0
 197 240 228 144 282 91 c 0
 318 55 359 39 414 39 c 0
 560 39 637 137 637 325 c 0
 637 438 606 534 551 588 c 0
 516 622 474 639 421 639 c 0
 358 639 306 620 267 582 c 0
 222 537 197 457 197 355 c 0
EndSplineSet
Validated: 1
AlternateSubs2: "'aalt' Access All Alternates lookup 0 subtable" o.sc
AlternateSubs2: "'aalt' Access All Alternates in Latin lookup 0 subtable" o.sc
Substitution2: "'c2sc' Capitals to Small Capitals in Latin lookup 13 subtable" o.sc
Position2: "'cpsp' Capital Spacing in Latin lookup 12 subtable" dx=7 dy=0 dh=14 dv=0
EndChar

StartChar: P
Encoding: 80 80 61
Width: 611
VWidth: 0
GlyphClass: 2
Flags: W
TeX: 681 0
HStem: -3 40<39 76 313 360> 319 46<311.891 404.359> 326 39<311 368.063> 631 50<265.705 403.438> 644 37<39 76>
VStem: 124 141<43.7344 627.902> 450 144<437.03 582.797>
AnchorPoint: "bot_acc" 317 -145 basechar 0
AnchorPoint: "dotbelow" 317 -145 basechar 0
AnchorPoint: "ogon_acc" 200 -145 basechar 0
AnchorPoint: "top_accu" 317 809 basechar 0
AnchorPoint: "dotabove" 317 809 basechar 0
LayerCount: 2
Fore
SplineSet
39 -3 m 1xd6
 39 37 l 1
 76 40 l 2
 123 44 124 46 124 135 c 2
 124 543 l 2
 124 631 121 637 76 641 c 2
 39 644 l 1
 39 681 l 1
 97 679 154 678 212 678 c 0
 276 678 341 681 405 681 c 0
 490 681 594 631 594 531 c 0
 594 410 498 319 369 319 c 0xce
 349 319 330 323 311 326 c 1
 311 365 l 1xa6
 329 365 l 1
 347 365 l 2
 410 365 450 417 450 497 c 0
 450 586 408 631 325 631 c 0
 298 631 280 628 265 622 c 1
 265 135 l 2
 265 47 267 43 313 40 c 2
 360 37 l 1
 360 -3 l 1
 305 -1 250 0 195 0 c 0
 143 0 91 -1 39 -3 c 1xd6
EndSplineSet
Validated: 1
AlternateSubs2: "'aalt' Access All Alternates lookup 0 subtable" p.sc
AlternateSubs2: "'aalt' Access All Alternates in Latin lookup 0 subtable" p.sc
Substitution2: "'c2sc' Capitals to Small Capitals in Latin lookup 13 subtable" p.sc
Position2: "'cpsp' Capital Spacing in Latin lookup 12 subtable" dx=7 dy=0 dh=14 dv=0
EndChar

StartChar: Q
Encoding: 81 81 62
Width: 833
VWidth: 0
GlyphClass: 2
Flags: W
TeX: 681 -184
HStem: -184 78<596.672 678> -16 55<374 515.589> 639 56<320.423 510.24>
VStem: 47 150<202.771 469.365> 637 150<208.303 471.825>
AnchorPoint: "bot_acc" 417 -305 basechar 0
AnchorPoint: "dotbelow" 417 -305 basechar 0
AnchorPoint: "ogon_acc" 417 -274 basechar 0
AnchorPoint: "top_accu" 417 809 basechar 0
AnchorPoint: "dotabove" 417 809 basechar 0
LayerCount: 2
Fore
SplineSet
47 331 m 0
 47 560 188 695 427 695 c 0
 656 695 787 568 787 346 c 0
 787 217 742 118 655 54 c 0
 595 9 505 -15 395 -15 c 0
 387 -16 385 -16 374 -16 c 1
 421 -26 446 -32 474 -42 c 2
 594 -84 l 2
 631 -97 675 -106 701 -106 c 0
 719 -106 736 -99 770 -87 c 2
 781 -83 l 1
 781 -120 l 1
 678 -184 l 1
 652 -184 632 -181 606 -174 c 2
 407 -120 l 2
 348 -104 333 -101 308 -101 c 0
 284 -101 259 -113 211 -146 c 1
 200 -115 l 1
 273 -57 308 -35 361 -15 c 1
 273 -4 231 9 182 41 c 0
 94 99 47 199 47 331 c 0
197 355 m 0
 197 240 228 144 282 91 c 0
 318 55 359 39 414 39 c 0
 560 39 637 137 637 325 c 0
 637 438 606 534 551 588 c 0
 516 622 474 639 421 639 c 0
 358 639 306 620 267 582 c 0
 222 537 197 457 197 355 c 0
EndSplineSet
Validated: 1
AlternateSubs2: "'aalt' Access All Alternates lookup 0 subtable" q.sc
AlternateSubs2: "'aalt' Access All Alternates in Latin lookup 0 subtable" q.sc
Substitution2: "'c2sc' Capitals to Small Capitals in Latin lookup 13 subtable" q.sc
Position2: "'cpsp' Capital Spacing in Latin lookup 12 subtable" dx=7 dy=0 dh=14 dv=0
EndChar

StartChar: R
Encoding: 82 82 63
Width: 722
VWidth: 0
GlyphClass: 2
Flags: W
TeX: 681 0
HStem: -3 40<39 76 313 350 658.524 708> 631 50<265.66 410.127> 644 37<39 76>
VStem: 124 141<43.6287 627.902> 464 142<453.741 579.465>
AnchorPoint: "bot_acc" 350 -145 basechar 0
AnchorPoint: "dotbelow" 350 -145 basechar 0
AnchorPoint: "ogon_acc" 615 -145 basechar 0
AnchorPoint: "top_accu" 350 809 basechar 0
AnchorPoint: "dotabove" 350 809 basechar 0
LayerCount: 2
Fore
SplineSet
39 -3 m 1xd8
 39 37 l 1
 76 40 l 2
 123 44 124 46 124 135 c 2
 124 543 l 2
 124 631 121 637 76 641 c 2
 39 644 l 1
 39 681 l 1
 98 679 158 678 217 678 c 0
 283 678 350 681 416 681 c 0xb8
 542 681 606 631 606 534 c 0
 606 492 591 456 563 424 c 0
 536 395 513 379 457 356 c 1
 638 82 l 2
 660 49 672 44 708 37 c 1
 708 -3 l 1
 676 -1 643 0 611 0 c 0
 581 0 551 -1 521 -3 c 1
 311 339 l 1
 311 362 l 1
 348 362 373 366 398 381 c 0
 439 405 464 450 464 503 c 0
 464 584 413 631 324 631 c 0
 298 631 279 628 265 622 c 1
 265 135 l 2
 265 46 266 44 313 40 c 2
 350 37 l 1
 350 -3 l 1
 298 -1 246 0 194 0 c 0
 142 0 91 -1 39 -3 c 1xd8
EndSplineSet
Validated: 1
AlternateSubs2: "'aalt' Access All Alternates lookup 0 subtable" r.sc
AlternateSubs2: "'aalt' Access All Alternates in Latin lookup 0 subtable" r.sc
Substitution2: "'c2sc' Capitals to Small Capitals in Latin lookup 13 subtable" r.sc
Position2: "'cpsp' Capital Spacing in Latin lookup 12 subtable" dx=7 dy=0 dh=14 dv=0
EndChar

StartChar: S
Encoding: 83 83 64
Width: 611
VWidth: 0
GlyphClass: 2
Flags: W
TeX: 681 0
HStem: -17 54<186.4 366.991> 644 51<240.891 412.519>
VStem: 64 124<468.889 576.465> 72 40<114 202> 433 126<121.169 225.649> 464 41<507 589>
AnchorPoint: "bot_acc" 297 -145 basechar 0
AnchorPoint: "dotbelow" 297 -145 basechar 0
AnchorPoint: "ogon_acc" 297 -145 basechar 0
AnchorPoint: "top_accu" 297 809 basechar 0
AnchorPoint: "dotabove" 297 809 basechar 0
LayerCount: 2
Fore
SplineSet
57 29 m 1xe8
 68 86 72 127 72 202 c 1
 112 202 l 1
 119 114 l 1
 151 67 215 37 283 37 c 0
 369 37 433 92 433 166 c 0xd8
 433 214 406 245 350 262 c 2
 210 304 l 2
 115 332 64 395 64 480 c 0
 64 615 162 695 329 695 c 0
 395 695 447 686 514 661 c 1
 519 649 l 1
 510 620 505 572 505 507 c 1
 464 507 l 1xe4
 458 589 l 1
 420 626 375 644 322 644 c 0
 242 644 188 597 188 527 c 0
 188 476 220 446 294 426 c 2
 408 396 l 2
 507 370 559 310 559 220 c 0
 559 75 444 -17 265 -17 c 0
 189 -17 131 -4 57 29 c 1xe8
EndSplineSet
Validated: 1
AlternateSubs2: "'aalt' Access All Alternates lookup 0 subtable" s.sc
AlternateSubs2: "'aalt' Access All Alternates in Latin lookup 0 subtable" s.sc
Substitution2: "'c2sc' Capitals to Small Capitals in Latin lookup 13 subtable" s.sc
Position2: "'cpsp' Capital Spacing in Latin lookup 12 subtable" dx=7 dy=0 dh=14 dv=0
EndChar

StartChar: T
Encoding: 84 84 65
Width: 667
VWidth: 0
GlyphClass: 2
Flags: W
TeX: 681 0
HStem: -3 40<178 215 452 489> 619 62<77.1523 263 404 587.3>
VStem: 30 40<517 586> 263 141<43.6287 619> 597 40<517 586>
CounterMasks: 1 38
AnchorPoint: "bot_acc" 334 -145 basechar 0
AnchorPoint: "dotbelow" 334 -145 basechar 0
AnchorPoint: "ogon_acc" 334 -145 basechar 0
AnchorPoint: "top_accu" 334 809 basechar 0
AnchorPoint: "dotabove" 334 809 basechar 0
LayerCount: 2
Fore
SplineSet
17 676 m 1
 23 681 l 1
 127 679 230 678 334 678 c 0
 437 678 541 679 644 681 c 1
 650 676 l 1
 642 628 639 593 637 517 c 1
 597 517 l 1
 592 586 l 1
 577 626 570 619 521 619 c 2
 404 619 l 1
 404 135 l 2
 404 46 405 44 452 40 c 2
 489 37 l 1
 489 -3 l 1
 437 -1 385 0 333 0 c 0
 281 0 230 -1 178 -3 c 1
 178 37 l 1
 215 40 l 2
 262 44 263 46 263 135 c 2
 263 619 l 1
 146 619 l 2
 115 619 78 626 75 586 c 2
 70 517 l 1
 30 517 l 1
 27 593 25 628 17 676 c 1
EndSplineSet
Validated: 33
AlternateSubs2: "'aalt' Access All Alternates lookup 0 subtable" t.sc
AlternateSubs2: "'aalt' Access All Alternates in Latin lookup 0 subtable" t.sc
Substitution2: "'c2sc' Capitals to Small Capitals in Latin lookup 13 subtable" t.sc
Position2: "'cpsp' Capital Spacing in Latin lookup 12 subtable" dx=7 dy=0 dh=14 dv=0
EndChar

StartChar: U
Encoding: 85 85 66
Width: 778
VWidth: 0
GlyphClass: 2
Flags: W
TeX: 681 0
HStem: -17 82<320.548 530.573> 644 37<26 63 300 337 531 568 723 760>
VStem: 111 141<134.498 636.375> 616 59<147.154 636.375>
AnchorPoint: "bot_acc" 434 -145 basechar 0
AnchorPoint: "dotbelow" 434 -145 basechar 0
AnchorPoint: "ogon_acc" 434 -145 basechar 0
AnchorPoint: "top_accu" 434 809 basechar 0
AnchorPoint: "dotabove" 434 809 basechar 0
LayerCount: 2
Fore
SplineSet
26 644 m 1
 26 681 l 1
 78 679 129 678 181 678 c 0
 233 678 285 679 337 681 c 1
 337 644 l 1
 300 641 l 2
 255 637 252 631 252 543 c 2
 252 295 l 2
 252 191 261 144 288 112 c 0
 315 80 360 65 428 65 c 0
 495 65 541 79 569 108 c 0
 603 143 616 196 616 302 c 2
 616 543 l 2
 616 631 613 637 568 641 c 2
 531 644 l 1
 531 681 l 1
 569 679 608 678 646 678 c 0
 684 678 722 679 760 681 c 1
 760 644 l 1
 723 641 l 2
 678 637 675 631 675 543 c 2
 675 251 l 2
 675 70 583 -17 391 -17 c 0
 219 -17 111 58 111 177 c 2
 111 543 l 2
 111 631 108 637 63 641 c 2
 26 644 l 1
EndSplineSet
Validated: 1
AlternateSubs2: "'aalt' Access All Alternates lookup 0 subtable" u.sc
AlternateSubs2: "'aalt' Access All Alternates in Latin lookup 0 subtable" u.sc
Substitution2: "'c2sc' Capitals to Small Capitals in Latin lookup 13 subtable" u.sc
Position2: "'cpsp' Capital Spacing in Latin lookup 12 subtable" dx=7 dy=0 dh=14 dv=0
EndChar

StartChar: V
Encoding: 86 86 67
Width: 778
VWidth: 0
GlyphClass: 2
Flags: W
TeX: 681 0
HStem: -3 21G<353.643 444.5> 644 37<20 61 290 340 532 578 731 763>
AnchorPoint: "bot_acc" 392 -145 basechar 0
AnchorPoint: "dotbelow" 392 -145 basechar 0
AnchorPoint: "ogon_acc" 392 -145 basechar 0
AnchorPoint: "top_accu" 392 809 basechar 0
AnchorPoint: "dotabove" 392 809 basechar 0
LayerCount: 2
Fore
SplineSet
20 644 m 1
 20 681 l 1
 73 679 125 678 178 678 c 0
 232 678 286 679 340 681 c 1
 340 644 l 1
 290 641 l 2
 276 640 264 631 264 622 c 0
 264 604 264 601 285 550 c 2
 442 163 l 1
 584 516 l 2
 605 569 615 600 615 615 c 0
 615 630 601 639 578 641 c 2
 532 644 l 1
 532 681 l 1
 570 679 609 678 647 678 c 0
 686 678 724 679 763 681 c 1
 763 644 l 1
 731 641 l 2
 710 639 697 626 684 594 c 2
 476 96 l 2
 462 64 451 30 438 -3 c 1
 362 -3 l 1
 123 569 l 2
 102 620 86 639 61 641 c 2
 20 644 l 1
EndSplineSet
Validated: 1
AlternateSubs2: "'aalt' Access All Alternates lookup 0 subtable" v.sc
AlternateSubs2: "'aalt' Access All Alternates in Latin lookup 0 subtable" v.sc
Substitution2: "'c2sc' Capitals to Small Capitals in Latin lookup 13 subtable" v.sc
Position2: "'cpsp' Capital Spacing in Latin lookup 12 subtable" dx=7 dy=0 dh=14 dv=0
EndChar

StartChar: W
Encoding: 87 87 68
Width: 1000
VWidth: 0
GlyphClass: 2
Flags: W
TeX: 681 0
HStem: -3 21G<220.382 302.52 677.5 761.615> 644 37<17 49 265 307 772 851.523 955 988> 666 20G<508 576.5>
AnchorPoint: "bot_acc" 497 -145 basechar 0
AnchorPoint: "dotbelow" 497 -145 basechar 0
AnchorPoint: "ogon_acc" 721 -145 basechar 0
AnchorPoint: "top_accu" 497 809 basechar 0
AnchorPoint: "dotabove" 497 809 basechar 0
LayerCount: 2
Fore
SplineSet
17 644 m 1xc0
 17 681 l 1
 69 679 121 678 173 678 c 0
 218 678 262 679 307 681 c 1
 307 644 l 1xc0
 265 641 l 2
 249 640 235 628 235 616 c 0
 235 608 236 599 238 590 c 2
 320 207 l 1
 470 562 l 2
 505 646 495 623 521 686 c 1
 566 686 l 1xa0
 587 626 599 592 615 553 c 2
 752 210 l 1
 849 588 l 2
 852 599 853 608 853 618 c 0
 853 632 841 640 818 641 c 2
 772 644 l 1
 772 681 l 1
 807 679 843 678 878 678 c 0
 915 678 951 679 988 681 c 1
 988 644 l 1
 955 641 l 2
 938 639 925 618 912 572 c 2
 790 140 l 1
 757 -3 l 1
 684 -3 l 1
 671 32 660 67 646 102 c 2
 497 477 l 1
 342 122 l 1
 295 -3 l 1
 225 -3 l 1
 86 599 l 2
 80 627 68 639 49 641 c 2
 17 644 l 1xc0
EndSplineSet
Validated: 1
AlternateSubs2: "'aalt' Access All Alternates lookup 0 subtable" w.sc
AlternateSubs2: "'aalt' Access All Alternates in Latin lookup 0 subtable" w.sc
Substitution2: "'c2sc' Capitals to Small Capitals in Latin lookup 13 subtable" w.sc
Position2: "'cpsp' Capital Spacing in Latin lookup 12 subtable" dx=7 dy=0 dh=14 dv=0
EndChar

StartChar: X
Encoding: 88 88 69
Width: 667
VWidth: 0
GlyphClass: 2
Flags: W
TeX: 681 0
HStem: 0 34<17 48 625 650> 617 41<26.1463 56.6216> 644 34<621 649> 675 20G<106.081 219.5>
AnchorPoint: "bot_acc" 334 -145 basechar 0
AnchorPoint: "dotbelow" 334 -145 basechar 0
AnchorPoint: "ogon_acc" 555 -145 basechar 0
AnchorPoint: "top_accu" 334 809 basechar 0
AnchorPoint: "dotabove" 334 809 basechar 0
LayerCount: 2
Fore
SplineSet
17 0 m 1xa0
 17 34 l 1
 48 37 l 2
 60 38 74 46 81 55 c 2
 280 316 l 1
 186 482 l 2
 160 528 122 581 100 605 c 0
 87 618 75 623 59 623 c 0
 50 623 43 622 27 617 c 1
 22 658 l 1
 205 695 l 1xd0
 234 673 250 653 278 604 c 2
 373 435 l 1
 538 678 l 1
 649 678 l 1
 649 644 l 1
 621 641 l 2
 601 639 594 633 573 605 c 2
 403 381 l 1
 563 103 l 2
 591 54 603 40 625 37 c 2
 650 34 l 1
 650 -3 l 1
 618 -1 587 0 555 0 c 0
 523 0 491 -1 459 -3 c 1
 310 263 l 1
 170 62 l 2
 166 56 148 26 134 0 c 1
 17 0 l 1xa0
EndSplineSet
Validated: 1
AlternateSubs2: "'aalt' Access All Alternates lookup 0 subtable" x.sc
AlternateSubs2: "'aalt' Access All Alternates in Latin lookup 0 subtable" x.sc
Substitution2: "'c2sc' Capitals to Small Capitals in Latin lookup 13 subtable" x.sc
Position2: "'cpsp' Capital Spacing in Latin lookup 12 subtable" dx=7 dy=0 dh=14 dv=0
EndChar

StartChar: Y
Encoding: 89 89 70
Width: 667
VWidth: 0
GlyphClass: 2
Flags: W
TeX: 681 0
HStem: -3 40<205 242 479 516> 622 37<15 45.9167> 675 20G<85.6667 197>
VStem: 290 141<43.6287 319.071>
AnchorPoint: "bot_acc" 361 -145 basechar 0
AnchorPoint: "dotbelow" 361 -145 basechar 0
AnchorPoint: "ogon_acc" 361 -145 basechar 0
AnchorPoint: "top_accu" 361 809 basechar 0
AnchorPoint: "dotabove" 361 809 basechar 0
LayerCount: 2
Fore
SplineSet
15 622 m 1
 15 659 l 1
 174 695 l 1
 220 668 248 635 288 559 c 2
 395 356 l 1
 583 678 l 1
 660 678 l 1
 660 659 l 1
 484 398 l 2
 466 371 450 341 431 298 c 1
 431 135 l 2
 431 46 432 44 479 40 c 2
 516 37 l 1
 516 -3 l 1
 464 -1 412 0 360 0 c 0
 308 0 257 -1 205 -3 c 1
 205 37 l 1
 242 40 l 2
 289 44 290 46 290 135 c 2
 290 274 l 1
 274 310 263 332 246 359 c 2
 145 522 l 2
 91 610 66 622 15 622 c 1
EndSplineSet
Validated: 1
AlternateSubs2: "'aalt' Access All Alternates lookup 0 subtable" y.sc
AlternateSubs2: "'aalt' Access All Alternates in Latin lookup 0 subtable" y.sc
Substitution2: "'c2sc' Capitals to Small Capitals in Latin lookup 13 subtable" y.sc
Position2: "'cpsp' Capital Spacing in Latin lookup 12 subtable" dx=7 dy=0 dh=14 dv=0
EndChar

StartChar: Z
Encoding: 90 90 71
Width: 667
VWidth: 0
GlyphClass: 2
Flags: W
TeX: 681 0
HStem: 0 57<215 564.406> 620 58<131.141 434>
VStem: 80 37<519 567.125>
AnchorPoint: "bot_acc" 318 -145 basechar 0
AnchorPoint: "dotbelow" 318 -145 basechar 0
AnchorPoint: "ogon_acc" 506 -145 basechar 0
AnchorPoint: "top_accu" 318 809 basechar 0
AnchorPoint: "dotabove" 318 809 basechar 0
LayerCount: 2
Fore
SplineSet
24 -3 m 1
 24 35 l 1
 73 97 100 134 128 174 c 2
 434 620 l 1
 212 620 l 2
 141 620 131 615 125 574 c 2
 117 519 l 1
 80 519 l 1
 80 681 l 1
 171 679 261 678 352 678 c 0
 442 678 533 679 623 681 c 1
 623 646 l 1
 591 607 567 576 540 536 c 2
 215 57 l 1
 491 57 l 2
 542 57 567 69 572 96 c 2
 587 174 l 1
 627 174 l 1
 618 124 612 58 611 -3 c 1
 516 -1 422 0 327 0 c 0
 226 0 125 -1 24 -3 c 1
EndSplineSet
Validated: 1
AlternateSubs2: "'aalt' Access All Alternates lookup 0 subtable" z.sc
AlternateSubs2: "'aalt' Access All Alternates in Latin lookup 0 subtable" z.sc
Substitution2: "'c2sc' Capitals to Small Capitals in Latin lookup 13 subtable" z.sc
Position2: "'cpsp' Capital Spacing in Latin lookup 12 subtable" dx=7 dy=0 dh=14 dv=0
EndChar

StartChar: asciicircum
Encoding: 94 94 72
Width: 606
VWidth: 0
Flags: W
TeX: 681 0
LayerCount: 2
Fore
SplineSet
52 275 m 1
 258 678 l 1
 348 678 l 1
 554 275 l 1
 459 275 l 1
 303 569 l 1
 147 275 l 1
 52 275 l 1
EndSplineSet
Validated: 1
EndChar

StartChar: underscore
Encoding: 95 95 73
Width: 500
VWidth: 0
Flags: W
TeX: 0 -125
HStem: -145 70<0 500>
LayerCount: 2
Fore
SplineSet
0 -75 m 1
 500 -75 l 1
 500 -145 l 1
 0 -145 l 1
 0 -75 l 1
EndSplineSet
Validated: 1
EndChar

StartChar: a
Encoding: 97 97 74
Width: 500
VWidth: 0
GlyphClass: 2
Flags: W
TeX: 454 0
HStem: -17 87<119 218.157> -3 40<423.347 478> 233 42<272.75 299> 393 78<163.235 265.023>
VStem: 40 122<80.3366 185.316> 299 121<94.0086 233 275 357.048>
AnchorPoint: "bot_acc" 260 -145 basechar 0
AnchorPoint: "dotbelow" 260 -145 basechar 0
AnchorPoint: "ogon_acc" 386 -145 basechar 0
AnchorPoint: "top_accl" 260 599 basechar 0
AnchorPoint: "dotabove" 260 599 basechar 0
LayerCount: 2
Fore
SplineSet
40 107 m 0xbc
 40 192 85 231 211 257 c 2
 299 275 l 1
 296 357 264 393 197 393 c 0
 170 393 142 386 139 379 c 2
 117 329 l 1
 87 336 l 1
 87 405 l 1
 140 437 l 2
 178 460 217 471 260 471 c 0
 361 471 420 418 420 330 c 2
 420 98 l 2
 420 51 425 39 448 37 c 2
 478 34 l 1
 478 -3 l 1
 449 -1 419 0 390 0 c 0
 360 0 329 -1 299 -3 c 1x7c
 294 5 l 1
 299 67 l 1
 206 -5 l 2
 196 -13 180 -17 157 -17 c 0
 81 -17 40 26 40 107 c 0xbc
162 133 m 0
 162 94 181 70 213 70 c 0xbc
 243 70 279 89 299 115 c 1
 299 233 l 1
 254 221 l 2
 183 202 162 182 162 133 c 0
EndSplineSet
Validated: 1
AlternateSubs2: "'aalt' Access All Alternates lookup 0 subtable" a.sc
AlternateSubs2: "'aalt' Access All Alternates in Latin lookup 0 subtable" a.sc
Substitution2: "'smcp' Lowercase to Small Capitals in Latin lookup 2 subtable" a.sc
EndChar

StartChar: b
Encoding: 98 98 75
Width: 611
VWidth: 0
GlyphClass: 2
Flags: W
TeX: 720 0
HStem: -17 68<243.076 353.23> 381 90<297.457 428> 641 36<10 63> 700 20G<137.545 211>
VStem: 89 122<81.6484 355.025 383 637.582> 430 126<174.17 321.381>
AnchorPoint: "bot_acc" 283 -145 basechar 0
AnchorPoint: "dotbelow" 283 -145 basechar 0
AnchorPoint: "ogon_acc" 283 -145 basechar 0
AnchorPoint: "top_accu" 150 865 basechar 0
AnchorPoint: "dotabove" 352 599 basechar 0
LayerCount: 2
Fore
SplineSet
10 641 m 1
 10 677 l 1
 68 683 102 689 131 698 c 2
 203 720 l 1
 211 714 l 1
 211 383 l 1
 272 432 l 2
 307 460 336 471 375 471 c 0
 481 471 556 392 556 281 c 0
 556 204 523 127 473 86 c 0
 445 63 399 32 359 8 c 0
 330 -9 303 -17 272 -17 c 0
 229 -17 187 -5 141 20 c 1
 102 -12 l 1
 80 -4 l 1
 86 49 89 109 89 162 c 2
 89 568 l 2
 89 627 85 637 63 638 c 2
 10 641 l 1
211 106 m 1
 238 68 270 51 312 51 c 0
 385 51 430 117 430 221 c 0
 430 321 384 381 307 381 c 0
 266 381 233 364 211 331 c 1
 211 106 l 1
EndSplineSet
Validated: 1
AlternateSubs2: "'aalt' Access All Alternates lookup 0 subtable" b.sc
AlternateSubs2: "'aalt' Access All Alternates in Latin lookup 0 subtable" b.sc
Substitution2: "'smcp' Lowercase to Small Capitals in Latin lookup 2 subtable" b.sc
EndChar

StartChar: c
Encoding: 99 99 76
Width: 444
VWidth: 0
GlyphClass: 2
Flags: W
TeX: 454 0
HStem: -17 71<244.192 367.848> 400 71<209.206 333.438>
VStem: 37 124<147.422 326.378> 354 36<297 357>
AnchorPoint: "bot_acc" 259 -145 basechar 0
AnchorPoint: "dotbelow" 259 -145 basechar 0
AnchorPoint: "ogon_acc" 259 -145 basechar 0
AnchorPoint: "top_accl" 259 599 basechar 0
AnchorPoint: "dotabove" 259 599 basechar 0
LayerCount: 2
Fore
SplineSet
37 229 m 0
 37 316 69 366 158 419 c 2
 210 450 l 2
 234 464 262 471 300 471 c 0
 336 471 357 467 403 451 c 1
 410 438 l 1
 401 394 396 361 390 297 c 1
 354 297 l 1
 347 357 l 2
 344 380 305 400 259 400 c 0
 195 400 161 352 161 261 c 0
 161 133 221 54 320 54 c 0
 349 54 371 59 405 73 c 1
 414 63 l 1
 393 17 l 1
 346 -8 309 -17 259 -17 c 0
 115 -17 37 70 37 229 c 0
EndSplineSet
Validated: 1
AlternateSubs2: "'aalt' Access All Alternates lookup 0 subtable" c.sc
AlternateSubs2: "'aalt' Access All Alternates in Latin lookup 0 subtable" c.sc
Substitution2: "'smcp' Lowercase to Small Capitals in Latin lookup 2 subtable" c.sc
EndChar

StartChar: d
Encoding: 100 100 77
Width: 611
VWidth: 0
GlyphClass: 2
Flags: W
TeX: 720 0
HStem: -17 95<225.363 293.792> -3 37<544 577> 407 64<209.386 343.973> 641 36<307 360> 700 20G<434.545 508>
VStem: 42 126<146.384 328.495> 386 122<111.062 367.381 446 637.582>
AnchorPoint: "bot_acc" 310 -145 basechar 0
AnchorPoint: "dotbelow" 310 -145 basechar 0
AnchorPoint: "ogon_acc" 479 -145 basechar 0
AnchorPoint: "top_accu" 447 865 basechar 0
AnchorPoint: "dotabove" 200 599 basechar 0
AnchorPoint: "ccmped" 632 603 basechar 0
LayerCount: 2
Fore
SplineSet
42 217 m 0xbe
 42 303 69 361 126 398 c 2
 198 445 l 2
 225 462 254 471 286 471 c 0
 311 471 338 465 366 454 c 2
 386 446 l 1
 386 568 l 2
 386 627 382 637 360 638 c 2
 307 641 l 1
 307 677 l 1
 365 683 399 689 428 698 c 2
 500 720 l 1
 508 714 l 1
 508 100 l 2
 508 46 513 38 544 36 c 2
 577 34 l 1
 577 -3 l 1
 543 -1 510 0 476 0 c 0
 446 0 416 -1 386 -3 c 1x7e
 381 5 l 1
 386 80 l 1
 282 -5 l 2
 272 -13 256 -17 233 -17 c 0
 116 -17 42 74 42 217 c 0xbe
168 255 m 0
 168 147 213 78 284 78 c 0xbe
 339 78 386 115 386 160 c 2
 386 344 l 1
 353 387 317 407 274 407 c 0
 203 407 168 356 168 255 c 0
EndSplineSet
Validated: 1
AlternateSubs2: "'aalt' Access All Alternates lookup 0 subtable" d.sc
AlternateSubs2: "'aalt' Access All Alternates in Latin lookup 0 subtable" d.sc
Substitution2: "'smcp' Lowercase to Small Capitals in Latin lookup 2 subtable" d.sc
EndChar

StartChar: e
Encoding: 101 101 78
Width: 500
VWidth: 0
GlyphClass: 2
Flags: W
TeX: 454 0
HStem: -17 71<247.991 382.768> 223 50<172 333.863> 415 56<195.375 303.973>
VStem: 42 130<132.517 223 276 341.389> 334 127<276 383.234>
AnchorPoint: "bot_acc" 271 -145 basechar 0
AnchorPoint: "dotbelow" 271 -145 basechar 0
AnchorPoint: "ogon_acc" 271 -145 basechar 0
AnchorPoint: "top_accl" 271 599 basechar 0
AnchorPoint: "dotabove" 271 599 basechar 0
LayerCount: 2
Fore
SplineSet
42 226 m 0
 42 322 71 381 137 420 c 2
 184 448 l 2
 211 464 237 471 271 471 c 0
 387 471 461 402 461 295 c 2
 461 243 l 1
 404 229 360 223 303 223 c 2
 172 223 l 1
 174 175 180 151 197 123 c 0
 222 81 271 54 321 54 c 0
 362 54 392 63 439 89 c 1
 451 74 l 1
 429 26 l 1
 364 -7 329 -17 271 -17 c 0
 121 -17 42 67 42 226 c 0
166 276 m 1
 198 275 l 2
 255 273 230 273 250 273 c 0
 283 273 334 276 334 276 c 1
 334 375 308 415 251 415 c 0
 193 415 166 375 166 276 c 1
EndSplineSet
Validated: 1
AlternateSubs2: "'aalt' Access All Alternates lookup 0 subtable" e.sc
AlternateSubs2: "'aalt' Access All Alternates in Latin lookup 0 subtable" e.sc
Substitution2: "'smcp' Lowercase to Small Capitals in Latin lookup 2 subtable" e.sc
EndChar

StartChar: f
Encoding: 102 102 79
Width: 389
VWidth: 0
GlyphClass: 2
Flags: W
TeX: 720 -3
HStem: -3 37<34 111.868 242.737 334> 372 62<239 363> 634 86<272.201 361.223>
VStem: 117 122<40.244 372 434.333 581.72>
AnchorPoint: "bot_acc" 208 -145 basechar 0
AnchorPoint: "dotbelow" 208 -145 basechar 0
AnchorPoint: "ogon_acc" 184 -145 basechar 0
AnchorPoint: "top_accl" 208 841 basechar 0
AnchorPoint: "dotabove" 208 841 basechar 0
LayerCount: 2
Fore
SplineSet
34 -3 m 1
 34 34 l 1
 75 36 l 2
 112 38 117 45 117 100 c 2
 117 372 l 1
 38 367 l 1
 38 391 l 1
 71 407 91 418 117 436 c 1
 117 479 l 2
 117 559 124 576 172 616 c 2
 246 678 l 2
 284 710 307 720 339 720 c 0
 354 720 364 718 381 714 c 1
 381 617 l 1
 365 610 l 1
 334 629 319 634 298 634 c 0
 252 634 239 613 239 542 c 2
 239 434 l 1
 283 434 326 435 370 438 c 1
 374 430 l 1
 363 372 l 1
 239 372 l 1
 239 100 l 2
 239 76 240 63 242 54 c 0
 245 44 263 37 289 36 c 2
 334 34 l 1
 334 -3 l 1
 281 -1 227 0 174 0 c 0
 127 0 81 -1 34 -3 c 1
EndSplineSet
Validated: 1
AlternateSubs2: "'aalt' Access All Alternates lookup 0 subtable" f.sc
AlternateSubs2: "'aalt' Access All Alternates in Latin lookup 0 subtable" f.sc
Substitution2: "'smcp' Lowercase to Small Capitals in Latin lookup 2 subtable" f.sc
EndChar

StartChar: longs
Encoding: 278 383 80
Width: 389
VWidth: 0
Flags: W
TeX: 720 -3
HStem: -3 37<34 111.868 242.737 334> 634 86<272.201 361.223>
VStem: 117 122<40.244 372 422.207 581.72>
LayerCount: 2
Fore
SplineSet
34 -3 m 1
 34 34 l 1
 75 36 l 2
 112 38 117 45 117 100 c 2
 117 372 l 1
 38 367 l 1
 38 391 l 1
 71 407 91 418 117 436 c 1
 117 479 l 2
 117 559 124 576 172 616 c 2
 246 678 l 2
 284 710 307 720 339 720 c 0
 354 720 364 718 381 714 c 1
 381 617 l 1
 365 610 l 1
 334 629 319 634 298 634 c 0
 252 634 239 613 239 542 c 2
 239 100 l 2
 239 76 240 63 242 54 c 0
 245 44 263 37 289 36 c 2
 334 34 l 1
 334 -3 l 1
 281 -1 227 0 174 0 c 0
 127 0 81 -1 34 -3 c 1
EndSplineSet
Validated: 1
EndChar

StartChar: g
Encoding: 103 103 81
Width: 556
VWidth: 0
GlyphClass: 2
Flags: W
TeX: 454 -266
HStem: -266 50<173.302 357.206> -15 97<171.005 400.848> 145 46<200.998 308.101> 372 55<452 529.25> 421 50<196.333 304.025>
VStem: 26 94<-169.742 -65.5717> 47 123<224.292 373.773> 65 105<35 115.5> 334 123<237.955 370.507> 424 111<-133.879 -37.6605>
AnchorPoint: "bot_acc" 264 -411 basechar 0
AnchorPoint: "dotbelow" 264 -411 basechar 0
AnchorPoint: "ogon_acc" 264 -411 basechar 0
AnchorPoint: "top_accl" 264 599 basechar 0
AnchorPoint: "dotabove" 264 599 basechar 0
AnchorPoint: "ccmped" 264 599 basechar 0
LayerCount: 2
Fore
SplineSet
26 -124 m 0xf440
 26 -97 37 -71 52 -62 c 2
 133 -14 l 1
 83 -1 65 17 65 53 c 0xf1
 65 73 72 94 82 101 c 2
 153 155 l 1
 118 167 103 176 84 196 c 0
 60 222 47 255 47 292 c 0
 47 397 136 471 264 471 c 0xea
 328 471 375 458 416 428 c 1
 432 427 444 427 452 427 c 0
 474 427 493 428 534 432 c 1
 529 368 l 1
 452 372 l 1
 456 353 457 341 457 325 c 0
 457 275 444 240 413 209 c 0
 372 168 308 145 239 145 c 0
 227 145 217 146 199 147 c 1
 179 135 170 123 170 108 c 0xf180
 170 88 186 77 217 78 c 2
 363 82 l 1
 387 82 l 2
 488 82 535 42 535 -42 c 0
 535 -175 417 -266 242 -266 c 0
 110 -266 26 -211 26 -124 c 0xf440
120 -112 m 0xe440
 120 -174 179 -216 268 -216 c 0
 357 -216 424 -164 424 -95 c 0
 424 -31 394 -15 272 -15 c 0
 223 -15 187 -18 171 -26 c 0
 141 -40 120 -75 120 -112 c 0xe440
170 311 m 0xea80
 170 236 202 191 254 191 c 0
 307 191 334 228 334 299 c 0
 334 378 305 421 252 421 c 0
 198 421 170 383 170 311 c 0xea80
EndSplineSet
Validated: 33
AlternateSubs2: "'aalt' Access All Alternates lookup 0 subtable" g.sc
AlternateSubs2: "'aalt' Access All Alternates in Latin lookup 0 subtable" g.sc
Substitution2: "'smcp' Lowercase to Small Capitals in Latin lookup 2 subtable" g.sc
EndChar

StartChar: h
Encoding: 104 104 82
Width: 611
VWidth: 0
GlyphClass: 2
Flags: W
TeX: 720 0
HStem: -3 37<24 59 253 288 554 587> 385 86<293.522 391.821> 641 36<24 69> 700 20G<143.545 217>
VStem: 95 122<38.0215 360.462 390 637.532> 396 122<38.0215 355.251>
AnchorPoint: "bot_acc" 306 -145 basechar 0
AnchorPoint: "dotbelow" 306 -145 basechar 0
AnchorPoint: "ogon_acc" 492 -145 basechar 0
AnchorPoint: "top_accu" 156 865 basechar 0
AnchorPoint: "dotabove" 358 599 basechar 0
LayerCount: 2
Fore
SplineSet
24 -3 m 1
 24 34 l 1
 59 36 l 2
 90 38 95 46 95 100 c 2
 95 568 l 2
 95 627 92 636 69 638 c 2
 24 641 l 1
 24 677 l 1
 78 684 111 690 137 698 c 2
 209 720 l 1
 217 714 l 1
 217 390 l 1
 297 452 l 2
 313 465 337 471 367 471 c 0
 416 471 457 456 483 429 c 0
 509 401 518 363 518 286 c 2
 518 100 l 2
 518 46 523 38 554 36 c 2
 587 34 l 1
 587 -3 l 1
 553 -1 520 0 486 0 c 0
 456 0 426 -1 396 -3 c 1
 396 269 l 2
 396 350 368 385 302 385 c 0
 258 385 217 352 217 317 c 2
 217 100 l 2
 217 46 222 38 253 36 c 2
 288 34 l 1
 288 -3 l 1
 243 -1 198 0 153 0 c 0
 110 0 67 -1 24 -3 c 1
EndSplineSet
Validated: 1
AlternateSubs2: "'aalt' Access All Alternates lookup 0 subtable" h.sc
AlternateSubs2: "'aalt' Access All Alternates in Latin lookup 0 subtable" h.sc
Substitution2: "'smcp' Lowercase to Small Capitals in Latin lookup 2 subtable" h.sc
EndChar

StartChar: k
Encoding: 107 107 83
Width: 611
VWidth: 0
GlyphClass: 2
Flags: W
TeX: 720 0
HStem: 0 34<29 64 258 293 557.686 597> 421 38<486.005 565> 641 36<21 74> 700 20G<148.545 222>
VStem: 100 122<38.0215 226 249 637.582>
AnchorPoint: "bot_acc" 309 -145 basechar 0
AnchorPoint: "dotbelow" 309 -145 basechar 0
AnchorPoint: "ogon_acc" 511 -145 basechar 0
AnchorPoint: "top_accu" 161 865 basechar 0
AnchorPoint: "dotabove" 363 599 basechar 0
LayerCount: 2
Fore
SplineSet
21 641 m 1
 21 677 l 1
 79 683 113 689 142 698 c 2
 214 720 l 1
 222 714 l 1
 222 249 l 1
 278 297 305 322 328 346 c 2
 435 459 l 1
 565 459 l 1
 565 421 l 1
 534 421 l 2
 519 421 502 415 486 403 c 0
 423 357 346 286 346 286 c 1
 542 66 l 2
 560 46 576 36 597 34 c 1
 597 0 l 1
 425 0 l 1
 322 126 358 83 232 226 c 1
 222 226 l 1
 222 100 l 2
 222 46 227 38 258 36 c 2
 293 34 l 1
 293 -3 l 1
 248 -1 203 0 158 0 c 0
 115 0 72 -1 29 -3 c 1
 29 34 l 1
 64 36 l 2
 95 38 100 46 100 100 c 2
 100 568 l 2
 100 627 96 637 74 638 c 2
 21 641 l 1
EndSplineSet
Validated: 1
AlternateSubs2: "'aalt' Access All Alternates lookup 0 subtable" k.sc
AlternateSubs2: "'aalt' Access All Alternates in Latin lookup 0 subtable" k.sc
Substitution2: "'smcp' Lowercase to Small Capitals in Latin lookup 2 subtable" k.sc
EndChar

StartChar: l
Encoding: 108 108 84
Width: 333
VWidth: 0
GlyphClass: 2
Flags: W
TeX: 720 0
HStem: -3 37<32 67 261 296> 641 36<24 77> 700 20G<151.545 225>
VStem: 103 122<38.0215 637.582>
AnchorPoint: "bot_acc" 160 -145 basechar 0
AnchorPoint: "dotbelow" 160 -145 basechar 0
AnchorPoint: "ogon_acc" 160 -145 basechar 0
AnchorPoint: "top_accu" 164 865 basechar 0
AnchorPoint: "dotabove" 164 865 basechar 0
AnchorPoint: "ccmped" 349 603 basechar 0
LayerCount: 2
Fore
SplineSet
24 641 m 1
 24 677 l 1
 82 683 116 689 145 698 c 2
 217 720 l 1
 225 714 l 1
 225 100 l 2
 225 46 230 38 261 36 c 2
 296 34 l 1
 296 -3 l 1
 251 -1 206 0 161 0 c 0
 118 0 75 -1 32 -3 c 1
 32 34 l 1
 67 36 l 2
 98 38 103 46 103 100 c 2
 103 568 l 2
 103 627 99 637 77 638 c 2
 24 641 l 1
EndSplineSet
Validated: 1
AlternateSubs2: "'aalt' Access All Alternates lookup 0 subtable" l.sc
AlternateSubs2: "'aalt' Access All Alternates in Latin lookup 0 subtable" l.sc
Substitution2: "'smcp' Lowercase to Small Capitals in Latin lookup 2 subtable" l.sc
EndChar

StartChar: m
Encoding: 109 109 85
Width: 889
VWidth: 0
GlyphClass: 2
Flags: W
TeX: 454 0
HStem: -3 37<24 59 253 280 317 348 542 577 831 864> 385 86<293.749 402.5 576.938 705.5> 392 36<24 69>
VStem: 95 122<38.0215 359.452> 384 122<38.0215 356.25> 673 122<38.0215 354.317>
CounterMasks: 1 1c
AnchorPoint: "bot_acc" 444 -145 basechar 0
AnchorPoint: "dotbelow" 444 -145 basechar 0
AnchorPoint: "ogon_acc" 769 -145 basechar 0
AnchorPoint: "top_accl" 444 599 basechar 0
AnchorPoint: "dotabove" 444 599 basechar 0
LayerCount: 2
Fore
SplineSet
24 -3 m 1xdc
 24 34 l 1
 59 36 l 2
 90 38 95 46 95 100 c 2
 95 319 l 2
 95 378 92 387 69 389 c 2
 24 392 l 1
 24 428 l 1xbc
 79 431 107 437 211 471 c 1
 217 465 l 1
 217 390 l 1
 297 452 l 2
 314 465 336 471 368 471 c 0
 437 471 477 447 500 390 c 1
 580 452 l 2
 597 465 619 471 652 471 c 0
 759 471 795 424 795 286 c 2
 795 100 l 2
 795 46 800 38 831 36 c 2
 864 34 l 1
 864 -3 l 1
 831 -1 799 0 766 0 c 0
 735 0 704 -1 673 -3 c 1
 673 269 l 2
 673 347 645 385 587 385 c 0
 547 385 506 350 506 317 c 2
 506 100 l 2
 506 46 511 38 542 36 c 2
 577 34 l 1
 577 -3 l 1
 533 -1 490 0 446 0 c 0
 403 0 360 -1 317 -3 c 1
 317 34 l 1
 348 36 l 2
 380 38 384 46 384 100 c 2
 384 269 l 2
 384 347 356 385 298 385 c 0
 258 385 217 350 217 317 c 2
 217 100 l 2
 217 46 221 38 253 36 c 2
 280 34 l 1
 280 -3 l 1
 238 -1 195 0 153 0 c 0
 110 0 67 -1 24 -3 c 1xdc
EndSplineSet
Validated: 1
AlternateSubs2: "'aalt' Access All Alternates lookup 0 subtable" m.sc
AlternateSubs2: "'aalt' Access All Alternates in Latin lookup 0 subtable" m.sc
Substitution2: "'smcp' Lowercase to Small Capitals in Latin lookup 2 subtable" m.sc
EndChar

StartChar: n
Encoding: 110 110 86
Width: 611
VWidth: 0
GlyphClass: 2
Flags: W
TeX: 454 0
HStem: -3 37<24 59 253 288 554 587> 385 86<293.522 391.821> 392 36<24 69>
VStem: 95 122<38.0215 359.452> 396 122<38.0215 355.251>
AnchorPoint: "bot_acc" 307 -145 basechar 0
AnchorPoint: "dotbelow" 307 -145 basechar 0
AnchorPoint: "ogon_acc" 492 -145 basechar 0
AnchorPoint: "top_accl" 307 599 basechar 0
AnchorPoint: "dotabove" 307 599 basechar 0
LayerCount: 2
Fore
SplineSet
24 -3 m 1xd8
 24 34 l 1
 59 36 l 2
 90 38 95 46 95 100 c 2
 95 319 l 2
 95 378 92 387 69 389 c 2
 24 392 l 1
 24 428 l 1xb8
 79 431 107 437 211 471 c 1
 217 465 l 1
 217 390 l 1
 297 452 l 2
 313 465 337 471 367 471 c 0
 416 471 457 456 483 429 c 0
 509 401 518 363 518 286 c 2
 518 100 l 2
 518 46 523 38 554 36 c 2
 587 34 l 1
 587 -3 l 1
 553 -1 520 0 486 0 c 0
 456 0 426 -1 396 -3 c 1
 396 270 l 2
 396 350 368 385 302 385 c 0
 258 385 217 352 217 317 c 2
 217 100 l 2
 217 46 222 38 253 36 c 2
 288 34 l 1
 288 -3 l 1
 243 -1 198 0 153 0 c 0
 110 0 67 -1 24 -3 c 1xd8
EndSplineSet
Validated: 1
AlternateSubs2: "'aalt' Access All Alternates lookup 0 subtable" n.sc
AlternateSubs2: "'aalt' Access All Alternates in Latin lookup 0 subtable" n.sc
Substitution2: "'smcp' Lowercase to Small Capitals in Latin lookup 2 subtable" n.sc
EndChar

StartChar: o
Encoding: 111 111 87
Width: 556
VWidth: 0
GlyphClass: 2
Flags: W
TeX: 454 0
HStem: -17 48<227.855 343.283> 423 48<216.518 329.18>
VStem: 40 136<104.446 341.567> 381 136<115.494 351.804>
AnchorPoint: "bot_acc" 277 -145 basechar 0
AnchorPoint: "dotbelow" 277 -145 basechar 0
AnchorPoint: "ogon_acc" 277 -145 basechar 0
AnchorPoint: "top_accl" 277 599 basechar 0
AnchorPoint: "dotabove" 277 599 basechar 0
LayerCount: 2
Fore
SplineSet
40 224 m 0
 40 383 128 471 287 471 c 0
 435 471 517 388 517 236 c 0
 517 74 427 -17 267 -17 c 0
 122 -17 40 70 40 224 c 0
176 248 m 0
 176 104 213 31 285 31 c 0
 353 31 381 83 381 205 c 0
 381 352 347 423 275 423 c 0
 206 423 176 369 176 248 c 0
EndSplineSet
Validated: 1
AlternateSubs2: "'aalt' Access All Alternates lookup 0 subtable" o.sc
AlternateSubs2: "'aalt' Access All Alternates in Latin lookup 0 subtable" o.sc
Substitution2: "'smcp' Lowercase to Small Capitals in Latin lookup 2 subtable" o.sc
EndChar

StartChar: p
Encoding: 112 112 88
Width: 611
VWidth: 0
GlyphClass: 2
Flags: W
TeX: 454 -258
HStem: -258 37<29 64 226.63 303> -17 68<254.054 377.363> 381 90<308.457 438> 392 36<29 40>
VStem: 100 122<-216.979 0 81.375 354.547> 441 126<198.07 320.737>
AnchorPoint: "bot_acc" 298 -403 basechar 0
AnchorPoint: "dotbelow" 410 -145 basechar 0
AnchorPoint: "ogon_acc" 166 -403 basechar 0
AnchorPoint: "top_accl" 298 599 basechar 0
AnchorPoint: "dotabove" 298 599 basechar 0
LayerCount: 2
Fore
SplineSet
29 -221 m 1xec
 64 -219 l 2
 95 -217 100 -209 100 -155 c 2
 100 319 l 2
 100 378 97 387 74 389 c 2
 29 392 l 1
 29 428 l 1xdc
 40 429 l 2
 91 434 108 438 142 449 c 2
 212 471 l 1
 222 465 l 1
 222 383 l 1
 283 432 l 2
 318 460 347 471 386 471 c 0
 490 471 567 392 567 286 c 0
 567 196 531 118 465 68 c 0
 460 64 454 59 448 55 c 0
 380 1 345 -17 311 -17 c 0
 287 -17 271 -14 222 0 c 1
 222 -155 l 2
 222 -209 227 -218 258 -219 c 2
 303 -221 l 1
 303 -258 l 1
 255 -256 206 -255 158 -255 c 0
 115 -255 72 -256 29 -258 c 1
 29 -221 l 1xec
222 106 m 1
 249 68 281 51 323 51 c 0
 396 51 441 117 441 221 c 0
 441 321 395 381 318 381 c 0xec
 277 381 244 364 222 331 c 1
 222 106 l 1
EndSplineSet
Validated: 1
AlternateSubs2: "'aalt' Access All Alternates lookup 0 subtable" p.sc
AlternateSubs2: "'aalt' Access All Alternates in Latin lookup 0 subtable" p.sc
Substitution2: "'smcp' Lowercase to Small Capitals in Latin lookup 2 subtable" p.sc
EndChar

StartChar: q
Encoding: 113 113 89
Width: 611
VWidth: 0
GlyphClass: 2
Flags: W
TeX: 454 -258
HStem: -258 37<325 360 554 589> -17 95<233.887 307.113> 407 64<243.109 353.422>
VStem: 52 126<144.434 321.325> 396 122<-216.979 75 111.062 367.381>
AnchorPoint: "bot_acc" 321 -403 basechar 0
AnchorPoint: "dotbelow" 218 -145 basechar 0
AnchorPoint: "ogon_acc" 457 -403 basechar 0
AnchorPoint: "top_accl" 321 599 basechar 0
AnchorPoint: "dotabove" 321 599 basechar 0
LayerCount: 2
Fore
SplineSet
52 212 m 0
 52 311 82 362 169 411 c 0
 249 456 288 471 323 471 c 0
 353 471 396 458 439 437 c 2
 461 426 l 1
 513 468 l 1
 534 454 l 1
 522 395 518 362 518 324 c 2
 518 -155 l 2
 518 -209 523 -217 554 -219 c 2
 589 -221 l 1
 589 -258 l 1
 544 -256 499 -255 454 -255 c 0
 411 -255 368 -256 325 -258 c 1
 325 -221 l 1
 360 -219 l 2
 391 -217 396 -209 396 -155 c 2
 396 75 l 1
 300 -2 l 2
 288 -12 267 -17 240 -17 c 0
 124 -17 52 71 52 212 c 0
178 255 m 0
 178 147 223 78 294 78 c 0
 349 78 396 115 396 160 c 2
 396 344 l 1
 363 387 327 407 284 407 c 0
 213 407 178 356 178 255 c 0
EndSplineSet
Validated: 1
AlternateSubs2: "'aalt' Access All Alternates lookup 0 subtable" q.sc
AlternateSubs2: "'aalt' Access All Alternates in Latin lookup 0 subtable" q.sc
Substitution2: "'smcp' Lowercase to Small Capitals in Latin lookup 2 subtable" q.sc
EndChar

StartChar: r
Encoding: 114 114 90
Width: 389
VWidth: 0
GlyphClass: 2
Flags: W
TeX: 454 0
HStem: -3 37<30 65 228.147 310> 362 109<299.299 359> 392 36<30 75>
VStem: 101 122<39.3025 338.116 370 388.532>
AnchorPoint: "bot_acc" 223 -145 basechar 0
AnchorPoint: "dotbelow" 223 -145 basechar 0
AnchorPoint: "ogon_acc" 170 -145 basechar 0
AnchorPoint: "top_accl" 223 599 basechar 0
AnchorPoint: "dotabove" 223 599 basechar 0
LayerCount: 2
Fore
SplineSet
30 -3 m 1xd0
 30 34 l 1
 65 36 l 2
 96 38 101 46 101 100 c 2
 101 319 l 2
 101 378 98 387 75 389 c 2
 30 392 l 1
 30 428 l 1xb0
 93 436 111 439 143 449 c 2
 213 471 l 1
 223 465 l 1
 223 370 l 1
 267 418 l 2
 305 459 324 471 352 471 c 0
 366 471 379 469 389 465 c 1
 384 336 l 1
 360 326 l 1
 346 350 328 362 303 362 c 0
 264 362 223 329 223 298 c 2
 223 100 l 2
 223 44 228 38 271 36 c 2
 310 34 l 1
 310 -3 l 1
 260 -1 209 0 159 0 c 0
 116 0 73 -1 30 -3 c 1xd0
EndSplineSet
Validated: 1
AlternateSubs2: "'aalt' Access All Alternates lookup 0 subtable" r.sc
AlternateSubs2: "'aalt' Access All Alternates in Latin lookup 0 subtable" r.sc
Substitution2: "'smcp' Lowercase to Small Capitals in Latin lookup 2 subtable" r.sc
EndChar

StartChar: s
Encoding: 115 115 91
Width: 444
VWidth: 0
GlyphClass: 2
Flags: W
TeX: 454 0
HStem: -17 48<123.235 269.858> 423 48<160.733 303.282>
VStem: 39 102<282.769 397.221> 46 39<83 152> 294 111<72.9191 191> 326 36<326 366.6>
AnchorPoint: "bot_acc" 221 -145 basechar 0
AnchorPoint: "dotbelow" 221 -145 basechar 0
AnchorPoint: "ogon_acc" 221 -145 basechar 0
AnchorPoint: "top_accl" 221 599 basechar 0
AnchorPoint: "dotabove" 221 599 basechar 0
LayerCount: 2
Fore
SplineSet
39 11 m 1xe8
 46 152 l 1
 85 152 l 1
 90 83 l 1
 121 46 155 31 202 31 c 0
 259 31 294 61 294 108 c 0xd8
 294 143 277 160 231 171 c 2
 145 192 l 2
 75 209 39 251 39 317 c 0
 39 417 112 471 247 471 c 0
 300 471 331 465 370 448 c 1
 362 326 l 1
 326 326 l 1xe4
 316 384 l 2
 313 404 270 423 229 423 c 0
 174 423 141 398 141 358 c 0
 141 326 157 311 196 302 c 2
 278 284 l 2
 368 264 405 227 405 155 c 0
 405 52 320 -17 194 -17 c 0
 141 -17 97 -9 39 11 c 1xe8
EndSplineSet
Validated: 1
AlternateSubs2: "'aalt' Access All Alternates lookup 0 subtable" s.sc
AlternateSubs2: "'aalt' Access All Alternates in Latin lookup 0 subtable" s.sc
Substitution2: "'smcp' Lowercase to Small Capitals in Latin lookup 2 subtable" s.sc
EndChar

StartChar: t
Encoding: 116 116 92
Width: 333
VWidth: 0
GlyphClass: 2
Flags: W
TeX: 632 0
HStem: -17 83<166.5 276.146> 369 59<208 314>
VStem: 86 122<75.4426 369 430 579.541>
AnchorPoint: "bot_acc" 173 -145 basechar 0
AnchorPoint: "dotbelow" 173 -145 basechar 0
AnchorPoint: "ogon_acc" 243 -145 basechar 0
AnchorPoint: "top_accl" 152 777 basechar 0
AnchorPoint: "dotabove" 152 777 basechar 0
AnchorPoint: "ccmped" 344 603 basechar 0
LayerCount: 2
Fore
SplineSet
22 365 m 1
 22 387 l 1
 88 430 l 1
 88 490 l 2
 88 511 87 529 84 582 c 1
 135 601 166 613 206 632 c 1
 220 622 l 1
 211 572 208 539 208 486 c 2
 208 428 l 1
 246 428 284 430 322 434 c 1
 314 369 l 1
 208 369 l 1
 208 131 l 2
 208 82 223 66 270 66 c 0
 286 66 295 69 316 79 c 1
 324 60 l 1
 275 1 l 2
 266 -10 241 -17 210 -17 c 0
 123 -17 86 21 86 110 c 2
 86 369 l 1
 22 365 l 1
EndSplineSet
Validated: 1
AlternateSubs2: "'aalt' Access All Alternates lookup 0 subtable" t.sc
AlternateSubs2: "'aalt' Access All Alternates in Latin lookup 0 subtable" t.sc
Substitution2: "'smcp' Lowercase to Small Capitals in Latin lookup 2 subtable" t.sc
EndChar

StartChar: u
Encoding: 117 117 93
Width: 611
VWidth: 0
GlyphClass: 2
Flags: W
TeX: 454 0
HStem: -17 90<242.22 313.777> -3 37<550 583> 392 36<25 70 321 366> 451 20G<144.364 218 440.364 514>
VStem: 96 122<100.091 388.532> 392 122<105.629 388.532>
AnchorPoint: "bot_acc" 305 -145 basechar 0
AnchorPoint: "dotbelow" 305 -145 basechar 0
AnchorPoint: "ogon_acc" 450 -145 basechar 0
AnchorPoint: "top_accl" 305 599 basechar 0
AnchorPoint: "dotabove" 305 599 basechar 0
LayerCount: 2
Fore
SplineSet
25 392 m 1xbc
 25 428 l 1
 88 436 105 439 138 449 c 2
 208 471 l 1
 218 465 l 1
 218 204 l 2
 218 108 239 73 296 73 c 0xbc
 349 73 392 113 392 163 c 2
 392 319 l 2
 392 378 389 387 366 389 c 2
 321 392 l 1
 321 428 l 1
 383 436 401 439 434 449 c 2
 504 471 l 1
 514 465 l 1
 514 100 l 2
 514 46 518 38 550 36 c 2
 583 34 l 1
 583 -3 l 1
 549 -1 516 0 482 0 c 0
 450 0 419 -1 387 -3 c 1x7c
 392 80 l 1
 316 6 l 2
 301 -9 276 -17 247 -17 c 0
 150 -17 96 39 96 140 c 2
 96 319 l 2
 96 378 93 387 70 389 c 2
 25 392 l 1xbc
EndSplineSet
Validated: 1
AlternateSubs2: "'aalt' Access All Alternates lookup 0 subtable" u.sc
AlternateSubs2: "'aalt' Access All Alternates in Latin lookup 0 subtable" u.sc
Substitution2: "'smcp' Lowercase to Small Capitals in Latin lookup 2 subtable" u.sc
EndChar

StartChar: v
Encoding: 118 118 94
Width: 556
VWidth: 0
GlyphClass: 2
Flags: W
TeX: 454 0
HStem: -3 21G<219.056 321> 421 38<11 36 206.006 270 352 390 515 545>
AnchorPoint: "bot_acc" 278 -145 basechar 0
AnchorPoint: "dotbelow" 278 -145 basechar 0
AnchorPoint: "ogon_acc" 278 -145 basechar 0
AnchorPoint: "top_accl" 278 599 basechar 0
AnchorPoint: "dotabove" 278 599 basechar 0
LayerCount: 2
Fore
SplineSet
11 421 m 1
 11 459 l 1
 54 457 98 456 141 456 c 0
 184 456 227 457 270 459 c 1
 270 421 l 1
 229 419 l 2
 214 418 206 412 206 402 c 0
 206 391 210 376 220 351 c 2
 308 130 l 1
 343 210 l 1
 404 361 l 2
 410 376 413 390 413 402 c 0
 413 411 404 418 390 419 c 2
 352 421 l 1
 352 459 l 1
 384 457 417 456 449 456 c 0
 481 456 513 457 545 459 c 1
 545 421 l 1
 515 416 l 2
 498 413 489 404 479 382 c 2
 351 94 l 2
 339 67 329 42 313 -3 c 1
 227 -3 l 1
 84 357 l 2
 67 400 53 418 36 419 c 2
 11 421 l 1
EndSplineSet
Validated: 1
AlternateSubs2: "'aalt' Access All Alternates lookup 0 subtable" v.sc
AlternateSubs2: "'aalt' Access All Alternates in Latin lookup 0 subtable" v.sc
Substitution2: "'smcp' Lowercase to Small Capitals in Latin lookup 2 subtable" v.sc
EndChar

StartChar: w
Encoding: 119 119 95
Width: 833
VWidth: 0
GlyphClass: 2
Flags: W
TeX: 454 0
HStem: -3 21G<188.427 298 533.401 623> 421 38<13 78.0904 218.461 284 618 688.451 786 820> 451 20G<414.077 481.707>
AnchorPoint: "bot_acc" 410 -145 basechar 0
AnchorPoint: "dotbelow" 410 -145 basechar 0
AnchorPoint: "ogon_acc" 583 -145 basechar 0
AnchorPoint: "top_accl" 410 599 basechar 0
AnchorPoint: "dotabove" 410 599 basechar 0
LayerCount: 2
Fore
SplineSet
13 421 m 1xc0
 13 459 l 1
 58 457 104 456 149 456 c 0
 194 456 239 457 284 459 c 1
 284 421 l 1xc0
 237 419 l 2
 226 419 218 410 218 397 c 0
 218 392 219 382 220 378 c 2
 279 151 l 1
 336 276 l 1
 423 471 l 1
 473 471 l 1xa0
 611 154 l 1
 628 200 638 227 650 266 c 2
 686 379 l 2
 687 383 689 394 689 398 c 0
 689 410 677 418 660 419 c 2
 618 421 l 1
 618 459 l 1
 652 457 685 456 719 456 c 0
 753 456 786 457 820 459 c 1
 820 421 l 1
 786 419 l 2
 772 418 762 405 750 372 c 2
 658 112 l 2
 630 32 623 -3 623 -3 c 1
 542 -3 l 1
 410 304 l 1
 334 154 323 130 273 -3 c 1
 194 -3 l 1
 87 381 l 2
 79 408 69 418 46 419 c 2
 13 421 l 1xc0
EndSplineSet
Validated: 1
AlternateSubs2: "'aalt' Access All Alternates lookup 0 subtable" w.sc
AlternateSubs2: "'aalt' Access All Alternates in Latin lookup 0 subtable" w.sc
Substitution2: "'smcp' Lowercase to Small Capitals in Latin lookup 2 subtable" w.sc
EndChar

StartChar: x
Encoding: 120 120 96
Width: 500
VWidth: 0
GlyphClass: 2
Flags: W
TeX: 454 0
HStem: -3 21G<316.166 341> 0 34<21 71.8213 443.629 483> 403 36<26.4444 42.8565> 422 37<428.313 483> 451 20G<148.5 176>
AnchorPoint: "bot_acc" 252 -145 basechar 0
AnchorPoint: "dotbelow" 252 -145 basechar 0
AnchorPoint: "ogon_acc" 406 -145 basechar 0
AnchorPoint: "top_accl" 252 599 basechar 0
AnchorPoint: "dotabove" 252 599 basechar 0
LayerCount: 2
Fore
SplineSet
20 439 m 1x60
 57 446 131 462 166 471 c 1x68
 186 455 205 432 228 394 c 2
 280 309 l 1
 388 459 l 1
 483 459 l 1
 483 422 l 1
 446 421 436 415 405 379 c 2
 308 265 l 1
 397 113 l 2
 431 55 452 37 483 34 c 1x50
 483 -3 l 1x80
 457 -1 432 0 406 0 c 0x40
 380 0 354 -1 328 -3 c 1x80
 228 166 l 1
 164 78 l 1
 112 0 l 1
 21 0 l 1
 21 34 l 1
 52 36 71 45 90 70 c 2
 200 210 l 1
 120 346 l 2
 94 390 76 404 43 404 c 0
 40 404 33 404 28 403 c 1
 20 439 l 1x60
EndSplineSet
Validated: 1
AlternateSubs2: "'aalt' Access All Alternates lookup 0 subtable" x.sc
AlternateSubs2: "'aalt' Access All Alternates in Latin lookup 0 subtable" x.sc
Substitution2: "'smcp' Lowercase to Small Capitals in Latin lookup 2 subtable" x.sc
EndChar

StartChar: y
Encoding: 121 121 97
Width: 556
VWidth: 0
GlyphClass: 2
Flags: W
TeX: 454 -266
HStem: -266 79<75.8165 174.139> 421 38<10 45 240 275 360 393 520 546>
AnchorPoint: "bot_acc" 283 -411 basechar 0
AnchorPoint: "dotbelow" 465 -145 basechar 0
AnchorPoint: "ogon_acc" 138 -411 basechar 0
AnchorPoint: "top_accl" 283 599 basechar 0
AnchorPoint: "dotabove" 283 599 basechar 0
LayerCount: 2
Fore
SplineSet
10 421 m 1
 10 459 l 1
 54 457 99 456 143 456 c 0
 187 456 231 457 275 459 c 1
 275 421 l 1
 240 419 l 2
 225 418 214 409 214 396 c 0
 214 379 225 359 231 343 c 2
 315 125 l 1
 416 377 l 2
 418 382 420 393 420 399 c 0
 420 410 409 418 393 419 c 2
 360 421 l 1
 360 459 l 1
 391 457 422 456 453 456 c 0
 484 456 515 457 546 459 c 1
 546 421 l 1
 520 416 l 2
 506 413 491 396 479 369 c 2
 280 -94 l 2
 229 -212 174 -266 104 -266 c 0
 81 -266 58 -261 31 -249 c 1
 49 -154 l 1
 60 -150 l 1
 83 -176 104 -187 130 -187 c 0
 164 -187 199 -153 222 -96 c 2
 245 -40 l 1
 87 364 l 2
 72 402 60 418 45 419 c 2
 10 421 l 1
EndSplineSet
Validated: 1
AlternateSubs2: "'aalt' Access All Alternates lookup 0 subtable" y.sc
AlternateSubs2: "'aalt' Access All Alternates in Latin lookup 0 subtable" y.sc
Substitution2: "'smcp' Lowercase to Small Capitals in Latin lookup 2 subtable" y.sc
EndChar

StartChar: z
Encoding: 122 122 98
Width: 500
VWidth: 0
GlyphClass: 2
Flags: W
TeX: 454 0
HStem: 0 55<186 404.774> 404 50<106.404 290>
VStem: 55 38<320 345> 419 45<67.1965 155>
AnchorPoint: "bot_acc" 234 -145 basechar 0
AnchorPoint: "dotbelow" 234 -145 basechar 0
AnchorPoint: "ogon_acc" 234 -145 basechar 0
AnchorPoint: "top_accl" 234 599 basechar 0
AnchorPoint: "dotabove" 234 599 basechar 0
LayerCount: 2
Fore
SplineSet
16 -3 m 1
 16 30 l 1
 120 166 l 1
 290 404 l 1
 172 404 l 2
 116 404 102 393 96 345 c 2
 93 320 l 1
 55 320 l 1
 58 454 l 1
 65 457 l 1
 144 455 222 454 301 454 c 0
 352 454 403 455 454 457 c 1
 454 424 l 1
 186 55 l 1
 349 55 l 2
 397 55 410 67 419 124 c 2
 424 155 l 1
 464 155 l 1
 457 107 452 46 452 2 c 1
 447 -3 l 1
 356 -1 265 0 174 0 c 0
 121 0 69 -1 16 -3 c 1
EndSplineSet
Validated: 1
AlternateSubs2: "'aalt' Access All Alternates lookup 0 subtable" z.sc
AlternateSubs2: "'aalt' Access All Alternates in Latin lookup 0 subtable" z.sc
Substitution2: "'smcp' Lowercase to Small Capitals in Latin lookup 2 subtable" z.sc
EndChar

StartChar: asciitilde
Encoding: 126 126 99
Width: 606
VWidth: 0
Flags: W
TeX: 329 0
HStem: 174 86<336.017 460.474> 243 86<145.526 269.983>
LayerCount: 2
Fore
SplineSet
51 216 m 1x40
 98 296 139 329 193 329 c 0x40
 221 329 240 323 302 296 c 0
 369 267 390 260 411 260 c 0
 443 260 464 277 494 326 c 1
 555 287 l 1
 508 207 467 174 413 174 c 0x80
 385 174 366 180 304 207 c 0
 237 236 216 243 195 243 c 0
 163 243 142 226 112 177 c 1
 51 216 l 1x40
EndSplineSet
Validated: 1
EndChar

StartChar: Euro
Encoding: 128 8364 100
Width: 500
VWidth: 0
Flags: W
TeX: 681 0
HStem: -17 50<279.925 423.639> 251 60<25.55 82 204 367> 365 55<30.1897 82 206 407> 610 50<276.974 423.427>
VStem: 82 119<162.738 254 309 365> 89 117<420 502.124> 448 39<58.334 159 484 584.666>
LayerCount: 2
Fore
SplineSet
7 251 m 1xfa
 28 311 l 1
 34 310 40 309 45 309 c 2
 82 309 l 1
 82 365 l 1xfa
 57 365 29 364 11 362 c 1
 32 422 l 1
 39 421 45 420 51 420 c 2
 89 420 l 1
 106 539 173 660 343 660 c 0
 390 660 463 646 502 616 c 1
 508 605 l 1
 500 576 492 524 487 484 c 1
 448 484 l 1
 445 571 l 1
 427 591 390 610 339 610 c 0
 251 610 216 515 206 420 c 1xf6
 256 420 407 420 427 422 c 1
 407 362 l 1
 387 364 247 365 202 365 c 1
 201 350 201 345 201 331 c 2
 201 309 l 1
 244 309 368 309 388 311 c 1
 367 251 l 1
 347 253 249 254 204 254 c 1
 211 153 244 33 341 33 c 0
 392 33 427 52 445 72 c 1
 448 159 l 1
 487 159 l 1
 492 119 500 65 508 36 c 1
 502 25 l 1
 463 -5 390 -17 343 -17 c 0
 161 -17 98 124 85 254 c 1
 58 254 25 253 7 251 c 1xfa
EndSplineSet
Validated: 1
EndChar

StartChar: f_i
Encoding: 129 64257 101
Width: 611
VWidth: 0
GlyphClass: 3
Flags: W
TeX: 720 0
HStem: -3 37<10 87.8679 255 290 331 366 560 595> 372 62<215 326> 391 43<333 395.689> 451 20G<450.545 524> 532 134<423.502 520.498> 634 86<248.201 337.223>
VStem: 93 122<38.7838 372 434.333 581.72> 402 122<38.0215 387.766> 405 134<550.502 647.612>
LayerCount: 2
Fore
SplineSet
10 -3 m 1xd3
 10 34 l 1
 51 36 l 2
 88 38 93 45 93 100 c 2
 93 372 l 1xd3
 14 367 l 1
 14 391 l 1xb3
 47 407 67 418 93 436 c 1
 93 479 l 2
 93 559 100 576 148 616 c 2
 222 678 l 2
 260 710 283 720 315 720 c 0
 330 720 340 718 357 714 c 1
 357 617 l 1
 341 610 l 1
 310 629 295 634 274 634 c 0
 228 634 215 613 215 542 c 2
 215 434 l 1
 326 434 l 2xd7
 373 434 411 439 444 449 c 2
 516 471 l 1
 524 471 l 1
 524 100 l 2
 524 46 529 38 560 36 c 2
 595 34 l 1
 595 -3 l 1
 550 -1 505 0 460 0 c 0
 417 0 374 -1 331 -3 c 1
 331 34 l 1
 366 36 l 2
 397 38 402 46 402 100 c 2
 402 326 l 2
 402 372 391 391 364 391 c 2
 333 391 l 1xb3
 326 372 l 1
 215 372 l 1
 215 100 l 2
 215 45 219 38 255 36 c 2
 290 34 l 1
 290 -3 l 1
 244 -1 199 0 153 0 c 0
 105 0 58 -1 10 -3 c 1xd3
405 600 m 0x9a80
 405 636 435 666 473 666 c 0
 509 666 539 635 539 599 c 0
 539 562 509 532 472 532 c 0
 435 532 405 562 405 600 c 0x9a80
EndSplineSet
Validated: 1
Ligature2: "liga_PLK subtable" f i
Ligature2: "liga_NLDb subtable" f i
Ligature2: "liga_f_i subtable" f i
EndChar

StartChar: f_l
Encoding: 130 64258 102
Width: 611
VWidth: 0
GlyphClass: 3
Flags: W
TeX: 720 0
HStem: -3 37<17 94.8679 272 297 329 364 558 593> 372 62<222 336> 634 86<255.864 335.434>
VStem: 100 122<40.6521 372 434.333 582.614> 400 122<38.0215 637.368>
LayerCount: 2
Fore
SplineSet
17 -3 m 1
 17 34 l 1
 58 36 l 2
 95 38 100 45 100 100 c 2
 100 372 l 1
 21 367 l 1
 21 391 l 1
 54 407 74 418 100 436 c 1
 100 479 l 2
 100 559 107 576 155 616 c 2
 229 678 l 2
 266 709 289 720 318 720 c 0
 328 720 347 717 347 717 c 1
 347 680 l 1
 404 688 429 692 453 700 c 2
 514 720 l 1
 522 714 l 1
 522 100 l 2
 522 46 527 38 558 36 c 2
 593 34 l 1
 593 -3 l 1
 548 -1 503 0 458 0 c 0
 415 0 372 -1 329 -3 c 1
 329 34 l 1
 364 36 l 2
 395 38 400 46 400 100 c 2
 400 568 l 2
 400 627 397 635 374 638 c 2
 347 641 l 1
 347 608 l 1
 332 604 l 1
 315 624 296 634 274 634 c 0
 238 634 222 606 222 542 c 2
 222 434 l 1
 262 434 303 435 343 438 c 1
 347 430 l 1
 336 372 l 1
 222 372 l 1
 222 100 l 2
 222 53 218 40 272 36 c 2
 297 34 l 1
 297 -3 l 1
 251 -1 206 0 160 0 c 0
 112 0 65 -1 17 -3 c 1
EndSplineSet
Validated: 33
Ligature2: "liga_f_f_l subtable" f l
EndChar

StartChar: quotedblbase
Encoding: 132 8222 103
Width: 500
VWidth: 0
GlyphClass: 3
Flags: W
TeX: 130 -160
HStem: -160 290
LayerCount: 2
Fore
SplineSet
34 -144 m 1
 69 -64 97 25 108 97 c 1
 156 103 202 114 240 130 c 1
 254 117 l 1
 224 50 171 -44 114 -133 c 1
 48 -160 l 1
 34 -144 l 1
246 -144 m 1
 281 -64 309 25 320 97 c 1
 368 103 414 114 452 130 c 1
 466 117 l 1
 436 50 383 -44 326 -133 c 1
 260 -160 l 1
 246 -144 l 1
EndSplineSet
Validated: 1
Ligature2: "'dlig' Discretionary Ligatures in Latin lookup 12 subtable" comma comma
EndChar

StartChar: dagger
Encoding: 134 8224 104
Width: 500
VWidth: 0
Flags: W
TeX: 681 0
HStem: 365 105<32 175.5 325.5 469> 373 89<52.5 196 305 448.5> 662 20G<180 208 294 321>
VStem: 178 145<-1 144.444> 196 109<227.556 373 462 555.188>
LayerCount: 2
Fore
SplineSet
29 371 m 1xa8
 30 387 l 2
 31 403 32 413 32 418 c 0
 32 423 31 433 30 449 c 2
 29 464 l 1
 32 470 l 1xa8
 196 462 l 1
 180 675 l 1
 186 682 l 1
 230 680 241 679 251 679 c 0
 261 679 272 680 316 682 c 1
 321 675 l 1
 305 462 l 1x68
 469 470 l 1
 472 464 l 1
 469 431 469 425 469 418 c 0
 469 411 469 411 472 371 c 1
 469 365 l 1xa8
 305 373 l 1x68
 323 -1 l 1
 318 -6 l 1
 251 -3 l 1
 184 -6 l 1
 178 -1 l 1x70
 196 373 l 1x68
 32 365 l 1
 29 371 l 1xa8
EndSplineSet
Validated: 1
EndChar

StartChar: daggerdbl
Encoding: 135 8225 105
Width: 500
VWidth: 0
Flags: W
TeX: 681 -250
HStem: 662 20G<187 206 281.5 313>
LayerCount: 2
Fore
SplineSet
32 36 m 1
 39 41 l 1
 203 31 l 1
 189 220 l 1
 203 403 l 1
 39 394 l 1
 32 399 l 1
 33 407 l 1
 34 418 l 2
 34 423 34 431 35 442 c 2
 35 447 l 1
 32 489 l 1
 39 494 l 1
 203 484 l 1
 187 677 l 1
 195 682 l 1
 206 681 l 1
 249 679 l 2
 258 679 258 679 305 682 c 1
 313 677 l 1
 297 484 l 1
 461 494 l 1
 468 489 l 1
 467 477 l 1
 466 462 l 2
 465 451 465 444 465 444 c 1
 468 399 l 1
 461 394 l 1
 297 403 l 1
 311 220 l 1
 297 31 l 1
 461 41 l 1
 468 36 l 1
 466 15 464 0 465 -9 c 2
 468 -54 l 1
 461 -59 l 1
 297 -50 l 1
 313 -240 l 1
 305 -245 l 1
 258 -242 258 -242 250 -242 c 0
 242 -242 242 -242 195 -245 c 1
 187 -240 l 1
 203 -50 l 1
 39 -59 l 1
 32 -54 l 1
 33 -42 l 2
 34 -27 35 -14 35 -10 c 2
 35 -8 l 1
 32 36 l 1
EndSplineSet
Validated: 33
EndChar

StartChar: OE
Encoding: 141 338 106
Width: 1000
VWidth: 0
Flags: W
TeX: 681 0
HStem: -17 56<322.864 507.813> -1 59<673 918.548> 328 50<674.305 858.632> 436 20G<866.895 909> 624 58<673 916.063> 639 56<305.276 493.656>
VStem: 43 150<200.843 487.411> 532 141<62.6276 326.45 378.488 607.324> 869 40<241 291 399 456> 924 36<529 594.625> 946 39<137.391 166>
LayerCount: 2
Fore
SplineSet
43 344 m 0xb3a0
 43 456 73 542 132 601 c 0
 193 662 289 695 409 695 c 0xb7a0
 437 695 460 693 516 686 c 0
 566 679 585 677 632 678 c 2
 819 681 l 2
 838 681 858 682 874 682 c 0
 912 682 931 681 968 678 c 1
 974 671 l 1
 960 529 l 1
 924 529 l 1x3bc0
 916 604 l 2
 915 615 872 624 818 624 c 0
 763 624 729 623 673 620 c 1
 673 380 l 1
 693 378 707 378 740 378 c 2
 806 378 l 2
 848 378 861 383 863 399 c 2
 869 456 l 1
 909 456 l 1
 907 420 906 385 906 349 c 0
 906 313 907 277 909 241 c 1
 869 241 l 1
 863 291 l 2
 860 317 844 328 806 328 c 2
 740 328 l 2
 718 328 701 327 673 325 c 1
 673 58 l 1
 804 55 l 2
 860 55 889 59 920 69 c 0
 922 70 923 72 923 72 c 1
 946 166 l 1
 985 166 l 1
 974 8 l 1
 969 0 l 1
 911 -3 880 -4 828 -4 c 2
 667 -1 l 1x7ba0
 601 0 l 2
 550 1 529 -2 481 -9 c 0
 443 -15 420 -17 394 -17 c 0
 175 -17 43 119 43 344 c 0xb3a0
193 357 m 0
 193 155 274 39 414 39 c 0
 462 39 491 48 532 75 c 1
 532 594 l 1
 481 629 451 639 403 639 c 0
 264 639 193 544 193 357 c 0
EndSplineSet
Validated: 33
AlternateSubs2: "'aalt' Access All Alternates lookup 0 subtable" oe.sc
AlternateSubs2: "'aalt' Access All Alternates in Latin lookup 0 subtable" oe.sc
Substitution2: "'c2sc' Capitals to Small Capitals in Latin lookup 13 subtable" oe.sc
Position2: "'cpsp' Capital Spacing in Latin lookup 12 subtable" dx=7 dy=0 dh=14 dv=0
EndChar

StartChar: quoteleft
Encoding: 145 8216 107
Width: 278
VWidth: 0
Flags: W
TeX: 681 0
HStem: 405 290
VStem: 29 220
LayerCount: 2
Fore
SplineSet
29 418 m 1
 59 485 113 581 169 668 c 1
 235 695 l 1
 249 679 l 1
 214 600 186 510 175 438 c 1
 126 432 82 421 43 405 c 1
 29 418 l 1
EndSplineSet
Validated: 1
EndChar

StartChar: quoteright
Encoding: 146 8217 108
Width: 278
VWidth: 0
Flags: W
TeX: 681 0
HStem: 405 290
VStem: 29 220
LayerCount: 2
Fore
SplineSet
29 421 m 1
 64 500 92 590 103 662 c 1
 151 668 197 679 235 695 c 1
 249 682 l 1
 219 615 166 521 109 432 c 1
 43 405 l 1
 29 421 l 1
EndSplineSet
Validated: 1
EndChar

StartChar: quotedblleft
Encoding: 147 8220 109
Width: 500
VWidth: 0
GlyphClass: 3
Flags: W
TeX: 681 0
HStem: 405 290
LayerCount: 2
Fore
SplineSet
34 418 m 1
 64 485 118 581 174 668 c 1
 240 695 l 1
 254 679 l 1
 219 600 191 510 180 438 c 1
 131 432 87 421 48 405 c 1
 34 418 l 1
246 418 m 1
 276 485 330 581 386 668 c 1
 452 695 l 1
 466 679 l 1
 431 600 403 510 392 438 c 1
 343 432 299 421 260 405 c 1
 246 418 l 1
EndSplineSet
Validated: 1
Ligature2: "'dlig' Discretionary Ligatures in Latin lookup 12 subtable" quoteleft quoteleft
EndChar

StartChar: quotedblright
Encoding: 148 8221 110
Width: 500
VWidth: 0
GlyphClass: 3
Flags: W
TeX: 681 0
HStem: 405 290
LayerCount: 2
Fore
SplineSet
34 421 m 1
 69 500 97 590 108 662 c 1
 156 668 202 679 240 695 c 1
 254 682 l 1
 224 615 171 521 114 432 c 1
 48 405 l 1
 34 421 l 1
246 421 m 1
 281 500 309 590 320 662 c 1
 368 668 414 679 452 695 c 1
 466 682 l 1
 436 615 383 521 326 432 c 1
 260 405 l 1
 246 421 l 1
EndSplineSet
Validated: 1
Ligature2: "'dlig' Discretionary Ligatures in Latin lookup 12 subtable" quoteright quoteright
EndChar

StartChar: endash
Encoding: 150 8211 111
Width: 500
VWidth: 0
GlyphClass: 3
Flags: W
TeX: 291 0
HStem: 208 83<0 500>
LayerCount: 2
Fore
SplineSet
0 208 m 1
 0 291 l 1
 500 291 l 1
 500 208 l 1
 0 208 l 1
EndSplineSet
Validated: 1
Ligature2: "'dlig' Discretionary Ligatures in Latin lookup 12 subtable" hyphen hyphen
EndChar

StartChar: emdash
Encoding: 151 8212 112
Width: 1000
VWidth: 0
GlyphClass: 3
Flags: W
TeX: 291 0
HStem: 208 83<0 1000>
LayerCount: 2
Fore
SplineSet
0 208 m 1
 0 291 l 1
 1000 291 l 1
 1000 208 l 1
 0 208 l 1
EndSplineSet
Validated: 1
Ligature2: "'dlig' Discretionary Ligatures in Latin lookup 12 subtable" hyphen hyphen hyphen hyphen
EndChar

StartChar: oe
Encoding: 157 339 113
Width: 833
VWidth: 0
Flags: W
TeX: 454 0
HStem: -17 71<583.899 722.015> -17 48<237.821 350.823> 223 53<510 671.948> 415 56<534.515 641.877> 423 48<224.818 339.538>
VStem: 48 136<104.84 341.971> 389 121<130.523 223 276 357.95> 672 127<276 382.347>
LayerCount: 2
Fore
SplineSet
48 225 m 0x67
 48 384 136 471 296 471 c 0x6f
 368 471 412 456 462 414 c 1
 518 455 561 471 616 471 c 0
 725 471 799 400 799 295 c 2
 799 243 l 1
 743 229 698 223 641 223 c 2
 510 223 l 1
 512 176 518 153 534 125 c 0
 559 82 608 54 659 54 c 0
 700 54 730 63 777 89 c 1
 789 74 l 1
 767 26 l 1
 704 -7 666 -17 611 -17 c 0xb7
 539 -17 491 2 448 47 c 1
 398 1 347 -17 272 -17 c 0
 130 -17 48 71 48 225 c 0x67
184 248 m 0
 184 104 221 31 293 31 c 0
 361 31 389 83 389 205 c 0
 389 352 355 423 283 423 c 0
 214 423 184 369 184 248 c 0
504 276 m 1
 536 275 l 1
 584 273 l 1
 588 273 l 1
 672 276 l 1
 670 375 646 415 589 415 c 0x37
 531 415 507 375 504 276 c 1
EndSplineSet
Validated: 1
AlternateSubs2: "'aalt' Access All Alternates lookup 0 subtable" oe.sc
AlternateSubs2: "'aalt' Access All Alternates in Latin lookup 0 subtable" oe.sc
Substitution2: "'smcp' Lowercase to Small Capitals in Latin lookup 2 subtable" oe.sc
EndChar

StartChar: Lslash
Encoding: 163 321 114
Width: 611
VWidth: 0
GlyphClass: 2
Flags: W
TeX: 681 0
HStem: 0 58<265 516.797> 641 40<39 76 313 350>
VStem: 124 141<58 282 328 391 438 634.371> 538 39<142.957 174>
AnchorPoint: "bot_acc" 308 -145 basechar 0
AnchorPoint: "dotbelow" 308 -145 basechar 0
AnchorPoint: "ogon_acc" 469 -145 basechar 0
AnchorPoint: "top_accu" 195 809 basechar 0
AnchorPoint: "dotabove" 195 809 basechar 0
LayerCount: 2
Fore
SplineSet
39 641 m 1
 39 681 l 1
 91 679 142 678 194 678 c 0
 246 678 298 679 350 681 c 1
 350 641 l 1
 313 638 l 2
 266 634 265 632 265 543 c 2
 265 438 l 1
 376 532 l 1
 394 501 l 1
 265 391 l 1
 265 58 l 1
 418 55 l 2
 461 55 513 64 515 72 c 2
 538 174 l 1
 577 174 l 1
 566 8 l 1
 561 0 l 1
 504 -3 476 -3 421 -3 c 0
 346 -3 270 0 195 0 c 0
 154 0 113 -1 72 -3 c 1
 72 20 l 1
 104 38 l 2
 119 46 124 61 124 95 c 2
 124 282 l 1
 58 226 l 1
 40 257 l 1
 124 328 l 1
 124 543 l 2
 124 632 123 634 76 638 c 2
 39 641 l 1
EndSplineSet
Validated: 1
AlternateSubs2: "'aalt' Access All Alternates lookup 0 subtable" lslash.sc
AlternateSubs2: "'aalt' Access All Alternates in Latin lookup 0 subtable" lslash.sc
Substitution2: "'c2sc' Capitals to Small Capitals in Latin lookup 13 subtable" lslash.sc
Position2: "'cpsp' Capital Spacing in Latin lookup 12 subtable" dx=7 dy=0 dh=14 dv=0
EndChar

StartChar: currency
Encoding: 164 164 115
Width: 500
VWidth: 0
Flags: W
TeX: 533 0
HStem: 102 76<178.478 322.181> 447 77<177.789 322.728>
VStem: 39 77<239.779 384.251> 384 77<240.479 385.878>
LayerCount: 2
Fore
SplineSet
32 141 m 1
 81 190 l 1
 51 228 39 262 39 313 c 0
 39 365 51 401 81 435 c 1
 32 484 l 1
 79 531 l 1
 127 483 l 1
 164 511 204 524 251 524 c 0
 297 524 334 512 371 484 c 1
 419 533 l 1
 468 484 l 1
 422 436 l 1
 449 401 461 363 461 314 c 0
 461 265 449 228 421 189 c 1
 467 141 l 1
 422 96 l 1
 375 145 l 1
 338 115 302 102 250 102 c 0
 199 102 162 114 125 144 c 1
 77 96 l 1
 32 141 l 1
116 312 m 0
 116 239 177 178 251 178 c 0
 324 178 384 239 384 314 c 0
 384 388 324 447 249 447 c 0
 177 447 116 385 116 312 c 0
EndSplineSet
Validated: 1
EndChar

StartChar: Aogonek
Encoding: 165 260 116
Width: 778
VWidth: 0
GlyphClass: 3
Flags: W
TeX: 681 -250
HStem: -250 66<591.338 712.426> -3 37<24 54 200 250 447 500 733 757> 206 56<242 446> 666 20G<340.45 427.562>
VStem: 534 78<-178.026 -69.2895>
AnchorPoint: "bot_acc" 646 -378 basechar 0
AnchorPoint: "dotbelow" 646 -378 basechar 0
AnchorPoint: "ogon_acc" 646 -378 basechar 0
AnchorPoint: "top_accu" 391 809 basechar 0
AnchorPoint: "dotabove" 391 809 basechar 0
LayerCount: 2
Fore
SplineSet
24 -3 m 1
 24 34 l 1
 54 37 l 2
 76 39 94 58 110 97 c 2
 291 535 l 1
 348 686 l 1
 419 686 l 1
 678 81 l 2
 691 52 705 41 733 37 c 2
 757 34 l 1
 757 -3 l 1
 710 -1 l 2
 680 -1 656 -23 639 -48 c 0
 623 -71 612 -97 612 -124 c 0
 612 -151 620 -184 654 -184 c 0
 679 -184 706 -183 715 -161 c 2
 727 -131 l 1
 757 -138 l 1
 757 -197 l 1
 704 -234 l 2
 681 -250 649 -250 620 -250 c 0
 563 -250 534 -201 534 -149 c 0
 534 -74 580 -30 628 0 c 1
 599 0 l 1
 447 -3 l 1
 447 34 l 1
 500 37 l 2
 527 39 520 76 514 92 c 2
 469 206 l 1
 218 206 l 1
 176 94 l 2
 168 72 169 39 200 37 c 2
 250 34 l 1
 250 -3 l 1
 212 -1 175 0 137 0 c 0
 99 0 62 -1 24 -3 c 1
242 262 m 1
 446 262 l 1
 342 516 l 1
 242 262 l 1
EndSplineSet
Validated: 33
AlternateSubs2: "'aalt' Access All Alternates lookup 0 subtable" aogonek.sc
AlternateSubs2: "'aalt' Access All Alternates in Latin lookup 0 subtable" aogonek.sc
Ligature2: "ccmp_lig subtable" A ogonekcomb
Substitution2: "'c2sc' Capitals to Small Capitals in Latin lookup 13 subtable" aogonek.sc
Position2: "'cpsp' Capital Spacing in Latin lookup 12 subtable" dx=7 dy=0 dh=14 dv=0
EndChar

StartChar: section
Encoding: 167 167 117
Width: 500
VWidth: 0
Flags: W
TeX: 681 -250
HStem: -217 61<152.321 308.014> 626 69<195.203 350.084>
VStem: 30 74<194.5 310.302> 61 70<450.5 558.548> 63 39<-36.8103 -17> 369 38<515 594.013> 375 80<-77.4025 33.5> 397 74<174.798 301.5>
LayerCount: 2
Fore
SplineSet
30 233 m 0xe2
 30 281 45 312 89 354 c 2
 108 372 l 1
 76 400 61 431 61 470 c 0
 61 525 93 596 136 636 c 0
 175 672 237 695 294 695 c 0
 337 695 376 685 424 662 c 1
 416 623 412 589 407 515 c 1
 369 515 l 1xd4
 369 550 367 574 362 595 c 1
 344 614 305 626 261 626 c 0
 186 626 131 586 131 532 c 0
 131 484 160 461 257 432 c 2
 324 412 l 1
 328 411 l 2
 430 385 471 342 471 261 c 0xd1
 471 203 455 171 400 115 c 1
 440 85 455 56 455 11 c 0
 455 -110 339 -217 208 -217 c 0
 142 -217 103 -206 49 -172 c 1
 63 -17 l 1
 102 -17 l 1xca
 101 -26 101 -33 101 -37 c 0
 101 -59 104 -79 110 -101 c 1
 144 -138 186 -156 241 -156 c 0
 311 -156 375 -105 375 -48 c 0
 375 -28 365 -6 347 10 c 0
 328 26 301 39 240 59 c 2
 179 79 l 2
 70 115 30 156 30 233 c 0xe2
104 280 m 0xe1
 104 244 144 214 235 180 c 2
 368 131 l 1
 389 159 397 178 397 200 c 0
 397 249 364 279 282 307 c 2
 139 355 l 1
 115 326 104 303 104 280 c 0xe1
EndSplineSet
Validated: 1
EndChar

StartChar: Uogonek
Encoding: 168 370 118
Width: 778
VWidth: 0
GlyphClass: 3
Flags: W
TeX: 681 -250
HStem: -250 66<353.338 474.426> -16 81<323.432 366> 644 37<26 63 300 337 531 568 723 760>
VStem: 111 141<136.551 636.375> 296 78<-178.026 -68.8489> 616 59<148.253 636.375>
AnchorPoint: "bot_acc" 408 -378 basechar 0
AnchorPoint: "dotbelow" 408 -378 basechar 0
AnchorPoint: "ogon_acc" 408 -378 basechar 0
AnchorPoint: "top_accu" 393 809 basechar 0
AnchorPoint: "dotabove" 393 809 basechar 0
LayerCount: 2
Fore
SplineSet
26 644 m 1
 26 681 l 1
 78 679 129 678 181 678 c 0
 233 678 285 679 337 681 c 1
 337 644 l 1
 300 641 l 2
 255 637 252 631 252 543 c 2
 252 295 l 2
 252 191 261 144 288 112 c 0
 315 80 360 65 428 65 c 0
 495 65 541 79 569 108 c 0
 603 143 616 196 616 302 c 2
 616 543 l 2
 616 631 613 637 568 641 c 2
 531 644 l 1
 531 681 l 1
 569 679 608 678 646 678 c 0
 684 678 722 679 760 681 c 1
 760 644 l 1
 723 641 l 2
 678 637 675 631 675 543 c 2
 675 251 l 2
 675 106 616 22 494 -7 c 0
 460 -14 418 -24 401 -48 c 0
 385 -71 374 -97 374 -124 c 0
 374 -151 382 -184 416 -184 c 0
 441 -184 468 -183 477 -161 c 2
 489 -131 l 1
 519 -138 l 1
 519 -197 l 1
 466 -234 l 2
 443 -250 411 -250 382 -250 c 0
 325 -250 296 -201 296 -149 c 0
 296 -87 328 -46 366 -16 c 1
 209 -9 111 64 111 177 c 2
 111 543 l 2
 111 631 108 637 63 641 c 2
 26 644 l 1
EndSplineSet
Validated: 1
AlternateSubs2: "'aalt' Access All Alternates lookup 0 subtable" uogonek.sc
AlternateSubs2: "'aalt' Access All Alternates in Latin lookup 0 subtable" uogonek.sc
Ligature2: "ccmp_lig subtable" U ogonekcomb
Substitution2: "'c2sc' Capitals to Small Capitals in Latin lookup 13 subtable" uogonek.sc
Position2: "'cpsp' Capital Spacing in Latin lookup 12 subtable" dx=7 dy=0 dh=14 dv=0
EndChar

StartChar: AE
Encoding: 170 198 119
Width: 1000
VWidth: 0
Flags: W
TeX: 681 0
HStem: -3 37<12 50 160.284 238> -1 59<642 887.548> 214 53<271 501> 328 50<643.305 827.632> 436 20G<835.895 878> 624 58<487 494 642 884.978> 641 40<316 410.987>
VStem: 501 141<58 214 267 326.45 378.488 606> 838 40<241 291 399 456> 893 36<529 594.625> 915 39<137.391 166>
LayerCount: 2
Fore
SplineSet
12 -3 m 1xb9a0
 12 34 l 1
 50 37 l 2
 65 38 80 53 104 94 c 2
 394 584 l 2
 406 604 411 616 411 624 c 0xbda0
 411 632 393 640 368 641 c 2
 316 644 l 1
 316 681 l 1x3ba0
 578 678 l 1
 720 680 l 2
 766 681 793 681 803 682 c 2
 842 682 l 2
 882 682 899 681 937 678 c 1
 943 671 l 1
 929 529 l 1
 893 529 l 1x3dc0
 885 604 l 2
 884 615 841 624 787 624 c 0
 732 624 698 623 642 620 c 1
 642 380 l 1
 662 378 676 378 709 378 c 2
 775 378 l 2
 817 378 830 383 832 399 c 2
 838 456 l 1
 878 456 l 1
 876 420 875 385 875 349 c 0
 875 313 876 277 878 241 c 1
 838 241 l 1
 832 291 l 2
 829 317 813 328 775 328 c 2
 709 328 l 2
 687 328 670 327 642 325 c 1
 642 58 l 1
 773 55 l 2
 829 54 858 59 889 69 c 0
 891 70 892 72 892 72 c 1
 915 166 l 1
 954 166 l 1
 943 8 l 1
 938 0 l 1
 880 -3 849 -5 797 -4 c 2
 636 -1 l 1x7da0
 571 0 l 1
 449 -3 l 1
 449 20 l 1
 481 38 l 2
 496 46 501 62 501 95 c 2
 501 214 l 1
 241 214 l 1
 179 107 l 2
 164 81 160 70 160 52 c 1
 166 43 176 37 184 37 c 2
 238 34 l 1
 238 -3 l 1
 120 0 l 1
 12 -3 l 1xb9a0
271 267 m 1
 501 267 l 1
 501 606 l 1
 494 623 l 1
 487 623 l 1
 271 267 l 1
EndSplineSet
Validated: 33
AlternateSubs2: "'aalt' Access All Alternates lookup 0 subtable" ae.sc
AlternateSubs2: "'aalt' Access All Alternates in Latin lookup 0 subtable" ae.sc
Substitution2: "'c2sc' Capitals to Small Capitals in Latin lookup 13 subtable" ae.sc
Position2: "'cpsp' Capital Spacing in Latin lookup 12 subtable" dx=7 dy=0 dh=14 dv=0
EndChar

StartChar: guillemotleft
Encoding: 171 171 120
Width: 500
VWidth: 0
Flags: W
TeX: 438 0
LayerCount: 2
Fore
SplineSet
36 231 m 1
 36 256 l 1
 142 349 183 386 234 438 c 1
 261 416 l 1
 151 243 l 1
 261 64 l 1
 234 44 l 1
 144 136 86 190 36 231 c 1
238 231 m 1
 238 256 l 1
 344 349 385 386 436 438 c 1
 463 416 l 1
 353 243 l 1
 463 64 l 1
 436 44 l 1
 346 136 288 190 238 231 c 1
EndSplineSet
Validated: 1
EndChar

StartChar: degree
Encoding: 176 176 121
Width: 400
VWidth: 0
Flags: W
TeX: 681 0
HStem: 360 61<143.376 258.106> 599 61<141.901 255.842>
VStem: 50 61<453.458 568.813> 289 61<451.683 566.871>
LayerCount: 2
Fore
SplineSet
50 510 m 0
 50 594 117 660 202 660 c 0
 282 660 350 591 350 510 c 0
 350 427 282 360 200 360 c 0
 117 360 50 427 50 510 c 0
111 511 m 0
 111 461 151 421 200 421 c 0
 249 421 289 461 289 510 c 0
 289 558 248 599 200 599 c 0
 150 599 111 560 111 511 c 0
EndSplineSet
Validated: 1
EndChar

StartChar: lslash
Encoding: 179 322 122
Width: 333
VWidth: 0
GlyphClass: 2
Flags: W
TeX: 720 0
HStem: -3 37<32 67 261 296> 641 36<24 77> 700 20G<151.545 225>
VStem: 103 122<38.0215 337 384 433 480 637.582>
AnchorPoint: "bot_acc" 171 -145 basechar 0
AnchorPoint: "dotbelow" 171 -145 basechar 0
AnchorPoint: "ogon_acc" 171 -145 basechar 0
AnchorPoint: "top_accl" 164 865 basechar 0
AnchorPoint: "dotabove" 164 865 basechar 0
LayerCount: 2
Fore
SplineSet
16 309 m 1
 103 384 l 1
 103 568 l 2
 103 627 99 637 77 638 c 2
 24 641 l 1
 24 677 l 1
 82 683 116 689 145 698 c 2
 217 720 l 1
 225 714 l 1
 225 480 l 1
 308 552 l 1
 326 521 l 1
 225 433 l 1
 225 100 l 2
 225 46 230 38 261 36 c 2
 296 34 l 1
 296 -3 l 1
 251 -1 206 0 161 0 c 0
 118 0 75 -1 32 -3 c 1
 32 34 l 1
 67 36 l 2
 98 38 103 46 103 100 c 2
 103 337 l 1
 34 278 l 1
 16 309 l 1
EndSplineSet
Validated: 1
AlternateSubs2: "'aalt' Access All Alternates lookup 0 subtable" lslash.sc
AlternateSubs2: "'aalt' Access All Alternates in Latin lookup 0 subtable" lslash.sc
Substitution2: "'smcp' Lowercase to Small Capitals in Latin lookup 2 subtable" lslash.sc
EndChar

StartChar: paragraph
Encoding: 182 182 123
Width: 641
VWidth: 0
Flags: W
TeX: 681 -161
HStem: -161 43<195 277.088 516.912 599> -158 47<368 426> 324 47<221.707 280> 634 44<199.674 280 368 426 518.641 599>
VStem: 19 131<449.236 584.773> 280 88<-110.961 325.987 371 634> 426 88<-110.961 633.622>
LayerCount: 2
Fore
SplineSet
19 529 m 0xbe
 19 620 104 687 228 683 c 2
 284 681 l 1
 436 678 l 2
 444 678 459 679 475 679 c 2
 599 681 l 1
 599 640 l 1
 552 640 l 2
 524 640 514 620 514 563 c 2
 514 -54 l 2
 514 -108 519 -117 550 -118 c 2
 599 -120 l 1
 599 -161 l 1xbe
 397 -158 l 1x7e
 195 -161 l 1
 195 -120 l 1
 244 -118 l 2
 275 -117 280 -108 280 -54 c 2
 280 324 l 1
 199 330 151 347 97 387 c 0
 46 425 19 474 19 529 c 0xbe
150 513 m 0
 150 441 197 389 280 371 c 1
 280 634 l 1
 274 635 268 635 265 635 c 0
 199 635 150 583 150 513 c 0
368 -111 m 1x7e
 426 -111 l 1
 426 634 l 1
 368 634 l 1
 368 -111 l 1x7e
EndSplineSet
Validated: 33
AlternateSubs2: "'aalt' Access All Alternates lookup 0 subtable" paragraph.alt
AlternateSubs2: "'aalt' Access All Alternates in Latin lookup 0 subtable" paragraph.alt
Substitution2: "'ss02' Style Set 2 in Latin lookup 16 subtable" paragraph.alt
Substitution2: "'ss01' Style Set 1 in Latin lookup 15 subtable" paragraph.alt
Substitution2: "'salt' Stylistic Alternatives in Latin lookup 14 subtable" paragraph.alt
EndChar

StartChar: paragraph.alt
Encoding: 279 -1 124
Width: 514
VWidth: 0
Flags: W
TeX: 687 -161
HStem: -161 43<195 277.088 370.912 453> 324 47<221.707 280> 640 41<210.824 280 375.416 453>
VStem: 19 131<449.236 584.773> 280 88<-116.35 325.987 371 634.876>
LayerCount: 2
Fore
SplineSet
19 529 m 0
 19 620 104 687 228 683 c 2
 328 679 l 1
 453 681 l 1
 453 640 l 1
 406 640 l 2
 378 640 368 620 368 563 c 2
 368 -54 l 2
 368 -108 373 -117 404 -118 c 2
 453 -120 l 1
 453 -161 l 1
 322 -158 l 1
 195 -161 l 1
 195 -120 l 1
 244 -118 l 2
 275 -117 280 -108 280 -54 c 2
 280 324 l 1
 199 330 151 347 97 387 c 0
 46 425 19 474 19 529 c 0
150 513 m 0
 150 441 197 389 280 371 c 1
 280 634 l 1
 274 635 268 635 265 635 c 0
 199 635 150 583 150 513 c 0
EndSplineSet
Validated: 33
EndChar

StartChar: uogonek
Encoding: 184 371 125
Width: 611
VWidth: 0
GlyphClass: 3
Flags: W
TeX: 454 -250
HStem: -250 66<417.338 538.426> -17 90<242.22 313.777> -3 37<550 583> 392 36<25 70 321 366> 451 20G<144.364 218 440.364 514>
VStem: 96 122<100.091 388.532> 360 78<-178.026 -69.2895> 392 122<105.629 388.532>
AnchorPoint: "bot_acc" 472 -378 basechar 0
AnchorPoint: "dotbelow" 472 -378 basechar 0
AnchorPoint: "ogon_acc" 472 -378 basechar 0
AnchorPoint: "top_accl" 304 599 basechar 0
AnchorPoint: "dotabove" 304 599 basechar 0
LayerCount: 2
Fore
SplineSet
25 392 m 1xdd
 25 428 l 1
 88 436 105 439 138 449 c 2
 208 471 l 1
 218 465 l 1
 218 204 l 2
 218 108 239 73 296 73 c 0
 349 73 392 113 392 163 c 2
 392 319 l 2
 392 378 389 387 366 389 c 2
 321 392 l 1
 321 428 l 1
 383 436 401 439 434 449 c 2
 504 471 l 1
 514 465 l 1
 514 100 l 2xdd
 514 46 518 38 550 36 c 2
 583 34 l 1
 583 -3 l 1
 543 -1 l 2
 511 0 484 -21 465 -48 c 0
 449 -71 438 -97 438 -124 c 0
 438 -151 446 -184 480 -184 c 0
 505 -184 532 -183 541 -161 c 2
 553 -131 l 1
 583 -138 l 1
 583 -197 l 1
 530 -234 l 2
 507 -250 475 -250 446 -250 c 0
 389 -250 360 -201 360 -149 c 0
 360 -74 406 -30 454 0 c 1
 387 -3 l 1xbe
 392 80 l 1
 316 6 l 2
 301 -9 276 -17 247 -17 c 0
 150 -17 96 39 96 140 c 2
 96 319 l 2
 96 378 93 387 70 389 c 2
 25 392 l 1xdd
EndSplineSet
Validated: 33
AlternateSubs2: "'aalt' Access All Alternates lookup 0 subtable" uogonek.sc
AlternateSubs2: "'aalt' Access All Alternates in Latin lookup 0 subtable" uogonek.sc
Ligature2: "ccmp_lig subtable" u ogonekcomb
Substitution2: "'smcp' Lowercase to Small Capitals in Latin lookup 2 subtable" uogonek.sc
EndChar

StartChar: aogonek
Encoding: 185 261 126
Width: 500
VWidth: 0
GlyphClass: 3
Flags: W
TeX: 454 -250
HStem: -250 66<312.338 433.426> -17 87<119 218.157> -3 37<448 478> 233 42<272.75 299> 393 78<163.235 265.023>
VStem: 40 122<80.3366 185.316> 255 78<-178.026 -68.9627> 299 121<94.0086 233 275 357.048>
AnchorPoint: "bot_acc" 367 -378 basechar 0
AnchorPoint: "dotbelow" 367 -378 basechar 0
AnchorPoint: "ogon_acc" 367 -378 basechar 0
AnchorPoint: "top_accl" 259 599 basechar 0
AnchorPoint: "dotabove" 259 599 basechar 0
LayerCount: 2
Fore
SplineSet
40 107 m 0xdd
 40 192 85 231 211 257 c 2
 299 275 l 1
 296 357 264 393 197 393 c 0
 170 393 142 386 139 379 c 2
 117 329 l 1
 87 336 l 1
 87 405 l 1
 140 437 l 2
 178 460 217 471 260 471 c 0
 361 471 420 418 420 330 c 2
 420 98 l 2xdd
 420 51 425 39 448 37 c 2
 478 34 l 1
 478 -3 l 1
 443 -1 l 2
 409 0 379 -20 360 -48 c 0
 344 -71 333 -97 333 -124 c 0
 333 -151 341 -184 375 -184 c 0
 400 -184 427 -183 436 -161 c 2
 448 -131 l 1
 478 -138 l 1
 478 -197 l 1
 425 -234 l 2
 402 -250 370 -250 341 -250 c 0
 284 -250 255 -201 255 -149 c 0xbe
 255 -75 300 -30 348 -1 c 1
 299 -3 l 1xbd
 294 5 l 1
 299 67 l 1
 206 -5 l 2
 196 -13 180 -17 157 -17 c 0
 81 -17 40 26 40 107 c 0xdd
162 133 m 0
 162 94 181 70 213 70 c 0
 243 70 279 89 299 115 c 1
 299 233 l 1
 254 221 l 2
 183 202 162 182 162 133 c 0
EndSplineSet
Validated: 33
AlternateSubs2: "'aalt' Access All Alternates lookup 0 subtable" aogonek.sc
AlternateSubs2: "'aalt' Access All Alternates in Latin lookup 0 subtable" aogonek.sc
Ligature2: "ccmp_lig subtable" a ogonekcomb
Substitution2: "'smcp' Lowercase to Small Capitals in Latin lookup 2 subtable" aogonek.sc
EndChar

StartChar: ae
Encoding: 186 230 127
Width: 778
VWidth: 0
Flags: W
TeX: 454 0
HStem: -17 87<132 242.474> -17 71<514.6 652.886> 223 53<442 603.948> 400 71<168.24 279.252> 415 56<466.044 573.486>
VStem: 46 126<80.5311 182.723> 319 123<128.908 223 276 360.757> 604 127<276 382.625>
LayerCount: 2
Fore
SplineSet
46 107 m 0xa7
 46 143 56 177 75 197 c 0
 95 220 152 241 231 257 c 2
 319 275 l 1
 317 319 312 339 297 361 c 0
 279 386 249 400 212 400 c 0
 185 400 166 394 140 376 c 1
 124 334 l 1
 92 338 l 1
 92 405 l 1
 145 437 l 2
 183 460 222 471 267 471 c 0xb7
 329 471 362 458 405 419 c 1
 450 456 492 471 547 471 c 0
 657 471 731 401 731 295 c 2
 731 243 l 1
 675 229 630 223 573 223 c 2
 442 223 l 1
 444 176 450 153 466 125 c 0
 491 82 540 54 591 54 c 0
 632 54 662 63 709 89 c 1
 721 74 l 1
 699 26 l 1
 635 -7 598 -17 539 -17 c 0x6f
 449 -17 390 11 344 78 c 1
 230 -4 l 2
 221 -10 189 -17 167 -17 c 0
 97 -17 46 35 46 107 c 0xa7
172 128 m 0
 172 91 193 70 230 70 c 0
 263 70 299 88 319 115 c 1
 319 229 l 1
 264 216 l 2
 201 201 172 174 172 128 c 0
436 276 m 1
 468 275 l 1
 516 273 l 1
 520 273 l 1
 604 276 l 1
 602 375 578 415 521 415 c 0x2f
 463 415 439 375 436 276 c 1
EndSplineSet
Validated: 1
AlternateSubs2: "'aalt' Access All Alternates lookup 0 subtable" ae.sc
AlternateSubs2: "'aalt' Access All Alternates in Latin lookup 0 subtable" ae.sc
Substitution2: "'smcp' Lowercase to Small Capitals in Latin lookup 2 subtable" ae.sc
EndChar

StartChar: guillemotright
Encoding: 187 187 128
Width: 500
VWidth: 0
Flags: W
TeX: 438 0
LayerCount: 2
Fore
SplineSet
37 64 m 1
 147 243 l 1
 37 416 l 1
 64 438 l 1
 105 396 171 335 262 256 c 1
 262 231 l 1
 213 191 152 134 64 44 c 1
 37 64 l 1
239 64 m 1
 349 243 l 1
 239 416 l 1
 266 438 l 1
 307 396 373 335 464 256 c 1
 464 231 l 1
 415 191 354 134 266 44 c 1
 239 64 l 1
EndSplineSet
Validated: 1
EndChar

StartChar: Ccedilla
Encoding: 199 199 129
Width: 722
VWidth: 0
GlyphClass: 3
Flags: W
TeX: 681 -250
HStem: -225 46<278.423 398.151> -17 65<395.361 596.053> 639 56<340.34 560.309>
VStem: 44 150<232.643 468.799> 401 94<-174.213 -110.2> 633 39<484 570>
AnchorPoint: "bot_acc" 388 -353 basechar 0
AnchorPoint: "dotbelow" 388 -353 basechar 0
AnchorPoint: "ogon_acc" 388 -353 basechar 0
AnchorPoint: "top_accu" 370 809 basechar 0
AnchorPoint: "dotabove" 370 809 basechar 0
LayerCount: 2
Fore
SplineSet
44 347 m 0
 44 561 202 695 455 695 c 0
 542 695 598 684 689 648 c 1
 695 637 l 1
 686 599 683 580 672 484 c 1
 633 484 l 1
 628 570 l 1
 574 620 526 639 450 639 c 0
 291 639 194 533 194 361 c 0
 194 172 309 48 485 48 c 0
 551 48 615 65 680 99 c 1
 692 87 l 1
 670 38 l 1
 596 -3 537 -17 446 -17 c 0
 429 -17 417 -17 397 -15 c 1
 373 -71 l 1
 393 -66 404 -65 419 -65 c 0
 465 -65 495 -93 495 -138 c 0
 495 -191 444 -225 362 -225 c 0
 333 -225 303 -219 268 -207 c 1
 284 -170 l 1
 318 -177 332 -179 351 -179 c 0
 384 -179 401 -166 401 -142 c 0
 401 -120 387 -107 363 -107 c 0
 354 -107 347 -108 327 -111 c 1
 317 -103 l 1
 358 -10 l 1
 294 1 251 15 210 38 c 0
 104 99 44 211 44 347 c 0
EndSplineSet
Validated: 1
AlternateSubs2: "'aalt' Access All Alternates lookup 0 subtable" ccedilla.sc
AlternateSubs2: "'aalt' Access All Alternates in Latin lookup 0 subtable" ccedilla.sc
Ligature2: "ccmp_lig subtable" C cedillacmb
Substitution2: "'c2sc' Capitals to Small Capitals in Latin lookup 13 subtable" ccedilla.sc
Position2: "'cpsp' Capital Spacing in Latin lookup 12 subtable" dx=7 dy=0 dh=14 dv=0
EndChar

StartChar: Eogonek
Encoding: 202 280 130
Width: 611
VWidth: 0
GlyphClass: 3
Flags: W
TeX: 681 -250
HStem: -250 66<391.338 512.426> 0 58<265 423 464.254 516.797> 328 50<266.305 450.632> 436 20G<458.895 501> 623 58<265 508.25> 644 37<39 76>
VStem: 124 141<58 326.45 378.488 619.559> 334 78<-178.026 -68.3706> 461 40<241 291 399 456> 516 36<529 594.625> 538 39<137.391 166>
AnchorPoint: "bot_acc" 446 -378 basechar 0
AnchorPoint: "dotbelow" 446 -378 basechar 0
AnchorPoint: "ogon_acc" 446 -378 basechar 0
AnchorPoint: "top_accu" 308 809 basechar 0
AnchorPoint: "dotabove" 308 809 basechar 0
LayerCount: 2
Fore
SplineSet
39 644 m 1xf7c0
 39 681 l 1xf7c0
 102 679 166 678 229 678 c 0
 308 678 386 681 465 681 c 0
 502 681 523 680 560 678 c 1
 566 671 l 1
 552 529 l 1
 516 529 l 1xfbc0
 508 604 l 2
 507 615 465 623 410 623 c 2
 265 620 l 1
 265 380 l 1
 285 378 299 378 332 378 c 2
 398 378 l 2
 440 378 453 383 455 399 c 2
 461 456 l 1
 501 456 l 1
 499 420 498 385 498 349 c 0
 498 313 499 277 501 241 c 1
 461 241 l 1
 455 291 l 2
 452 317 436 328 398 328 c 2
 332 328 l 2
 310 328 293 327 265 325 c 1
 265 58 l 1
 414 55 l 2
 460 55 513 64 515 72 c 2
 538 166 l 1
 577 166 l 1xfba0
 566 8 l 1
 561 0 l 1
 516 -2 l 2
 485 -3 457 -22 439 -48 c 0
 423 -71 412 -97 412 -124 c 0
 412 -151 420 -184 454 -184 c 0
 479 -184 506 -183 515 -161 c 2
 527 -131 l 1
 557 -138 l 1
 557 -197 l 1
 504 -234 l 2
 481 -250 449 -250 420 -250 c 0
 363 -250 334 -201 334 -149 c 0
 334 -76 377 -32 423 -3 c 1
 421 -3 l 2
 346 -3 270 0 195 0 c 0
 154 0 113 -1 72 -3 c 1
 72 20 l 1
 104 38 l 2
 119 46 124 61 124 95 c 2
 124 543 l 2
 124 631 121 637 76 641 c 2
 39 644 l 1xf7c0
EndSplineSet
Validated: 1
AlternateSubs2: "'aalt' Access All Alternates lookup 0 subtable" eogonek.sc
AlternateSubs2: "'aalt' Access All Alternates in Latin lookup 0 subtable" eogonek.sc
Ligature2: "ccmp_lig subtable" E ogonekcomb
Substitution2: "'c2sc' Capitals to Small Capitals in Latin lookup 13 subtable" eogonek.sc
Position2: "'cpsp' Capital Spacing in Latin lookup 12 subtable" dx=7 dy=0 dh=14 dv=0
EndChar

StartChar: Eth
Encoding: 208 208 131
Width: 833
VWidth: 0
Flags: W
TeX: 681 0
HStem: -3 55<261 481.712> 338 42<10 120 261 412> 631 50<261 483.737> 644 37<35 72>
VStem: 120 141<54.6401 338 380 628.863> 636 150<241.635 489.947>
LayerCount: 2
Fore
SplineSet
10 338 m 1xec
 10 380 l 1
 120 380 l 1
 120 543 l 2
 120 631 117 637 72 641 c 2
 35 644 l 1
 35 681 l 1xdc
 89 679 143 678 197 678 c 0
 277 678 356 681 436 681 c 0
 571 681 651 656 709 598 c 0
 759 549 786 471 786 376 c 0
 786 269 751 180 682 113 c 0
 607 39 498 -3 379 -3 c 0
 327 -3 275 0 223 0 c 0
 171 0 120 -1 68 -3 c 1
 68 20 l 1
 100 38 l 2
 115 46 120 62 120 95 c 2
 120 338 l 1
 10 338 l 1xec
261 57 m 1
 286 53 304 52 329 52 c 0
 442 52 513 74 563 123 c 0
 611 171 636 247 636 348 c 0
 636 447 615 515 570 559 c 0
 521 607 441 631 324 631 c 0xec
 301 631 285 630 261 627 c 1
 261 380 l 1
 412 380 l 1
 412 338 l 1
 261 338 l 1
 261 57 l 1
EndSplineSet
Validated: 1
AlternateSubs2: "'aalt' Access All Alternates lookup 0 subtable" eth.sc
AlternateSubs2: "'aalt' Access All Alternates in Latin lookup 0 subtable" eth.sc
Substitution2: "'c2sc' Capitals to Small Capitals in Latin lookup 13 subtable" eth.sc
Position2: "'cpsp' Capital Spacing in Latin lookup 12 subtable" dx=7 dy=0 dh=14 dv=0
EndChar

StartChar: Oslash
Encoding: 216 216 132
Width: 833
VWidth: 0
GlyphClass: 2
Flags: W
TeX: 681 0
HStem: -17 56<319.185 513.391> 639 56<320.905 516.376>
VStem: 47 150<201.142 467.122> 637 150<211.808 479.52>
AnchorPoint: "bot_acc" 420 -165 basechar 0
AnchorPoint: "dotbelow" 420 -165 basechar 0
AnchorPoint: "ogon_acc" 420 -165 basechar 0
AnchorPoint: "top_accu" 420 809 basechar 0
AnchorPoint: "dotabove" 420 809 basechar 0
LayerCount: 2
Fore
SplineSet
32 20 m 1
 123 103 l 1
 67 169 47 228 47 326 c 0
 47 561 186 695 428 695 c 0
 477 695 521 689 564 677 c 0
 613 663 637 651 682 617 c 1
 771 698 l 1
 808 659 l 1
 719 577 l 1
 770 504 787 448 787 353 c 0
 787 117 649 -17 405 -17 c 0
 352 -17 305 -10 259 4 c 0
 214 18 195 30 160 62 c 1
 70 -20 l 1
 32 20 l 1
197 349 m 0
 197 282 205 233 222 192 c 1
 592 534 l 1
 548 611 502 639 424 639 c 0
 273 639 197 542 197 349 c 0
242 138 m 1
 293 65 337 39 410 39 c 0
 563 39 637 135 637 333 c 0
 637 398 630 444 615 481 c 1
 242 138 l 1
EndSplineSet
Validated: 1
AlternateSubs2: "'aalt' Access All Alternates lookup 0 subtable" oslash.sc
AlternateSubs2: "'aalt' Access All Alternates in Latin lookup 0 subtable" oslash.sc
Substitution2: "'c2sc' Capitals to Small Capitals in Latin lookup 13 subtable" oslash.sc
Position2: "'cpsp' Capital Spacing in Latin lookup 12 subtable" dx=7 dy=0 dh=14 dv=0
EndChar

StartChar: Iogonek
Encoding: 222 302 133
Width: 389
VWidth: 0
GlyphClass: 3
Flags: W
TeX: 681 -250
HStem: -250 66<174.338 295.426> -3 40<39 76 313 350> 641 40<39 76 313 350>
VStem: 117 78<-178.026 -68.5593> 124 141<43.6287 634.371>
AnchorPoint: "bot_acc" 229 -378 basechar 0
AnchorPoint: "dotbelow" 229 -378 basechar 0
AnchorPoint: "ogon_acc" 229 -378 basechar 0
AnchorPoint: "top_accu" 195 809 basechar 0
AnchorPoint: "dotabove" 195 809 basechar 0
LayerCount: 2
Fore
SplineSet
39 -3 m 1xf0
 39 37 l 1
 76 40 l 2
 123 44 124 46 124 135 c 2
 124 543 l 2
 124 632 123 634 76 638 c 2
 39 641 l 1
 39 681 l 1
 91 679 142 678 194 678 c 0
 246 678 298 679 350 681 c 1
 350 641 l 1
 313 638 l 2
 266 634 265 632 265 543 c 2
 265 135 l 2xe8
 265 46 266 44 313 40 c 2
 350 37 l 1
 350 -3 l 1
 288 -1 l 2
 259 0 239 -24 222 -48 c 0
 206 -71 195 -97 195 -124 c 0
 195 -151 203 -184 237 -184 c 0
 262 -184 289 -183 298 -161 c 2
 310 -131 l 1
 340 -138 l 1
 340 -197 l 1
 287 -234 l 2
 264 -250 232 -250 203 -250 c 0
 146 -250 117 -201 117 -149 c 0
 117 -74 163 -29 211 0 c 1
 194 0 l 1
 39 -3 l 1xf0
EndSplineSet
Validated: 33
AlternateSubs2: "'aalt' Access All Alternates lookup 0 subtable" iogonek.sc
AlternateSubs2: "'aalt' Access All Alternates in Latin lookup 0 subtable" iogonek.sc
Ligature2: "ccmp_lig subtable" I ogonekcomb
Substitution2: "'c2sc' Capitals to Small Capitals in Latin lookup 13 subtable" iogonek.sc
Position2: "'cpsp' Capital Spacing in Latin lookup 12 subtable" dx=7 dy=0 dh=14 dv=0
EndChar

StartChar: germandbls
Encoding: 223 223 134
Width: 611
VWidth: 0
Flags: W
TeX: 720 0
HStem: -17 57<337.814 450.184> -3 37<30 69> 415 51<380.006 444.071> 653 67<277.36 403.106>
VStem: 105 122<39.25 368 436 574.092> 288 87<285 379.935> 297 33<64 112> 448 73<467.326 605.296> 465 100<93.6946 192>
LayerCount: 2
Fore
SplineSet
30 -3 m 1x7c80
 30 34 l 1
 69 36 l 2
 100 38 105 46 105 100 c 2
 105 368 l 1
 34 368 l 1
 34 391 l 1
 103 436 l 1
 103 509 l 2
 103 546 123 579 174 625 c 0
 249 693 305 720 371 720 c 0
 462 720 521 664 521 577 c 0x79
 521 543 517 516 497 431 c 2
 491 405 l 1
 478 396 l 1
 461 409 445 415 424 415 c 0
 394 415 375 400 375 376 c 0
 375 352 389 336 427 316 c 0
 430 314 430 314 432 313 c 2
 511 267 l 2
 550 244 565 217 565 167 c 0
 565 124 551 96 513 60 c 2
 468 18 l 2
 453 4 450 2 440 -2 c 0
 418 -10 384 -17 362 -17 c 0xbc80
 341 -17 316 -10 289 4 c 1
 289 -3 l 1
 249 -1 210 0 170 0 c 0
 123 0 77 -1 30 -3 c 1x7c80
227 99 m 2
 227 52 233 40 259 37 c 2
 288 34 l 1x7d
 297 112 l 1
 330 118 l 1x7a
 334 64 l 1
 361 46 377 40 398 40 c 0
 436 40 465 66 465 100 c 0
 465 133 449 151 382 191 c 0
 307 237 288 260 288 310 c 0xbc80
 288 360 318 405 380 448 c 0
 400 462 415 466 441 466 c 1
 447 505 448 518 448 532 c 0
 448 603 402 653 336 653 c 0
 297 653 261 635 244 606 c 0
 233 587 227 551 227 493 c 2
 227 99 l 2
EndSplineSet
Validated: 1
AlternateSubs2: "'aalt' Access All Alternates lookup 0 subtable" germandbls.sc
AlternateSubs2: "'aalt' Access All Alternates in Latin lookup 0 subtable" germandbls.sc
Substitution2: "'smcp' Lowercase to Small Capitals in Latin lookup 2 subtable" germandbls.sc
EndChar

StartChar: ccedilla
Encoding: 231 231 135
Width: 444
VWidth: 0
GlyphClass: 3
Flags: W
TeX: 454 -250
HStem: -225 46<139.423 259.151> -17 71<258 367.232> 400 71<209.206 333.438>
VStem: 37 124<148.413 326.378> 262 94<-174.213 -110.2> 354 36<297 357>
AnchorPoint: "bot_acc" 249 -353 basechar 0
AnchorPoint: "dotbelow" 249 -353 basechar 0
AnchorPoint: "ogon_acc" 249 -353 basechar 0
AnchorPoint: "top_accl" 226 599 basechar 0
AnchorPoint: "dotabove" 226 599 basechar 0
LayerCount: 2
Fore
SplineSet
37 229 m 0xf8
 37 316 69 366 158 419 c 2
 210 450 l 2
 234 464 262 471 300 471 c 0
 336 471 357 467 403 451 c 1
 410 438 l 1
 401 394 396 361 390 297 c 1
 354 297 l 1xf4
 347 357 l 2
 344 380 305 400 259 400 c 0
 195 400 161 352 161 261 c 0
 161 133 221 54 320 54 c 0
 349 54 371 59 405 73 c 1
 414 63 l 1
 393 17 l 1
 351 -6 308 -17 258 -17 c 1
 234 -71 l 1
 254 -66 265 -65 280 -65 c 0
 326 -65 356 -93 356 -138 c 0
 356 -191 305 -225 223 -225 c 0
 194 -225 164 -219 129 -207 c 1
 145 -170 l 1
 179 -177 193 -179 212 -179 c 0
 245 -179 262 -166 262 -142 c 0
 262 -120 248 -107 224 -107 c 0
 215 -107 208 -108 188 -111 c 1
 178 -103 l 1
 218 -14 l 1
 99 2 37 86 37 229 c 0xf8
EndSplineSet
Validated: 1
AlternateSubs2: "'aalt' Access All Alternates lookup 0 subtable" ccedilla.sc
AlternateSubs2: "'aalt' Access All Alternates in Latin lookup 0 subtable" ccedilla.sc
Ligature2: "ccmp_lig subtable" c cedillacmb
Substitution2: "'smcp' Lowercase to Small Capitals in Latin lookup 2 subtable" ccedilla.sc
EndChar

StartChar: eogonek
Encoding: 234 281 136
Width: 500
VWidth: 0
GlyphClass: 3
Flags: W
TeX: 454 -250
HStem: -250 66<275.338 396.426> -17 71<250.375 287> 223 50<172 333.863> 415 56<195.375 303.973>
VStem: 42 130<132.517 223 276 341.389> 218 78<-178.026 -68.3417> 334 127<276 383.234>
AnchorPoint: "bot_acc" 330 -378 basechar 0
AnchorPoint: "dotbelow" 330 -378 basechar 0
AnchorPoint: "ogon_acc" 330 -378 basechar 0
AnchorPoint: "top_accl" 252 599 basechar 0
AnchorPoint: "dotabove" 252 599 basechar 0
LayerCount: 2
Fore
SplineSet
42 226 m 0
 42 322 71 381 137 420 c 2
 184 448 l 2
 211 464 237 471 271 471 c 0
 387 471 461 402 461 295 c 2
 461 243 l 1
 404 229 360 223 303 223 c 2
 172 223 l 1
 174 175 180 151 197 123 c 0
 222 81 271 54 321 54 c 0
 362 54 392 63 439 89 c 1
 451 74 l 1
 429 26 l 1
 413 18 398 11 385 5 c 0
 359 -5 339 -25 323 -48 c 0
 307 -71 296 -97 296 -124 c 0
 296 -151 304 -184 338 -184 c 0
 363 -184 390 -183 399 -161 c 2
 411 -131 l 1
 441 -138 l 1
 441 -197 l 1
 388 -234 l 2
 365 -250 333 -250 304 -250 c 0
 247 -250 218 -201 218 -149 c 0
 218 -87 249 -46 287 -17 c 1
 271 -17 l 2
 121 -17 42 67 42 226 c 0
166 276 m 1
 198 275 l 2
 255 273 230 273 250 273 c 0
 283 273 334 276 334 276 c 1
 334 375 308 415 251 415 c 0
 193 415 166 375 166 276 c 1
EndSplineSet
Validated: 1
AlternateSubs2: "'aalt' Access All Alternates lookup 0 subtable" eogonek.sc
AlternateSubs2: "'aalt' Access All Alternates in Latin lookup 0 subtable" eogonek.sc
Ligature2: "ccmp_lig subtable" e ogonekcomb
Substitution2: "'smcp' Lowercase to Small Capitals in Latin lookup 2 subtable" eogonek.sc
EndChar

StartChar: eth
Encoding: 240 240 137
Width: 556
VWidth: 0
Flags: W
TeX: 720 0
HStem: -17 48<228.721 337.823> 423 48<215.581 328.928> 700 20G<168.615 218>
VStem: 40 136<105.001 340.758> 381 136<140.847 365.008>
LayerCount: 2
Fore
SplineSet
40 224 m 0
 40 378 128 471 275 471 c 0
 295 471 309 469 330 462 c 1
 321 497 302 529 269 568 c 1
 136 506 l 1
 118 544 l 1
 239 600 l 1
 208 630 179 651 144 668 c 1
 184 720 l 1
 252 687 283 669 322 639 c 1
 456 701 l 1
 474 663 l 1
 358 609 l 1
 433 534 464 489 491 415 c 0
 508 367 517 319 517 269 c 0
 517 92 420 -17 263 -17 c 0
 122 -17 40 72 40 224 c 0
176 247 m 0
 176 105 212 31 282 31 c 0
 350 31 381 92 381 225 c 0
 381 359 347 423 274 423 c 0
 205 423 176 371 176 247 c 0
EndSplineSet
Validated: 1
AlternateSubs2: "'aalt' Access All Alternates lookup 0 subtable" eth.sc
AlternateSubs2: "'aalt' Access All Alternates in Latin lookup 0 subtable" eth.sc
Substitution2: "'smcp' Lowercase to Small Capitals in Latin lookup 2 subtable" eth.sc
EndChar

StartChar: oslash
Encoding: 248 248 138
Width: 556
VWidth: 0
GlyphClass: 2
Flags: W
TeX: 454 0
HStem: -17 48<229.515 343.768> 423 48<216.792 332.396>
VStem: 40 136<159.892 341.398> 381 136<119.329 293.224>
AnchorPoint: "bot_acc" 279 -145 basechar 0
AnchorPoint: "dotbelow" 279 -145 basechar 0
AnchorPoint: "ogon_acc" 279 -145 basechar 0
AnchorPoint: "top_accl" 279 599 basechar 0
AnchorPoint: "dotabove" 279 599 basechar 0
LayerCount: 2
Fore
SplineSet
23 5 m 1
 86 64 l 1
 55 104 40 157 40 224 c 0
 40 383 128 471 286 471 c 0
 360 471 410 454 454 414 c 1
 510 468 l 1
 534 446 l 1
 474 390 l 1
 506 343 517 307 517 243 c 0
 517 75 429 -17 267 -17 c 0
 203 -17 160 -2 107 40 c 1
 46 -18 l 1
 23 5 l 1
176 258 m 0
 176 224 178 200 184 158 c 1
 368 333 l 1
 348 398 323 423 276 423 c 0
 208 423 176 369 176 258 c 0
190 119 m 1
 214 56 241 31 286 31 c 0
 353 31 381 83 381 207 c 0
 381 248 379 269 374 294 c 1
 190 119 l 1
EndSplineSet
Validated: 1
AlternateSubs2: "'aalt' Access All Alternates lookup 0 subtable" oslash.sc
AlternateSubs2: "'aalt' Access All Alternates in Latin lookup 0 subtable" oslash.sc
Substitution2: "'smcp' Lowercase to Small Capitals in Latin lookup 2 subtable" oslash.sc
EndChar

StartChar: dotlessiogonek
Encoding: 280 -1 139
Width: 333
VWidth: 0
GlyphClass: 3
Flags: W
TeX: 471 -224
HStem: -250 66<122.338 243.426> -3 37<34 69 263 298> 392 36<34 49> 451 20G<217 227>
VStem: 65 78<-178.026 -68.5593> 105 122<38.0215 388.532>
AnchorPoint: "bot_acc" 177 -378 basechar 0
AnchorPoint: "dotbelow" 177 -378 basechar 0
AnchorPoint: "ogon_acc" 177 -378 basechar 0
AnchorPoint: "top_accl" 166 599 basechar 0
AnchorPoint: "dotabove" 166 599 basechar 0
LayerCount: 2
Fore
SplineSet
34 -3 m 1xf8
 34 34 l 1
 69 36 l 2
 100 38 105 46 105 100 c 2
 105 319 l 2
 105 378 102 387 79 389 c 2
 34 392 l 1
 34 428 l 1
 49 430 l 2
 91 436 109 439 147 449 c 0
 175 456 217 471 217 471 c 1
 227 465 l 1
 227 100 l 2xf4
 227 46 232 38 263 36 c 2
 298 34 l 1
 298 -3 l 1
 244 -1 l 2
 213 0 188 -22 170 -48 c 0
 154 -71 143 -97 143 -124 c 0
 143 -151 151 -184 185 -184 c 0
 210 -184 237 -183 246 -161 c 2
 258 -131 l 1
 288 -138 l 1
 288 -197 l 1
 235 -234 l 2
 212 -250 180 -250 151 -250 c 0
 94 -250 65 -201 65 -149 c 0
 65 -74 111 -29 159 0 c 1
 34 -3 l 1xf8
EndSplineSet
Validated: 33
Ligature2: "ccmp_lig subtable" dotlessi ogonekcomb
EndChar

StartChar: space_uni0326
Encoding: 281 -1 140
Width: 333
VWidth: 0
Flags: W
TeX: 0 -250
HStem: -258 192
VStem: 63 158
LayerCount: 2
Fore
SplineSet
63 -245 m 1
 91 -182 94 -151 103 -93 c 1
 141 -88 179 -79 210 -66 c 1
 221 -77 l 1
 198 -130 174 -165 128 -236 c 1
 75 -258 l 1
 63 -245 l 1
EndSplineSet
Validated: 1
EndChar

StartChar: tcedilla
Encoding: 282 355 141
Width: 333
VWidth: 0
GlyphClass: 3
Flags: W
TeX: 632 -250
HStem: -225 46<103.423 223.151> 369 59<208 314>
VStem: 86 122<76.2634 369 430 579.541> 226 94<-174.213 -109.339>
AnchorPoint: "bot_acc" 213 -353 basechar 0
AnchorPoint: "dotbelow" 213 -353 basechar 0
AnchorPoint: "ogon_acc" 213 -353 basechar 0
AnchorPoint: "top_accl" 152 777 basechar 0
AnchorPoint: "dotabove" 152 777 basechar 0
LayerCount: 2
Fore
SplineSet
22 365 m 1
 22 387 l 1
 88 430 l 1
 88 490 l 2
 88 511 87 529 84 582 c 1
 135 601 166 613 206 632 c 1
 220 622 l 1
 211 572 208 539 208 486 c 2
 208 428 l 1
 322 434 l 1
 314 369 l 1
 208 369 l 1
 208 131 l 2
 208 82 223 66 270 66 c 0
 286 66 295 69 316 79 c 1
 324 60 l 1
 275 1 l 2
 267 -9 247 -15 222 -17 c 1
 198 -71 l 1
 218 -66 229 -65 244 -65 c 0
 290 -65 320 -93 320 -138 c 0
 320 -191 269 -225 187 -225 c 0
 158 -225 128 -219 93 -207 c 1
 109 -170 l 1
 143 -177 157 -179 176 -179 c 0
 209 -179 226 -166 226 -142 c 0
 226 -120 212 -107 189 -107 c 0
 180 -107 174 -108 152 -111 c 1
 142 -103 l 1
 181 -15 l 1
 115 -7 86 32 86 110 c 2
 86 369 l 1
 22 365 l 1
EndSplineSet
Validated: 1
AlternateSubs2: "'aalt' Access All Alternates lookup 0 subtable" tcedilla.sc
AlternateSubs2: "'aalt' Access All Alternates in Latin lookup 0 subtable" tcedilla.sc uni021B
Ligature2: "ccmp_lig subtable" t cedillacmb
Substitution2: "'smcp' Lowercase to Small Capitals in Latin lookup 2 subtable" tcedilla.sc
Substitution2: "locl_ROM subtable" uni021B
EndChar

StartChar: Tcedilla
Encoding: 283 354 142
Width: 667
VWidth: 0
GlyphClass: 3
Flags: W
TeX: 681 -250
HStem: -225 46<233.423 353.151> -3 40<178 215 452 489> 619 62<83.2425 263 404 582.577>
VStem: 30 40<517 608.761> 263 141<43.6287 619> 356 94<-174.213 -109.339> 597 40<517 586>
AnchorPoint: "bot_acc" 343 -353 basechar 0
AnchorPoint: "dotbelow" 343 -353 basechar 0
AnchorPoint: "ogon_acc" 343 -353 basechar 0
AnchorPoint: "top_accu" 334 809 basechar 0
AnchorPoint: "dotabove" 334 809 basechar 0
LayerCount: 2
Fore
SplineSet
17 676 m 1xfa
 23 681 l 1
 334 678 l 1
 644 681 l 1
 650 676 l 1
 642 628 639 593 637 517 c 1
 597 517 l 1
 592 586 l 1
 583 610 l 1
 574 617 563 619 521 619 c 2
 404 619 l 1
 404 135 l 2xfa
 404 46 405 44 452 40 c 2
 489 37 l 1
 489 -3 l 1
 359 0 l 1
 328 -71 l 1
 348 -66 359 -65 374 -65 c 0
 420 -65 450 -93 450 -138 c 0
 450 -191 399 -225 317 -225 c 0
 288 -225 258 -219 223 -207 c 1
 239 -170 l 1
 273 -177 287 -179 306 -179 c 0
 339 -179 356 -166 356 -142 c 0xf6
 356 -120 342 -107 319 -107 c 0
 310 -107 304 -108 282 -111 c 1
 272 -103 l 1
 318 0 l 1
 178 -3 l 1
 178 37 l 1
 215 40 l 2
 262 44 263 46 263 135 c 2
 263 619 l 1
 146 619 l 2
 104 619 88 617 83 609 c 0
 80 604 75 592 75 586 c 2
 70 517 l 1
 30 517 l 1
 27 593 25 628 17 676 c 1xfa
EndSplineSet
Validated: 1
AlternateSubs2: "'aalt' Access All Alternates lookup 0 subtable" tcedilla.sc
AlternateSubs2: "'aalt' Access All Alternates in Latin lookup 0 subtable" tcedilla.sc uni021A
Ligature2: "ccmp_lig subtable" T cedillacmb
Substitution2: "'c2sc' Capitals to Small Capitals in Latin lookup 13 subtable" tcedilla.sc
Position2: "'cpsp' Capital Spacing in Latin lookup 12 subtable" dx=7 dy=0 dh=14 dv=0
Substitution2: "locl_ROM subtable" uni021A
EndChar

StartChar: scedilla
Encoding: 284 351 143
Width: 444
VWidth: 0
GlyphClass: 3
Flags: W
TeX: 454 -250
HStem: -225 46<123.423 243.151> -17 48<123.438 200> 423 48<160.733 303.282>
VStem: 39 102<282.769 397.221> 46 39<83 152> 246 94<-174.213 -109.339> 294 111<72.9778 191> 326 36<326 366.6>
AnchorPoint: "bot_acc" 233 -353 basechar 0
AnchorPoint: "dotbelow" 233 -353 basechar 0
AnchorPoint: "ogon_acc" 233 -353 basechar 0
AnchorPoint: "top_accl" 222 599 basechar 0
AnchorPoint: "dotabove" 222 599 basechar 0
LayerCount: 2
Fore
SplineSet
39 11 m 1xf4
 46 152 l 1
 85 152 l 1
 90 83 l 1
 121 46 155 31 202 31 c 0
 259 31 294 61 294 108 c 0xea
 294 143 277 160 231 171 c 2
 145 192 l 2
 75 209 39 251 39 317 c 0
 39 417 112 471 247 471 c 0
 300 471 331 465 370 448 c 1
 362 326 l 1
 326 326 l 1xf1
 316 384 l 2
 313 404 270 423 229 423 c 0
 174 423 141 398 141 358 c 0
 141 326 157 311 196 302 c 2
 278 284 l 2
 368 264 405 227 405 155 c 0xf2
 405 66 342 3 243 -13 c 1
 218 -71 l 1
 238 -66 249 -65 264 -65 c 0
 310 -65 340 -93 340 -138 c 0
 340 -191 289 -225 207 -225 c 0
 178 -225 148 -219 113 -207 c 1
 129 -170 l 1
 163 -177 177 -179 196 -179 c 0
 229 -179 246 -166 246 -142 c 0
 246 -120 232 -107 209 -107 c 0
 200 -107 194 -108 172 -111 c 1
 162 -103 l 1
 200 -17 l 1
 194 -17 l 2
 141 -17 97 -9 39 11 c 1xf4
EndSplineSet
Validated: 1
AlternateSubs2: "'aalt' Access All Alternates lookup 0 subtable" scedilla.sc
AlternateSubs2: "'aalt' Access All Alternates in Latin lookup 0 subtable" scedilla.sc uni0219
Ligature2: "ccmp_lig subtable" s cedillacmb
Substitution2: "'smcp' Lowercase to Small Capitals in Latin lookup 2 subtable" scedilla.sc
Substitution2: "locl_ROM subtable" uni0219
EndChar

StartChar: Scedilla
Encoding: 285 350 144
Width: 611
VWidth: 0
GlyphClass: 3
Flags: W
TeX: 681 -250
HStem: -225 46<193.423 313.151> -17 54<187.5 271> 644 51<240.891 412.519>
VStem: 64 124<468.889 576.465> 72 40<114 202> 316 94<-174.213 -109.339> 433 126<120.127 225.649> 464 41<507 589>
AnchorPoint: "bot_acc" 303 -353 basechar 0
AnchorPoint: "dotbelow" 303 -353 basechar 0
AnchorPoint: "ogon_acc" 303 -353 basechar 0
AnchorPoint: "top_accu" 308 809 basechar 0
AnchorPoint: "dotabove" 308 809 basechar 0
LayerCount: 2
Fore
SplineSet
57 29 m 1xf6
 68 86 72 127 72 202 c 1
 112 202 l 1
 119 114 l 1
 151 67 215 37 283 37 c 0
 369 37 433 92 433 166 c 0xee
 433 214 406 245 350 262 c 2
 210 304 l 2
 115 332 64 395 64 480 c 0
 64 615 162 695 329 695 c 0
 395 695 447 686 514 661 c 1
 519 649 l 1
 510 620 505 572 505 507 c 1
 464 507 l 1xf5
 458 589 l 1
 420 626 375 644 322 644 c 0
 242 644 188 597 188 527 c 0
 188 476 220 446 294 426 c 2
 408 396 l 2
 507 370 559 310 559 220 c 0
 559 88 464 0 313 -15 c 1
 288 -71 l 1
 308 -66 319 -65 334 -65 c 0
 380 -65 410 -93 410 -138 c 0
 410 -191 359 -225 277 -225 c 0
 248 -225 218 -219 183 -207 c 1
 199 -170 l 1
 233 -177 247 -179 266 -179 c 0
 299 -179 316 -166 316 -142 c 0
 316 -120 302 -107 279 -107 c 0
 270 -107 264 -108 242 -111 c 1
 232 -103 l 1
 271 -17 l 1
 265 -17 l 2
 189 -17 131 -4 57 29 c 1xf6
EndSplineSet
Validated: 1
AlternateSubs2: "'aalt' Access All Alternates lookup 0 subtable" scedilla.sc
AlternateSubs2: "'aalt' Access All Alternates in Latin lookup 0 subtable" scedilla.sc uni0218
Ligature2: "ccmp_lig subtable" S cedillacmb
Substitution2: "'c2sc' Capitals to Small Capitals in Latin lookup 13 subtable" scedilla.sc
Position2: "'cpsp' Capital Spacing in Latin lookup 12 subtable" dx=7 dy=0 dh=14 dv=0
Substitution2: "locl_ROM subtable" uni0218
EndChar

StartChar: thorn
Encoding: 286 254 145
Width: 611
VWidth: 0
Flags: W
TeX: 720 -258
HStem: -258 37<25 60 222.63 299> -17 68<250.054 373.363> 381 90<304.457 434> 641 36<17 70> 700 20G<144.545 218>
VStem: 96 122<-216.979 0 81.375 355.025 383 637.582> 437 126<198.07 320.737>
LayerCount: 2
Fore
SplineSet
17 641 m 1
 17 677 l 1
 75 683 109 689 138 698 c 2
 210 720 l 1
 218 714 l 1
 218 383 l 1
 279 432 l 2
 314 460 343 471 382 471 c 0
 486 471 563 392 563 286 c 0
 563 196 527 118 461 68 c 0
 456 64 455 63 444 55 c 0
 376 1 341 -17 307 -17 c 0
 283 -17 267 -14 218 0 c 1
 218 -155 l 2
 218 -209 223 -218 254 -219 c 2
 299 -221 l 1
 299 -258 l 1
 251 -256 202 -255 154 -255 c 0
 111 -255 68 -256 25 -258 c 1
 25 -221 l 1
 60 -219 l 2
 91 -217 96 -209 96 -155 c 2
 96 568 l 2
 96 627 92 637 70 638 c 2
 17 641 l 1
218 106 m 1
 245 68 277 51 319 51 c 0
 392 51 437 117 437 221 c 0
 437 321 391 381 314 381 c 0
 273 381 240 364 218 331 c 1
 218 106 l 1
EndSplineSet
Validated: 1
AlternateSubs2: "'aalt' Access All Alternates lookup 0 subtable" thorn.sc
AlternateSubs2: "'aalt' Access All Alternates in Latin lookup 0 subtable" thorn.sc
Substitution2: "'smcp' Lowercase to Small Capitals in Latin lookup 2 subtable" thorn.sc
EndChar

StartChar: Thorn
Encoding: 287 222 146
Width: 611
VWidth: 0
Flags: W
TeX: 681 0
HStem: -3 40<39 76 313 360> 184 45<311.352 403.802> 496 50<266.125 397.527> 644 37<39 76 313 350>
VStem: 124 141<43.6915 492.658 547.483 636.281> 430 144<302.395 460.517>
LayerCount: 2
Fore
SplineSet
39 -3 m 1
 39 37 l 1
 76 40 l 2
 123 44 124 46 124 135 c 2
 124 543 l 2
 125 631 121 637 76 641 c 2
 39 644 l 1
 39 681 l 1
 91 679 142 678 194 678 c 0
 246 678 298 679 350 681 c 1
 350 644 l 1
 313 641 l 2
 271 638 265 630 265 572 c 2
 265 549 l 1
 289 547 313 546 337 546 c 0
 422 546 471 539 506 521 c 0
 552 498 574 457 574 396 c 0
 574 278 484 184 372 184 c 1
 318 191 318 190 311 191 c 1
 311 216 l 1
 311 236 l 1
 319 231 335 229 354 229 c 0
 405 229 430 270 430 352 c 0
 430 404 420 447 402 470 c 0
 387 489 369 496 335 496 c 0
 303 496 280 493 265 487 c 1
 265 135 l 2
 265 44 266 43 313 40 c 2
 360 37 l 1
 360 -3 l 1
 305 -1 250 0 195 0 c 0
 143 0 91 -1 39 -3 c 1
EndSplineSet
Validated: 33
AlternateSubs2: "'aalt' Access All Alternates lookup 0 subtable" thorn.sc
AlternateSubs2: "'aalt' Access All Alternates in Latin lookup 0 subtable" thorn.sc
Substitution2: "'c2sc' Capitals to Small Capitals in Latin lookup 13 subtable" thorn.sc
Position2: "'cpsp' Capital Spacing in Latin lookup 12 subtable" dx=7 dy=0 dh=14 dv=0
EndChar

StartChar: three.superior
Encoding: 288 179 147
Width: 300
VWidth: 0
Flags: W
TeX: 660 0
HStem: 251 40<71.5906 175.401> 436 48<92 168.094> 592 65<72.625 171.944>
VStem: 9 26<340.098 360.615> 27 28<533 565.295> 181 73<515.706 582.757> 197 81<327.384 419.214>
LayerCount: 2
Fore
SplineSet
9 359 m 1xf2
 35 365 l 1
 60 311 85 291 126 291 c 0
 168 291 197 322 197 366 c 0xf2
 197 409 169 436 125 436 c 0
 111 436 100 434 87 430 c 1
 80 436 l 1
 92 484 l 1
 116 484 l 2
 155 484 181 507 181 542 c 0
 181 573 159 592 123 592 c 0
 87 592 67 575 55 533 c 1
 27 533 l 1
 47 629 l 1
 85 650 107 657 142 657 c 0
 207 657 254 621 254 571 c 0xec
 254 536 234 508 194 486 c 1
 248 479 278 447 278 397 c 0
 278 316 199 251 103 251 c 0
 71 251 52 255 25 266 c 1
 9 359 l 1xf2
EndSplineSet
Validated: 1
EndChar

StartChar: two.superior
Encoding: 289 178 148
Width: 300
VWidth: 0
Flags: W
TeX: 660 0
HStem: 259 72<102 283> 588 69<70.5561 168.431>
VStem: 26 28<517.5 540.5> 182 86<481.965 574.981>
LayerCount: 2
Fore
SplineSet
12 259 m 1
 12 294 l 1
 113 393 l 2
 159 438 182 482 182 526 c 0
 182 564 158 588 121 588 c 0
 96 588 71 574 66 558 c 2
 54 516 l 1
 26 518 l 1
 37 620 l 1
 74 647 101 657 137 657 c 0
 213 657 268 613 268 552 c 0
 268 513 245 469 205 430 c 2
 102 331 l 1
 283 337 l 1
 287 331 l 1
 285 311 285 308 285 294 c 0
 285 283 284 282 286 267 c 2
 287 259 l 1
 184 260 202 261 147 261 c 0
 94 261 138 261 12 259 c 1
EndSplineSet
Validated: 1
EndChar

StartChar: one.superior
Encoding: 290 185 149
Width: 300
VWidth: 0
Flags: W
TeX: 660 0
HStem: 259 29<42 116.605 207.395 277> 554 49<20.2931 43.225>
VStem: 119 86<290.097 592.849>
LayerCount: 2
Fore
SplineSet
18 597 m 2
 18 598 l 1
 18 603 l 1
 57 612 124 634 201 663 c 1
 211 655 l 1
 206 575 205 557 205 504 c 2
 205 314 l 2
 205 298 215 290 236 289 c 2
 277 288 l 1
 277 259 l 1
 252 259 211 261 168 261 c 0
 119 261 145 260 42 259 c 1
 42 288 l 1
 88 289 l 2
 109 289 119 298 119 314 c 2
 119 575 l 2
 119 584 119 590 118 593 c 2
 116 595 l 1
 115 594 l 1
 28 554 l 1
 20 573 18 582 18 597 c 2
EndSplineSet
Validated: 1
EndChar

StartChar: threequarters
Encoding: 291 190 150
Width: 750
VWidth: 0
GlyphClass: 3
Flags: W
TeX: 660 0
HStem: -2 21G<520 520 735 735> 99 53<489 595 679 733> 261 37<76.6228 185.389> 449 42<104 182.967> 606 61<80.3497 189.235>
VStem: 15 22<350.239 366.591> 35 26<548 575.293> 200 72<529.52 595.464> 217 81<338.001 426.853> 595 84<34.0711 99 152 331>
LayerCount: 2
Fore
SplineSet
15 365 m 1xfcc0
 37 370 l 1
 62 319 90 298 133 298 c 0
 180 298 217 332 217 376 c 0xfcc0
 217 419 184 449 137 449 c 0
 123 449 113 448 96 444 c 1
 91 447 l 1
 104 491 l 1
 126 491 l 2
 171 491 200 516 200 554 c 0
 200 587 176 606 135 606 c 0
 97 606 73 588 61 548 c 1
 35 548 l 1
 55 640 l 1
 93 660 119 667 155 667 c 0
 223 667 272 631 272 582 c 0xfb40
 272 546 248 518 198 494 c 1
 266 488 298 459 298 405 c 0
 298 325 215 261 111 261 c 0
 80 261 57 265 31 275 c 1
 15 365 l 1xfcc0
160 0 m 1
 563 660 l 1
 632 660 l 1
 229 0 l 1
 160 0 l 1
436 122 m 1
 444 145 455 169 467 190 c 2
 545 319 l 2
 559 342 574 362 595 387 c 1
 671 403 l 1
 679 396 l 1
 679 152 l 1
 733 152 l 1
 733 99 l 1
 679 99 l 1
 679 75 l 2
 679 47 691 33 716 30 c 2
 735 28 l 1
 735 -2 l 1
 735 -2 675 0 637 0 c 0
 591 0 520 -2 520 -2 c 1
 520 28 l 1
 558 30 l 2
 582 31 595 48 595 75 c 2
 595 99 l 1
 440 99 l 1
 436 122 l 1
489 152 m 1
 595 152 l 1
 595 331 l 1
 489 152 l 1
EndSplineSet
Validated: 1
Ligature2: "'frac' Diagonal Fractions in Latin lookup 20 subtable" three fraction four
Ligature2: "'frac' Diagonal Fractions in Latin lookup 20 subtable" three slash four
EndChar

StartChar: onehalf
Encoding: 292 189 151
Width: 750
VWidth: 0
GlyphClass: 3
Flags: W
TeX: 660 0
HStem: -2 78<601.556 740> 0 67<562 700.444> 261 32<35 107.296> 329 68<516.573 616.865>
VStem: 115 93<296.656 590.125> 470 28<258 278.1> 633 92<220.315 313.788>
LayerCount: 2
Fore
SplineSet
9 604 m 1x3e
 62 618 93 627 207 665 c 1
 215 660 l 1
 211 617 l 2
 209 592 208 584 208 570 c 2
 208 338 l 2
 208 311 221 294 245 293 c 2
 282 291 l 1
 282 261 l 1
 282 261 211 263 166 263 c 0
 115 263 131 262 35 261 c 1
 35 291 l 1
 77 293 l 2
 101 294 115 311 115 338 c 2
 115 573 l 2
 115 590 113 596 109 596 c 2
 105 595 l 1
 18 556 l 1
 11 580 9 592 9 604 c 1x3e
155 0 m 1x7e
 558 660 l 1
 627 660 l 1
 224 0 l 1
 155 0 l 1x7e
455 -2 m 1xbe
 455 35 l 1
 563 136 l 2
 610 180 633 222 633 264 c 0
 633 304 606 329 564 329 c 0
 532 329 517 318 508 288 c 2
 498 255 l 1
 470 259 l 1
 482 360 l 1
 520 387 549 397 586 397 c 0
 667 397 725 353 725 292 c 0
 725 251 701 205 658 165 c 2
 562 75 l 1
 562 67 l 1x7e
 740 76 l 1
 745 71 l 1
 743 53 743 45 743 32 c 0
 743 20 743 13 745 -2 c 1xbe
 612 0 657 0 601 0 c 0x7e
 544 0 573 0 455 -2 c 1xbe
EndSplineSet
Validated: 1
Ligature2: "'frac' Diagonal Fractions in Latin lookup 20 subtable" one fraction two
Ligature2: "'frac' Diagonal Fractions in Latin lookup 20 subtable" one slash two
EndChar

StartChar: onequarter
Encoding: 293 188 152
Width: 750
VWidth: 0
GlyphClass: 3
Flags: W
TeX: 660 0
HStem: -2 21G<520 520 735 735> 99 53<489 595 679 733> 261 32<45 117.296> 556 48<26.1606 43.6579>
VStem: 125 93<296.916 595.566> 595 84<34.0711 99 152 331>
LayerCount: 2
Fore
SplineSet
19 604 m 1
 72 618 103 627 217 665 c 1
 225 660 l 1
 221 617 l 2
 219 592 218 584 218 570 c 2
 218 338 l 2
 218 310 231 294 255 293 c 2
 292 291 l 1
 292 261 l 1
 292 261 221 263 176 263 c 0
 125 263 141 262 45 261 c 1
 45 291 l 1
 87 293 l 2
 111 294 125 311 125 338 c 2
 125 573 l 2
 125 590 123 596 119 596 c 2
 113 594 l 1
 28 556 l 1
 21 580 19 592 19 604 c 1
188 0 m 1
 591 660 l 1
 660 660 l 1
 257 0 l 1
 188 0 l 1
436 122 m 1
 444 145 455 169 467 190 c 2
 545 319 l 2
 559 342 574 362 595 387 c 1
 671 403 l 1
 679 396 l 1
 679 152 l 1
 733 152 l 1
 733 99 l 1
 679 99 l 1
 679 75 l 2
 679 47 691 33 716 30 c 2
 735 28 l 1
 735 -2 l 1
 735 -2 675 0 637 0 c 0
 591 0 520 -2 520 -2 c 1
 520 28 l 1
 558 30 l 2
 582 31 595 48 595 75 c 2
 595 99 l 1
 440 99 l 1
 436 122 l 1
489 152 m 1
 595 152 l 1
 595 331 l 1
 489 152 l 1
EndSplineSet
Validated: 1
Ligature2: "'frac' Diagonal Fractions in Latin lookup 20 subtable" one fraction four
Ligature2: "'frac' Diagonal Fractions in Latin lookup 20 subtable" one slash four
EndChar

StartChar: ordmasculine
Encoding: 294 186 153
Width: 488
VWidth: 0
Flags: W
TeX: 681 0
HStem: 288 48<89 399> 367 29<209.811 286.241> 631 29<201.179 279.746>
VStem: 89 88<425.547 598.084> 311 88<433.422 602.563>
LayerCount: 2
Fore
SplineSet
89 288 m 1
 89 336 l 1
 399 336 l 1
 399 288 l 1
 89 288 l 1
89 514 m 0
 89 608 147 660 250 660 c 0
 346 660 399 609 399 517 c 0
 399 422 339 367 236 367 c 0
 141 367 89 419 89 514 c 0
177 528 m 0
 177 441 201 396 248 396 c 0
 292 396 311 427 311 500 c 0
 311 588 288 631 241 631 c 0
 197 631 177 599 177 528 c 0
EndSplineSet
Validated: 1
EndChar

StartChar: ordfeminine
Encoding: 295 170 154
Width: 438
VWidth: 0
Flags: W
TeX: 681 0
HStem: 288 48<77 361> 367 52<129 204.775> 376 22<342 361>
VStem: 77 79<420.763 496.028> 245 79<428.948 517 542 584.439>
LayerCount: 2
Fore
SplineSet
77 288 m 1x98
 77 336 l 1
 361 336 l 1
 361 288 l 1
 77 288 l 1x98
77 442 m 0
 77 480 92 501 131 516 c 0
 146 522 172 529 188 532 c 2
 245 542 l 1
 244 563 242 573 235 585 c 0
 226 601 201 615 183 614 c 2
 183 614 180 614 177 613 c 2
 141 605 l 1
 127 575 l 1
 105 579 l 1
 105 618 l 1
 182 655 l 2
 189 658 200 660 215 660 c 0
 285 660 324 628 324 572 c 2
 324 424 l 2
 324 408 329 401 342 400 c 2
 361 398 l 1
 361 376 l 1
 342 376 326 377 304 377 c 0
 281 377 265 376 245 376 c 1xb8
 242 380 l 1
 245 418 l 1
 185 374 l 2
 179 370 167 367 154 367 c 0xd8
 104 367 77 393 77 442 c 0
156 457 m 0
 156 434 169 419 189 419 c 0xd8
 209 419 229 429 245 446 c 1
 245 517 l 1
 216 510 l 2
 171 499 156 486 156 457 c 0
EndSplineSet
Validated: 33
EndChar

StartChar: quotesinglbase
Encoding: 296 8218 155
Width: 333
VWidth: 0
Flags: W
TeX: 130 -160
HStem: -160 290
VStem: 56 220
LayerCount: 2
Fore
SplineSet
56 -144 m 1
 91 -64 119 25 130 97 c 1
 178 103 224 114 262 130 c 1
 276 117 l 1
 246 50 193 -44 136 -133 c 1
 70 -160 l 1
 56 -144 l 1
EndSplineSet
Validated: 1
EndChar

StartChar: guilsinglright
Encoding: 297 8250 156
Width: 389
VWidth: 0
Flags: W
TeX: 438 0
VStem: 82 225
LayerCount: 2
Fore
SplineSet
82 64 m 1
 192 243 l 1
 82 416 l 1
 109 438 l 1
 150 396 216 335 307 256 c 1
 307 231 l 1
 258 191 197 134 109 44 c 1
 82 64 l 1
EndSplineSet
Validated: 1
EndChar

StartChar: guilsinglleft
Encoding: 298 8249 157
Width: 389
VWidth: 0
Flags: W
TeX: 438 0
VStem: 82 225
LayerCount: 2
Fore
SplineSet
82 231 m 1
 82 256 l 1
 188 349 229 386 280 438 c 1
 307 416 l 1
 197 243 l 1
 307 64 l 1
 280 44 l 1
 190 136 132 190 82 231 c 1
EndSplineSet
Validated: 1
EndChar

StartChar: florin
Encoding: 299 402 158
Width: 500
VWidth: 0
Flags: W
TeX: 703 -242
HStem: 368 44<108 207 338 439>
LayerCount: 2
Fore
SplineSet
11 -242 m 1
 16 -214 18 -194 19 -154 c 1
 33 -146 l 1
 42 -161 62 -171 82 -171 c 0
 106 -171 129 -146 134 -114 c 2
 207 368 l 1
 95 368 l 1
 108 412 l 1
 213 412 l 1
 229 482 257 551 289 592 c 0
 343 663 415 701 490 703 c 1
 483 620 l 1
 473 620 l 1
 452 635 439 640 424 640 c 0
 391 640 370 616 363 570 c 2
 338 412 l 1
 452 412 l 1
 439 368 l 1
 329 368 l 1
 277 58 l 2
 248 -116 140 -235 11 -242 c 1
EndSplineSet
Validated: 1
EndChar

StartChar: yen
Encoding: 300 165 159
Width: 500
VWidth: 0
Flags: W
TeX: 681 0
HStem: -3 40<154 180 352 378> 206 40<66 215 317 466> 342 40<66 174 348 466> 622 37<17 39.3611> 675 20G<68.1111 148>
VStem: 215 102<42.068 206 246 337.602>
LayerCount: 2
Fore
SplineSet
17 622 m 1
 17 659 l 1
 132 695 l 1
 164 669 183 637 214 559 c 2
 294 356 l 1
 427 678 l 1
 483 678 l 1
 483 659 l 1
 348 382 l 1
 466 382 l 1
 466 342 l 1
 332 342 l 1
 321 318 317 303 317 284 c 2
 317 246 l 1
 466 246 l 1
 466 206 l 1
 317 206 l 1
 317 135 l 2
 317 45 317 44 352 40 c 2
 378 37 l 1
 378 -3 l 1
 342 -1 305 0 269 0 c 0
 231 0 192 -1 154 -3 c 1
 154 37 l 1
 180 40 l 2
 214 44 215 46 215 135 c 2
 215 206 l 1
 66 206 l 1
 66 246 l 1
 215 246 l 1
 215 286 l 2
 215 297 209 312 196 334 c 0
 193 338 192 339 191 342 c 2
 66 342 l 1
 66 382 l 1
 174 382 l 1
 111 522 l 2
 74 605 52 623 17 622 c 1
EndSplineSet
Validated: 33
EndChar

StartChar: sterling
Encoding: 301 163 160
Width: 500
VWidth: 0
Flags: W
TeX: 681 0
HStem: -16 108<262.916 452.338> 32 80<89.5991 245.572> 320 43<16 106 236 404> 610 66<310.94 416.683>
VStem: 106 130<363 450.5> 439 31<513 548> 467 34<142.364 178>
LayerCount: 2
Fore
SplineSet
-2 40 m 1x7a
 62 92 l 2xba
 99 122 103 149 106 320 c 1
 16 320 l 1
 16 363 l 1
 106 363 l 1
 106 406 l 2
 106 461 124 508 161 550 c 0
 221 619 331 676 404 676 c 0
 431 676 459 666 480 649 c 1
 470 513 l 1
 439 513 l 1
 436 548 l 2
 433 586 401 610 355 610 c 0
 283 610 253 570 244 463 c 2
 236 363 l 1
 404 363 l 1
 404 320 l 1
 231 320 l 1
 212 223 179 157 117 93 c 1
 167 108 191 112 221 112 c 0x7c
 240 112 243 112 318 101 c 0
 371 93 384 92 406 92 c 0
 433 92 452 104 456 122 c 2
 467 178 l 1
 501 178 l 1
 491 -1 l 1
 462 -11 437 -16 408 -16 c 0xba
 362 -16 308 -7 246 10 c 0
 195 24 149 32 113 32 c 0
 98 32 85 26 62 7 c 0
 45 -8 32 -15 18 -19 c 1
 -2 40 l 1x7a
EndSplineSet
Validated: 1
EndChar

StartChar: cent
Encoding: 302 162 161
Width: 500
VWidth: 0
Flags: W
TeX: 554 -106
HStem: -17 72<276.338 405.764> 401 75<256.961 313>
VStem: 73 123<152.108 327.012> 390 38<296 356>
LayerCount: 2
Fore
SplineSet
73 214 m 0
 73 265 82 307 102 343 c 0
 113 363 128 377 166 401 c 2
 218 434 l 2
 260 460 303 475 336 476 c 1
 362 554 l 1
 403 554 l 1
 378 473 l 1
 411 465 426 460 441 453 c 1
 446 444 l 1
 437 404 431 351 428 296 c 1
 390 296 l 1
 384 356 l 2
 383 369 368 385 353 389 c 1
 262 87 l 1
 290 64 317 55 358 55 c 0
 391 55 411 60 441 75 c 1
 450 64 l 1
 429 17 l 1
 425 13 l 1
 379 -8 342 -17 299 -17 c 0
 285 -17 272 -15 240 -12 c 2
 230 -11 l 1
 198 -106 l 1
 156 -106 l 1
 192 0 l 1
 109 42 73 106 73 214 c 0
196 263 m 0
 196 209 205 174 230 124 c 1
 313 400 l 1
 305 401 297 401 292 401 c 0
 228 401 196 355 196 263 c 0
EndSplineSet
Validated: 1
AlternateSubs2: "'aalt' Access All Alternates lookup 0 subtable" cent.oldstyle
AlternateSubs2: "'aalt' Access All Alternates in Latin lookup 0 subtable" cent.oldstyle
Substitution2: "'onum' Oldstyle Figures in Latin lookup 3 subtable" cent.oldstyle
EndChar

StartChar: Oogonek
Encoding: 303 490 162
Width: 833
VWidth: 0
GlyphClass: 3
Flags: W
TeX: 681 -250
HStem: -250 66<370.338 491.261> -17 56<325.263 383> 639 56<321.324 511.244>
VStem: 47 150<204.245 469.803> 313 78<-178.026 -68.9175> 637 150<206.998 475.655>
AnchorPoint: "bot_acc" 425 -378 basechar 0
AnchorPoint: "dotbelow" 425 -378 basechar 0
AnchorPoint: "ogon_acc" 425 -378 basechar 0
AnchorPoint: "top_accu" 417 809 basechar 0
AnchorPoint: "dotabove" 417 809 basechar 0
LayerCount: 2
Fore
SplineSet
47 332 m 0
 47 561 188 695 430 695 c 0
 656 695 787 566 787 346 c 0
 787 152 685 26 508 -8 c 0
 474 -14 437 -22 418 -48 c 0
 402 -71 391 -97 391 -124 c 0
 391 -151 399 -184 433 -184 c 0
 458 -184 486 -183 494 -161 c 2
 506 -131 l 1
 536 -138 l 1
 536 -197 l 1
 483 -234 l 2
 460 -250 428 -250 399 -250 c 0
 342 -250 313 -201 313 -149 c 0
 313 -87 345 -46 383 -17 c 1
 169 -8 47 118 47 332 c 0
197 355 m 0
 197 240 228 144 282 91 c 0
 318 55 359 39 414 39 c 0
 560 39 637 137 637 325 c 0
 637 438 606 534 551 588 c 0
 516 622 474 639 421 639 c 0
 358 639 306 620 267 582 c 0
 222 537 197 457 197 355 c 0
EndSplineSet
Validated: 1
AlternateSubs2: "'aalt' Access All Alternates lookup 0 subtable" oogonek.sc
AlternateSubs2: "'aalt' Access All Alternates in Latin lookup 0 subtable" oogonek.sc
Ligature2: "ccmp_lig subtable" O ogonekcomb
Substitution2: "'c2sc' Capitals to Small Capitals in Latin lookup 13 subtable" oogonek.sc
Position2: "'cpsp' Capital Spacing in Latin lookup 12 subtable" dx=7 dy=0 dh=14 dv=0
EndChar

StartChar: oogonek
Encoding: 304 491 163
Width: 556
VWidth: 0
GlyphClass: 3
Flags: W
TeX: 454 -250
HStem: -250 66<229.338 350.417> 423 48<216.518 329.18>
VStem: 40 136<104.853 341.567> 172 78<-178.026 -67.8985> 381 136<114.256 351.804>
AnchorPoint: "bot_acc" 284 -378 basechar 0
AnchorPoint: "dotbelow" 284 -378 basechar 0
AnchorPoint: "ogon_acc" 284 -378 basechar 0
AnchorPoint: "top_accl" 279 599 basechar 0
AnchorPoint: "dotabove" 279 599 basechar 0
LayerCount: 2
Fore
SplineSet
40 224 m 0xe8
 40 383 128 471 287 471 c 0
 435 471 517 388 517 236 c 0
 517 106 459 22 354 -6 c 0
 325 -14 294 -23 277 -48 c 0
 261 -71 250 -97 250 -124 c 0
 250 -151 258 -184 292 -184 c 0
 316 -184 344 -183 353 -161 c 2
 365 -131 l 1
 395 -138 l 1
 395 -197 l 1
 342 -234 l 2
 319 -250 287 -250 258 -250 c 0
 201 -250 172 -201 172 -149 c 0xd8
 172 -86 204 -45 242 -16 c 1
 113 -7 40 79 40 224 c 0xe8
176 248 m 0xe8
 176 104 213 31 285 31 c 0
 353 31 381 83 381 205 c 0
 381 352 347 423 275 423 c 0
 206 423 176 369 176 248 c 0xe8
EndSplineSet
Validated: 1
AlternateSubs2: "'aalt' Access All Alternates lookup 0 subtable" oogonek.sc
AlternateSubs2: "'aalt' Access All Alternates in Latin lookup 0 subtable" oogonek.sc
Ligature2: "ccmp_lig subtable" o ogonekcomb
Substitution2: "'smcp' Lowercase to Small Capitals in Latin lookup 2 subtable" oogonek.sc
EndChar

StartChar: Ohorn
Encoding: 305 416 164
Width: 833
VWidth: 0
GlyphClass: 2
Flags: W
TeX: 681 0
HStem: -17 56<323.523 513.639> 639 56<321.324 510.804>
VStem: 47 150<206.369 469.803> 637 150<208.956 474.448>
AnchorPoint: "bot_acc" 419 -145 basechar 0
AnchorPoint: "dotbelow" 419 -145 basechar 0
AnchorPoint: "ogon_acc" 419 -145 basechar 0
AnchorPoint: "top_accu" 419 809 basechar 0
AnchorPoint: "dotabove" 419 809 basechar 0
LayerCount: 2
Fore
SplineSet
47 332 m 0
 47 561 188 695 430 695 c 0
 535 695 620 667 680 615 c 1
 708 635 717 664 717 713 c 2
 717 729 l 1
 762 737 798 743 834 751 c 1
 846 742 l 1
 832 701 788 620 718 576 c 1
 763 518 787 440 787 346 c 0
 787 118 646 -17 407 -17 c 0
 178 -17 47 110 47 332 c 0
197 355 m 0
 197 240 228 144 282 91 c 0
 318 55 359 39 414 39 c 0
 560 39 637 137 637 325 c 0
 637 438 606 534 551 588 c 0
 516 622 474 639 421 639 c 0
 358 639 306 620 267 582 c 0
 222 537 197 457 197 355 c 0
EndSplineSet
Validated: 1
AlternateSubs2: "'aalt' Access All Alternates lookup 0 subtable" ohorn.sc
AlternateSubs2: "'aalt' Access All Alternates in Latin lookup 0 subtable" ohorn.sc
Substitution2: "'c2sc' Capitals to Small Capitals in Latin lookup 13 subtable" ohorn.sc
Position2: "'cpsp' Capital Spacing in Latin lookup 12 subtable" dx=7 dy=0 dh=14 dv=0
EndChar

StartChar: Uhorn
Encoding: 306 431 165
Width: 819
VWidth: 0
GlyphClass: 2
Flags: W
TeX: 681 0
HStem: -17 82<320.98 530.231> 644 37<26 63 300 337 531 568>
VStem: 111 141<135.692 636.375> 616 59<147.154 564.39 612 636.375>
AnchorPoint: "bot_acc" 434 -145 basechar 0
AnchorPoint: "dotbelow" 434 -145 basechar 0
AnchorPoint: "ogon_acc" 434 -145 basechar 0
AnchorPoint: "top_accu" 434 809 basechar 0
AnchorPoint: "dotabove" 434 809 basechar 0
LayerCount: 2
Fore
SplineSet
26 644 m 1
 26 681 l 1
 78 679 129 678 181 678 c 0
 233 678 285 679 337 681 c 1
 337 644 l 1
 300 641 l 2
 255 637 252 631 252 543 c 2
 252 295 l 2
 252 193 261 146 287 114 c 0
 314 81 359 65 428 65 c 0
 494 65 541 79 569 108 c 0
 603 143 616 196 616 302 c 2
 616 543 l 2
 616 631 613 637 568 641 c 2
 531 644 l 1
 531 681 l 1
 569 679 608 678 646 678 c 0
 656 678 665 679 675 681 c 1
 675 612 l 1
 706 633 715 662 715 713 c 2
 715 729 l 1
 760 737 796 743 832 751 c 1
 844 742 l 1
 828 693 769 590 675 555 c 1
 675 251 l 2
 675 70 582 -17 391 -17 c 0
 219 -17 111 58 111 177 c 2
 111 543 l 2
 111 631 108 637 63 641 c 2
 26 644 l 1
EndSplineSet
Validated: 1
AlternateSubs2: "'aalt' Access All Alternates lookup 0 subtable" uhorn.sc
AlternateSubs2: "'aalt' Access All Alternates in Latin lookup 0 subtable" uhorn.sc
Substitution2: "'c2sc' Capitals to Small Capitals in Latin lookup 13 subtable" uhorn.sc
Position2: "'cpsp' Capital Spacing in Latin lookup 12 subtable" dx=7 dy=0 dh=14 dv=0
EndChar

StartChar: ohorn
Encoding: 307 417 166
Width: 598
VWidth: 0
GlyphClass: 2
Flags: W
TeX: 454 0
HStem: -17 48<227.855 343.283> 423 48<216.518 331.283>
VStem: 40 136<104.446 341.567> 381 136<115.494 352.023>
AnchorPoint: "bot_acc" 277 -145 basechar 0
AnchorPoint: "dotbelow" 277 -145 basechar 0
AnchorPoint: "ogon_acc" 277 -145 basechar 0
AnchorPoint: "top_accl" 277 599 basechar 0
AnchorPoint: "dotabove" 277 599 basechar 0
LayerCount: 2
Fore
SplineSet
40 224 m 0
 40 383 128 471 287 471 c 0
 363 471 421 449 460 407 c 1
 486 428 494 456 494 503 c 2
 494 519 l 1
 539 527 575 533 611 541 c 1
 623 532 l 1
 609 490 564 407 491 363 c 1
 508 329 517 286 517 236 c 0
 517 74 427 -17 267 -17 c 0
 122 -17 40 70 40 224 c 0
176 248 m 0
 176 104 213 31 285 31 c 0
 353 31 381 83 381 205 c 0
 381 352 347 423 275 423 c 0
 206 423 176 369 176 248 c 0
EndSplineSet
Validated: 1
AlternateSubs2: "'aalt' Access All Alternates lookup 0 subtable" ohorn.sc
AlternateSubs2: "'aalt' Access All Alternates in Latin lookup 0 subtable" ohorn.sc
Substitution2: "'smcp' Lowercase to Small Capitals in Latin lookup 2 subtable" ohorn.sc
EndChar

StartChar: uhorn
Encoding: 308 432 167
Width: 649
VWidth: 0
GlyphClass: 2
Flags: W
TeX: 454 0
HStem: -17 90<241.743 313.775> -3 37<550 583> 392 36<25 70 321 366> 451 20G<144.364 218 440.364 514>
VStem: 96 122<100.091 388.532> 392 122<106.045 356.238>
AnchorPoint: "bot_acc" 305 -145 basechar 0
AnchorPoint: "dotbelow" 305 -145 basechar 0
AnchorPoint: "ogon_acc" 305 -145 basechar 0
AnchorPoint: "top_accl" 305 599 basechar 0
AnchorPoint: "dotabove" 305 599 basechar 0
LayerCount: 2
Fore
SplineSet
25 392 m 1xbc
 25 428 l 1
 88 436 105 439 138 449 c 2
 208 471 l 1
 218 465 l 1
 218 204 l 2
 218 108 239 73 296 73 c 0xbc
 349 73 392 114 392 163 c 2
 392 319 l 2
 392 378 389 387 366 389 c 2
 321 392 l 1
 321 428 l 1
 383 436 401 439 434 449 c 2
 504 471 l 1
 514 465 l 1
 514 406 l 1
 541 426 549 455 549 503 c 2
 549 519 l 1
 594 527 630 533 666 541 c 1
 678 532 l 1
 662 484 605 384 514 347 c 1
 514 100 l 2
 514 46 519 38 550 36 c 2
 583 34 l 1
 583 -3 l 1
 562 -2 543 -2 536 -2 c 0
 508 0 491 0 481 0 c 2
 387 -3 l 1x7c
 392 80 l 1
 316 6 l 2
 301 -9 275 -17 246 -17 c 0
 150 -17 96 39 96 140 c 2
 96 319 l 2
 96 378 93 387 70 389 c 2
 25 392 l 1xbc
EndSplineSet
Validated: 1
AlternateSubs2: "'aalt' Access All Alternates lookup 0 subtable" uhorn.sc
AlternateSubs2: "'aalt' Access All Alternates in Latin lookup 0 subtable" uhorn.sc
Substitution2: "'smcp' Lowercase to Small Capitals in Latin lookup 2 subtable" uhorn.sc
EndChar

StartChar: space_uni0309
Encoding: 309 -1 168
Width: 333
VWidth: 0
Flags: W
TeX: 714 0
HStem: 669 45<116.058 183.758>
VStem: 129 33<528.785 570.195> 184 70<609.765 667.196>
LayerCount: 2
Fore
SplineSet
79 640 m 1
 95 696 l 1
 123 710 140 714 167 714 c 0
 220 714 254 690 254 652 c 0
 254 631 245 615 221 599 c 2
 187 577 l 2
 171 566 162 556 162 550 c 0
 162 546 165 538 169 532 c 1
 145 525 l 1
 140 531 129 546 129 558 c 0
 129 576 184 628 184 645 c 0
 184 659 169 669 147 669 c 0
 134 669 122 666 120 664 c 2
 105 635 l 1
 79 640 l 1
EndSplineSet
Validated: 1
EndChar

StartChar: space_uni0309.cap
Encoding: 310 -1 169
Width: 333
VWidth: 0
Flags: W
TeX: 697 0
HStem: 652 45<116.058 183.758>
VStem: 129 33<511.785 553.195> 184 70<592.765 650.196>
LayerCount: 2
Fore
SplineSet
79 623 m 1
 95 679 l 1
 123 693 140 697 167 697 c 0
 220 697 254 673 254 635 c 0
 254 614 245 598 221 582 c 2
 187 560 l 2
 171 549 162 539 162 533 c 0
 162 529 165 521 169 515 c 1
 145 508 l 1
 140 514 129 529 129 541 c 0
 129 559 184 611 184 628 c 0
 184 642 169 652 147 652 c 0
 134 652 122 649 120 647 c 2
 105 618 l 1
 79 623 l 1
EndSplineSet
Validated: 1
EndChar

StartChar: zero.taboldstyle
Encoding: 311 -1 170
Width: 500
VWidth: 0
Flags: W
TeX: 481 -17
HStem: -17 50<203.688 318.19> 431 50<194.251 307.297>
VStem: 38 115<114.517 342.386> 353 116<121.127 355.307>
LayerCount: 2
Fore
SplineSet
38 214 m 0
 38 387 129 481 266 481 c 0
 395 481 469 367 469 248 c 0
 469 45 339 -17 242 -17 c 0
 140 -17 38 84 38 214 c 0
153 272 m 0
 153 100 192 33 255 33 c 0
 315 33 353 74 353 152 c 0
 353 392 321 431 245 431 c 0
 179 431 153 351 153 272 c 0
EndSplineSet
Validated: 1
AlternateSubs2: "'aalt' Access All Alternates lookup 0 subtable" zero.oldstyle zero
AlternateSubs2: "'aalt' Access All Alternates in Latin lookup 0 subtable" zero.oldstyle zero
Substitution2: "'pnum' Proportional Numbers in Latin lookup 5 subtable" zero.oldstyle
Substitution2: "'lnum' Lining Figures in Latin lookup 4 subtable" zero
EndChar

StartChar: one.taboldstyle
Encoding: 312 -1 171
Width: 500
VWidth: 0
Flags: W
TeX: 480 -3
HStem: -3 40<75 195.984 344.016 455>
VStem: 204 132<45.6928 370.953>
LayerCount: 2
Fore
SplineSet
35 379 m 1
 97 393 212 432 334 480 c 1
 346 470 l 1
 338 358 336 295 336 216 c 2
 336 84 l 2
 336 54 355 39 393 37 c 2
 455 34 l 1
 455 -3 l 1
 396 -1 337 0 278 0 c 0
 210 0 143 -1 75 -3 c 1
 75 34 l 1
 147 37 l 2
 185 39 204 55 204 84 c 2
 204 337 l 2
 204 359 207 382 189 374 c 2
 49 309 l 1
 39 335 35 354 35 379 c 1
EndSplineSet
Validated: 33
AlternateSubs2: "'aalt' Access All Alternates lookup 0 subtable" one.oldstyle one
AlternateSubs2: "'aalt' Access All Alternates in Latin lookup 0 subtable" one.oldstyle one
Substitution2: "'pnum' Proportional Numbers in Latin lookup 5 subtable" one.oldstyle
Substitution2: "'lnum' Lining Figures in Latin lookup 4 subtable" one
EndChar

StartChar: two.taboldstyle
Encoding: 313 -1 172
Width: 500
VWidth: 0
Flags: W
TeX: 474 -3
HStem: 0 96<166 424.946> 369 105<129.059 257.82>
VStem: 279 132<266.76 349.051>
LayerCount: 2
Fore
SplineSet
25 -3 m 1
 25 48 l 1
 62 84 l 1
 210 178 279 222 279 287 c 0
 279 334 260 369 201 369 c 0
 157 369 122 362 104 334 c 2
 86 306 l 1
 49 309 l 1
 67 414 l 1
 124 457 169 474 228 474 c 0
 352 474 411 420 411 331 c 0
 411 235 275 162 164 104 c 1
 166 96 l 1
 300 96 468 117 468 117 c 1
 472 112 l 1
 470 85 469 72 469 50 c 0
 469 34 469 21 471 -3 c 1
 394 -1 318 0 241 0 c 0
 169 0 97 -1 25 -3 c 1
EndSplineSet
Validated: 1
AlternateSubs2: "'aalt' Access All Alternates lookup 0 subtable" two.oldstyle two
AlternateSubs2: "'aalt' Access All Alternates in Latin lookup 0 subtable" two.oldstyle two
Substitution2: "'pnum' Proportional Numbers in Latin lookup 5 subtable" two.oldstyle
Substitution2: "'lnum' Lining Figures in Latin lookup 4 subtable" two
EndChar

StartChar: three.taboldstyle
Encoding: 314 -1 173
Width: 500
VWidth: 0
Flags: W
TeX: 481 -234
HStem: -234 68<97 212.963> 109 79<159 206.971> 117 71<159 265.421> 383 98<130.075 275.576>
VStem: 307 111<267.809 351.911> 334 124<-36.7398 67.6299>
LayerCount: 2
Fore
SplineSet
37 -163 m 1xd4
 52 -142 l 1
 97 -161 116 -166 158 -166 c 0
 250 -166 334 -90 334 -7 c 0
 334 68 284 117 208 117 c 0xb4
 186 117 167 115 147 109 c 1
 140 114 l 1
 159 188 l 1
 194 188 l 2
 262 188 307 229 307 293 c 0
 307 348 268 383 205 383 c 0
 144 383 107 369 88 312 c 1
 53 312 l 1
 84 436 l 1
 142 469 182 481 237 481 c 0
 342 481 418 422 418 340 c 0xd8
 418 279 383 234 306 194 c 1
 351 189 372 183 397 167 c 0
 437 140 458 99 458 46 c 0
 458 -88 276 -234 97 -234 c 1
 37 -163 l 1xd4
EndSplineSet
Validated: 1
AlternateSubs2: "'aalt' Access All Alternates lookup 0 subtable" three.oldstyle three
AlternateSubs2: "'aalt' Access All Alternates in Latin lookup 0 subtable" three.oldstyle three
Substitution2: "'pnum' Proportional Numbers in Latin lookup 5 subtable" three.oldstyle
Substitution2: "'lnum' Lining Figures in Latin lookup 4 subtable" three
EndChar

StartChar: four.taboldstyle
Encoding: 315 -1 174
Width: 500
VWidth: 0
Flags: W
TeX: 507 -232
HStem: 0 82<82 263 380 468>
VStem: 263 117<-194 0 82 414>
LayerCount: 2
Fore
SplineSet
12 39 m 1
 69 181 140 309 257 480 c 1
 379 507 l 1
 386 495 l 1
 380 207 l 1
 380 82 l 1
 468 82 l 1
 469 79 l 1
 469 0 l 1
 380 0 l 1
 380 -194 l 1
 263 -232 l 1
 263 0 l 1
 19 0 l 1
 12 39 l 1
82 82 m 1
 263 82 l 1
 263 414 l 1
 224 351 234 376 188 291 c 2
 126 175 l 2
 110 145 96 113 82 82 c 1
EndSplineSet
Validated: 1
AlternateSubs2: "'aalt' Access All Alternates lookup 0 subtable" four.oldstyle four
AlternateSubs2: "'aalt' Access All Alternates in Latin lookup 0 subtable" four.oldstyle four
Substitution2: "'pnum' Proportional Numbers in Latin lookup 5 subtable" four.oldstyle
Substitution2: "'lnum' Lining Figures in Latin lookup 4 subtable" four
EndChar

StartChar: five.taboldstyle
Encoding: 316 -1 175
Width: 500
VWidth: 0
Flags: W
TeX: 474 -234
HStem: -234 68<67 192.78> 136 103<162.809 280.969> 363 108<138.064 424.937>
VStem: 85 49<206.168 360> 323 118<-27.0393 89.7947>
LayerCount: 2
Fore
SplineSet
7 -163 m 1
 22 -142 l 1
 67 -161 96 -166 138 -166 c 0
 230 -166 323 -85 323 -2 c 0
 323 82 291 136 210 136 c 0
 166 136 131 124 98 96 c 1
 79 107 l 1
 84 186 85 210 85 231 c 2
 85 333 l 2
 85 367 84 397 79 469 c 1
 79 469 86 477 86 474 c 0
 143 472 199 471 256 471 c 0
 315 471 374 472 433 474 c 0
 433 477 437 469 437 469 c 1
 432 447 430 433 430 413 c 0
 430 401 430 387 431 371 c 1
 425 360 l 1
 425 360 338 363 282 363 c 0
 226 363 138 360 138 360 c 1
 134 205 l 1
 191 231 221 239 264 239 c 0
 385 239 441 169 441 58 c 0
 441 -93 246 -234 67 -234 c 1
 7 -163 l 1
EndSplineSet
Validated: 1
AlternateSubs2: "'aalt' Access All Alternates lookup 0 subtable" five.oldstyle five
AlternateSubs2: "'aalt' Access All Alternates in Latin lookup 0 subtable" five.oldstyle five
Substitution2: "'pnum' Proportional Numbers in Latin lookup 5 subtable" five.oldstyle
Substitution2: "'lnum' Lining Figures in Latin lookup 4 subtable" five
EndChar

StartChar: six.taboldstyle
Encoding: 317 -1 176
Width: 500
VWidth: 0
Flags: W
TeX: 681 -17
HStem: -17 50<210.103 315.048> 323 86<232.895 361.5> 618 42<306.682 396>
VStem: 37 128<122.651 349.197> 351 118<111.394 271.163>
LayerCount: 2
Fore
SplineSet
37 264 m 0
 37 404 86 513 186 590 c 0
 251 640 303 658 396 660 c 1
 435 633 l 1
 420 617 l 1
 411 618 403 618 399 618 c 0
 327 618 261 584 221 524 c 0
 190 478 176 426 168 326 c 1
 216 387 255 409 314 409 c 0
 409 409 469 336 469 221 c 0
 469 79 381 -17 252 -17 c 0
 181 -17 125 9 89 60 c 0
 57 106 37 182 37 264 c 0
165 198 m 0
 165 97 203 33 263 33 c 0
 319 33 351 84 351 171 c 0
 351 262 312 323 254 323 c 0
 195 323 165 282 165 198 c 0
EndSplineSet
Validated: 1
AlternateSubs2: "'aalt' Access All Alternates lookup 0 subtable" six.oldstyle six
AlternateSubs2: "'aalt' Access All Alternates in Latin lookup 0 subtable" six.oldstyle six
Substitution2: "'pnum' Proportional Numbers in Latin lookup 5 subtable" six.oldstyle
Substitution2: "'lnum' Lining Figures in Latin lookup 4 subtable" six
EndChar

StartChar: seven.taboldstyle
Encoding: 318 -1 177
Width: 500
VWidth: 0
Flags: W
TeX: 460 -199
HStem: 336 122<102.825 384>
VStem: 49 39<220 276>
LayerCount: 2
Fore
SplineSet
46 452 m 1
 56 460 l 1
 155 458 l 2
 354 454 275 454 352 454 c 2
 493 457 l 1
 493 412 l 1
 459 358 440 321 400 240 c 2
 290 16 l 2
 263 -39 219 -150 204 -199 c 1
 186 -197 167 -196 149 -196 c 0
 131 -196 112 -197 94 -199 c 1
 88 -188 l 1
 388 330 l 1
 384 336 l 1
 159 336 l 2
 112 336 101 328 96 284 c 2
 88 220 l 1
 49 220 l 1
 50 310 l 2
 50 365 46 452 46 452 c 1
EndSplineSet
Validated: 1
AlternateSubs2: "'aalt' Access All Alternates lookup 0 subtable" seven.oldstyle seven
AlternateSubs2: "'aalt' Access All Alternates in Latin lookup 0 subtable" seven.oldstyle seven
Substitution2: "'pnum' Proportional Numbers in Latin lookup 5 subtable" seven.oldstyle
Substitution2: "'lnum' Lining Figures in Latin lookup 4 subtable" seven
EndChar

StartChar: eight.taboldstyle
Encoding: 319 -1 178
Width: 500
VWidth: 0
Flags: W
TeX: 681 -17
HStem: -17 52<180.407 311.142> 608 52<183.615 313.609>
VStem: 34 89<93.573 236.61> 51 103<459.305 564.675> 353 84<442.523 569.259> 357 110<108.668 217.926>
LayerCount: 2
Fore
SplineSet
34 155 m 0xe4
 34 226 72 280 151 320 c 1
 79 362 51 405 51 476 c 0
 51 587 134 660 260 660 c 0
 368 660 437 604 437 517 c 0xd8
 437 461 412 423 343 376 c 1
 384 359 402 347 424 322 c 0
 453 289 467 250 467 203 c 0
 467 77 367 -17 234 -17 c 0
 116 -17 34 54 34 155 c 0xe4
123 171 m 0xe4
 123 93 176 35 248 35 c 0
 310 35 357 84 357 150 c 0
 357 207 327 242 253 275 c 2
 192 302 l 1
 140 256 123 224 123 171 c 0xe4
154 519 m 0xd8
 154 471 180 442 250 412 c 2
 294 393 l 1
 337 430 353 459 353 501 c 0
 353 565 311 608 249 608 c 0
 192 608 154 573 154 519 c 0xd8
EndSplineSet
Validated: 1
AlternateSubs2: "'aalt' Access All Alternates lookup 0 subtable" eight.oldstyle eight
AlternateSubs2: "'aalt' Access All Alternates in Latin lookup 0 subtable" eight.oldstyle eight
Substitution2: "'pnum' Proportional Numbers in Latin lookup 5 subtable" eight.oldstyle
Substitution2: "'lnum' Lining Figures in Latin lookup 4 subtable" eight
EndChar

StartChar: nine.taboldstyle
Encoding: 320 -1 179
Width: 500
VWidth: 0
Flags: W
TeX: 481 -196
HStem: -196 44<105 195.543> 57 87<141.184 264.215> 429 52<186.829 292.821>
VStem: 31 118<195.036 361.179> 336 127<118.829 350.366>
LayerCount: 2
Fore
SplineSet
31 248 m 0
 31 392 114 481 248 481 c 0
 388 481 463 386 463 211 c 0
 463 35 380 -108 243 -168 c 0
 199 -188 171 -193 105 -196 c 1
 67 -167 l 1
 76 -149 l 1
 90 -151 101 -152 107 -152 c 0
 134 -152 180 -140 209 -124 c 0
 255 -99 291 -50 310 14 c 0
 321 49 325 76 331 136 c 1
 268 81 l 2
 248 64 228 57 195 57 c 0
 90 57 31 126 31 248 c 0
149 297 m 0
 149 202 187 144 250 144 c 0
 309 144 336 182 336 265 c 0
 336 370 302 429 241 429 c 0
 183 429 149 380 149 297 c 0
EndSplineSet
Validated: 1
AlternateSubs2: "'aalt' Access All Alternates lookup 0 subtable" nine.oldstyle nine
AlternateSubs2: "'aalt' Access All Alternates in Latin lookup 0 subtable" nine.oldstyle nine
Substitution2: "'pnum' Proportional Numbers in Latin lookup 5 subtable" nine.oldstyle
Substitution2: "'lnum' Lining Figures in Latin lookup 4 subtable" nine
EndChar

StartChar: dcroat
Encoding: 321 273 180
Width: 611
VWidth: 0
Flags: W
TeX: 720 -17
HStem: -17 95<225.363 293.792> -3 37<544 577> 407 64<209.107 343.93> 538 42<260 386 508 591> 641 36<307 360> 700 20G<434.545 508>
VStem: 42 126<146.384 328.301> 386 122<111.062 367.381 446 538 580 637.422>
LayerCount: 2
Fore
SplineSet
42 217 m 0xbf
 42 303 69 360 126 398 c 2
 198 445 l 2
 224 462 254 471 285 471 c 0
 311 471 338 465 366 454 c 2
 386 446 l 1
 386 538 l 1
 260 538 l 1
 260 580 l 1
 386 580 l 1
 385 629 382 636 360 638 c 2
 307 641 l 1
 307 677 l 1
 365 683 399 689 428 698 c 2
 500 720 l 1
 508 714 l 1
 508 580 l 1
 591 580 l 1
 591 538 l 1
 508 538 l 1
 508 100 l 2
 508 46 513 38 544 36 c 2
 577 34 l 1
 577 -3 l 1
 556 -2 537 -2 530 -2 c 2
 476 0 l 1
 386 -3 l 1x7f
 381 5 l 1
 386 80 l 1
 282 -5 l 2
 272 -13 256 -17 233 -17 c 0
 116 -17 42 74 42 217 c 0xbf
168 255 m 0
 168 147 213 78 284 78 c 0xbf
 339 78 386 115 386 160 c 2
 386 344 l 1
 353 387 317 407 273 407 c 0
 203 407 168 356 168 255 c 0
EndSplineSet
Validated: 1
AlternateSubs2: "'aalt' Access All Alternates lookup 0 subtable" dcroat.sc
AlternateSubs2: "'aalt' Access All Alternates in Latin lookup 0 subtable" dcroat.sc
Substitution2: "'smcp' Lowercase to Small Capitals in Latin lookup 2 subtable" dcroat.sc
EndChar

StartChar: perthousand
Encoding: 137 8240 181
Width: 1000
VWidth: 0
Flags: W
TeX: 681 0
HStem: 0 29<478.086 534.006 807.086 863.006> 294 29<474.695 536.822 803.695 865.822> 377 29<152.086 208.006> 671 29<148.695 210.822>
VStem: 33 93<446.443 627.866> 234 93<446.688 627.529> 359 93<69.4428 250.866> 560 93<69.6881 250.529> 688 93<69.4428 250.866> 889 93<69.6881 250.529>
LayerCount: 2
Fore
SplineSet
33 534 m 0
 33 636 90 700 182 700 c 0
 270 700 327 635 327 534 c 0
 327 441 267 377 180 377 c 0
 92 377 33 441 33 534 c 0
119 -9 m 1
 522 724 l 1
 573 724 l 1
 170 -9 l 1
 119 -9 l 1
126 538 m 0
 126 452 145 406 180 406 c 0
 216 406 234 452 234 541 c 0
 234 633 218 671 181 671 c 0
 141 671 126 635 126 538 c 0
359 157 m 0
 359 259 416 323 508 323 c 0
 596 323 653 258 653 157 c 0
 653 64 593 0 506 0 c 0
 418 0 359 64 359 157 c 0
452 161 m 0
 452 75 471 29 506 29 c 0
 542 29 560 75 560 164 c 0
 560 256 544 294 507 294 c 0
 467 294 452 258 452 161 c 0
688 157 m 0
 688 259 745 323 837 323 c 0
 925 323 982 258 982 157 c 0
 982 64 922 0 835 0 c 0
 747 0 688 64 688 157 c 0
781 161 m 0
 781 75 800 29 835 29 c 0
 871 29 889 75 889 164 c 0
 889 256 873 294 836 294 c 0
 796 294 781 258 781 161 c 0
EndSplineSet
Validated: 1
EndChar

StartChar: uni203D
Encoding: 322 8253 182
Width: 444
VWidth: 0
Flags: W
TeX: 738 -12
HStem: -12 156<143.393 245.621>
VStem: 116 156<13.8326 116.924> 151 50<197.712 291.157> 277 134<448.239 559.257>
LayerCount: 2
Fore
SplineSet
43 506 m 1xb0
 65 573 72 604 75 639 c 1
 93 651 109 661 125 668 c 1
 125 694 l 1
 225 738 l 1
 276 738 l 1
 276 717 275 701 274 683 c 1
 358 667 411 611 411 530 c 0
 411 474 393 440 340 396 c 2
 263 332 l 2
 222 298 201 267 201 241 c 0
 201 228 204 217 210 204 c 2
 211 202 l 1
 177 188 l 1
 159 211 151 234 151 262 c 0
 151 283 157 303 172 329 c 1
 133 584 l 1
 121 580 112 574 109 568 c 2
 78 497 l 1
 43 506 l 1xb0
116 64 m 0xd0
 116 106 153 144 195 144 c 0
 235 144 272 106 272 65 c 0
 272 24 235 -12 194 -12 c 0
 152 -12 116 23 116 64 c 0xd0
233 409 m 1
 265 451 277 478 277 508 c 0
 277 528 269 546 256 560 c 1
 233 409 l 1
EndSplineSet
Validated: 1
EndChar

StartChar: lira
Encoding: 323 8356 183
Width: 500
VWidth: 0
Flags: W
TeX: 676 -19
HStem: -16 108<262.916 452.338> 32 80<89.5991 245.572> 277 43<16 106 236 404> 378 43<16 106 241 404> 610 66<310.94 416.683>
VStem: 106 130<320 378> 439 31<513 548> 467 34<142.364 178>
LayerCount: 2
Fore
SplineSet
-2 40 m 1x7d
 62 92 l 2xbd
 99 122 103 106 106 277 c 1
 16 277 l 1
 16 320 l 1
 106 320 l 1
 106 378 l 1
 16 378 l 1
 16 421 l 1
 106 421 l 1
 109 469 127 512 161 550 c 0
 221 619 331 676 404 676 c 0
 431 676 459 666 480 649 c 1
 470 513 l 1
 439 513 l 1
 436 548 l 2
 433 586 401 610 355 610 c 0
 283 610 253 570 244 463 c 2
 241 421 l 1
 404 421 l 1
 404 378 l 1
 239 378 l 1
 236 320 l 1
 404 320 l 1
 404 277 l 1
 231 277 l 1
 212 180 179 157 117 93 c 1
 167 108 191 112 221 112 c 0x7e
 240 112 243 112 318 101 c 0
 371 93 384 92 406 92 c 0
 433 92 452 104 456 122 c 2
 467 178 l 1
 501 178 l 1
 491 -1 l 1
 462 -11 437 -16 408 -16 c 0xbd
 362 -16 308 -7 246 10 c 0
 195 24 149 32 113 32 c 0
 98 32 85 26 62 7 c 0
 45 -8 32 -15 18 -19 c 1
 -2 40 l 1x7d
EndSplineSet
Validated: 1
EndChar

StartChar: eng
Encoding: 324 331 184
Width: 611
VWidth: 0
Flags: W
TeX: 471 -167
HStem: -167 48<306 357.278> -3 37<24 59 253 288> 385 86<293.522 391.821> 392 36<24 69>
VStem: 95 122<38.0215 359.452> 396 122<-17.0776 355.251>
LayerCount: 2
Fore
SplineSet
24 -3 m 1xec
 24 34 l 1
 59 36 l 2
 90 38 95 46 95 100 c 2
 95 319 l 2
 95 378 92 387 69 389 c 2
 24 392 l 1
 24 428 l 1xdc
 79 431 107 437 211 471 c 1
 217 465 l 1
 217 390 l 1
 297 452 l 2
 313 465 337 471 367 471 c 0
 416 471 457 456 483 429 c 0
 509 401 518 363 518 286 c 2
 518 100 l 2
 518 -38 434 -167 306 -167 c 1
 306 -119 l 1
 407 -119 396 18 396 134 c 2
 396 270 l 2
 396 350 368 385 302 385 c 0
 258 385 217 352 217 317 c 2
 217 100 l 2
 217 46 222 38 253 36 c 2
 288 34 l 1
 288 -3 l 1
 243 -1 198 0 153 0 c 0
 110 0 67 -1 24 -3 c 1xec
EndSplineSet
Validated: 33
AlternateSubs2: "'aalt' Access All Alternates lookup 0 subtable" eng.sc
AlternateSubs2: "'aalt' Access All Alternates in Latin lookup 0 subtable" eng.sc
Substitution2: "'smcp' Lowercase to Small Capitals in Latin lookup 2 subtable" eng.sc
EndChar

